<?xml version="1.0" encoding="utf-8"?>
<!-- Generator: Adobe Illustrator 22.1.0, SVG Export Plug-In . SVG Version: 6.00 Build 0)  -->
<svg version="1.1" id="Слой_1" xmlns="http://www.w3.org/2000/svg" xmlns:xlink="http://www.w3.org/1999/xlink" x="0px" y="0px"
	 viewBox="0 0 1920 372.7" style="enable-background:new 0 0 1920 372.7;" xml:space="preserve">
<style type="text/css">
	.st0{fill:#C1272D;stroke:#000000;stroke-width:4;stroke-miterlimit:10;}
</style>
<path class="st0" d="M40,341.1L158.6,25.4h91.8V341h-44.8v-73.9h-93.2L84.8,341H40V341.1z M205.6,222.4V83.6H181l-51.9,138.8H205.6z
	"/>
<polygon class="st0" points="319.8,341.1 319.8,144.1 382.5,341.1 427.3,341.1 427.3,25.4 382.5,25.4 382.5,202.3 319.8,25.4 
	319.8,25.4 275,25.4 275,341.1 "/>
<g>
	<rect x="472" y="25.4" class="st0" width="44.8" height="241.8"/>
</g>
<polygon class="st0" points="561.6,341.1 561.6,25.4 606.3,83.6 606.3,296.3 727.2,296.3 727.2,341.1 "/>
<g>
	<rect x="772" y="25.4" class="st0" width="44.8" height="241.8"/>
</g>
<path class="st0" d="M796.6,25.4"/>
<path class="st0" d="M971.2,25.4H861.5V341h165.6V83.6L971.2,25.4z M982.4,296.3h-76.1v-53.7h76.1V296.3z M982.4,197.8h-76.1V72.5
	h49.3l26.8,26.8V197.8z"/>
<path class="st0" d="M1237.6,83.6l-56-58.2h-109.7V341h44.8v-98.5h31.3l44.8,98.5h44.8l-44.8-98.5l44.8-44.8L1237.6,83.6
	L1237.6,83.6z M1192.8,197.8h-76.1V72.4h49.2l26.9,26.9V197.8z"/>
<path class="st0" d="M1492.7,341.1L1374.1,25.4h-91.8V341h44.8v-73.9h93.3L1448,341h44.7V341.1z M1327.1,222.4V83.6h24.6l51.9,138.8
	H1327.1z"/>
<path class="st0" d="M1703.2,83.6l-56-58.2h-109.7V341h44.8v-98.5h31.3l44.8,98.5h44.8l-44.8-98.5l44.8-44.8L1703.2,83.6
	L1703.2,83.6z M1658.4,197.8h-76.1V72.4h49.2l26.9,26.9V197.8z"/>
<polygon class="st0" points="1835.2,25.4 1880,83.6 1880,341.1 1835.2,341.1 1835.2,242.6 1747.9,97.1 1747.9,25.4 1835.2,173.2 "/>
<circle class="st0" cx="494" cy="318.7" r="23"/>
<circle class="st0" cx="794" cy="318.7" r="23"/>
<rect x="471" y="295.7" class="st0" width="45.8" height="45.8"/>
<rect x="771" y="295.7" class="st0" width="45.8" height="45.8"/>
</svg>
