<?xml version="1.0" encoding="utf-8"?>
<!-- Generator: Adobe Illustrator 22.1.0, SVG Export Plug-In . SVG Version: 6.00 Build 0)  -->
<svg version="1.1" id="Слой_1" xmlns="http://www.w3.org/2000/svg" xmlns:xlink="http://www.w3.org/1999/xlink" x="0px" y="0px"
	 viewBox="0 0 64 64" style="enable-background:new 0 0 64 64;" xml:space="preserve">
<style type="text/css">
	.st0{fill:#5F6368;stroke:#5F6368;stroke-width:2;stroke-miterlimit:10;}
</style>
<g>
	<g>
		<path class="st0" d="M16,6.1h15.4c10.6,0,17.9,3.6,17.9,12.7c0,5.1-2.7,9.7-7.6,11.3v0.3c6.2,1.2,10.6,5.3,10.6,12.5
			c0,10.2-8.1,15.2-19.7,15.2H16V6.1z M30.4,28.3c8.9,0,12.5-3.3,12.5-8.5c0-6.1-4.2-8.4-12.2-8.4h-8v16.9H30.4z M31.7,52.9
			c8.9,0,14.1-3.2,14.1-10.2c0-6.4-5-9.3-14.1-9.3h-9.1v19.6H31.7z"/>
	</g>
</g>
</svg>
