<?xml version="1.0" encoding="utf-8"?>
<!-- Generator: Adobe Illustrator 22.1.0, SVG Export Plug-In . SVG Version: 6.00 Build 0)  -->
<svg version="1.1" id="Слой_1" xmlns="http://www.w3.org/2000/svg" xmlns:xlink="http://www.w3.org/1999/xlink" x="0px" y="0px"
	 viewBox="0 0 64 64" style="enable-background:new 0 0 64 64;" xml:space="preserve">
<style type="text/css">
	.st0{fill:#FFFFFF;}
</style>
<path class="st0" d="M47.8,24.2c0-2.4-2-4.4-4.5-4.4h-0.7v0h-0.3v-1.5c0-0.7-0.6-1.3-1.3-1.3h-0.7c-0.7,0-1.3,0.6-1.3,1.3v1.5H25
	v-1.5c0-0.7-0.6-1.3-1.3-1.3H23c-0.7,0-1.3,0.6-1.3,1.3v1.5h-0.3v0h-0.6c-2.4,0-4.5,2-4.5,4.4h0v21.3h0v0.1c0,1.2,0.5,2.4,1.3,3.2
	c0.8,0.8,1.9,1.3,3.2,1.3h0.6v0h21.3v0h0.7c2.5,0,4.5-2,4.5-4.5v-0.1h0L47.8,24.2L47.8,24.2z M39,20.8v1.4c0,0.7,0.6,1.3,1.3,1.3H41
	c0.7,0,1.3-0.6,1.3-1.3v-1.4c0.4,0.4,0.7,1,0.7,1.6c0,1.3-1,2.3-2.3,2.3s-2.3-1-2.3-2.3C38.3,21.8,38.6,21.3,39,20.8z M21.7,20.8
	v1.4c0,0.7,0.6,1.3,1.3,1.3h0.7c0.7,0,1.3-0.6,1.3-1.3v-1.4c0.4,0.4,0.7,1,0.7,1.6c0,1.3-1,2.3-2.3,2.3c-1.3,0-2.3-1-2.3-2.3
	C21,21.8,21.3,21.3,21.7,20.8z M26.7,44.8H20v-4h6.7V44.8z M26.7,39.5H20v-4h6.7V39.5z M26.7,34.2H20v-4h6.7V34.2z M35.2,44.8h-6.7
	v-4h6.7V44.8z M35.2,39.5h-6.7v-4h6.7V39.5z M35.2,34.2h-6.7v-4h6.7V34.2z M44,44.8h-6.7v-4H44V44.8z M44,39.5h-6.7v-4H44V39.5z
	 M44,34.2h-6.7v-4H44V34.2z"/>
</svg>
