<?xml version="1.0" encoding="utf-8"?>
<!-- Generator: Adobe Illustrator 22.1.0, SVG Export Plug-In . SVG Version: 6.00 Build 0)  -->
<svg version="1.1" id="Capa_1" xmlns="http://www.w3.org/2000/svg" xmlns:xlink="http://www.w3.org/1999/xlink" x="0px" y="0px"
	 viewBox="0 0 528.9 528.9" style="enable-background:new 0 0 528.9 528.9;" xml:space="preserve">
<style type="text/css">
	.st0{fill:none;}
	.st1{fill:#FFFFFF;}
</style>
<path class="st0" d="M410.2,281.8c19.6-13.7,14.4-58.9,8.5-70c-5.9-11.1-17-75.9-17-75.9s-57.5-49.7,0.8,4.6s39.1,95.5,39.1,95.5
	C456,179.2,401.7,136,401.7,136C365.1-11.8,252,26.1,252,26.1C157.1,19.6,137.8,136,137.8,136l-0.6,28.1l-21.3,33.4
	c12.4-17.7,21.9-61.5,21.9-61.5c-3,40.5,4.9,87.6,4.9,87.6c-11.1,81.1,0,105.9,0,105.9l4.6-61.5"/>
<path class="st1" d="M401.7,136C367.9-6.3,252,26.1,252,26.1c-67.2-4.6-107.7,72.4-112,100c-4.1,26.3-22.3,68.9-23.9,72.8
	c7.8-16.8,21.2-34.9,21.2-34.9l1.8,54.8c-5.6,108.2,5,109.3,5,109.3l3.2-58.5c-2.4,58.8,40.6,69.7,40.6,69.7s-5-27.6-6.9-38
	c3.3,11.5,24.4,28.7,34.7,36.5l-16.7,8c-11.8,3.9-30.1,3.3-30.1,3.3c-24.2,20.9-30.7,63.4-30.7,63.4c-20.3,33.4-29.4,72.6-29.4,72.6
	l15.7,15.7c-0.9,10.8-1.5,20.1-2,28h272c3-13.5,3.9-20.8,3.9-20.8h25.9c-9.5-11.1-0.2-105.3-0.2-105.3s3.8-32.7-19.1-48.4
	c-22.9-15.7-19.6-8.5-27.5-13.1c-7.9-4.6-24.9-2-33.4-5.2c-8.5-3.3-13.7-3.9-17.7-12.8c-3.9-8.9,0-23.1,0-23.1l6.5-0.7l3.3,23.8
	l9.1-11.4c0,0,1.3,21.6,3.9,5.3c2.6-16.3,24.2-35.3,24.2-35.3s-26.8,51.7-14.4,30.1c12.2-21.2,27.3-29.8,27.8-30.1l-10.1,19
	c15.4-8.2,32.1-57.1,38.8-78.7c0.1,3.2,0.9,7.1,3,12c6.7,15.9-3.8,48.9-4,49.7c25.3-15.2,10.4-69,7.2-72.6
	c-3.2-3.6-19.3-67.4-19.3-67.4c53.1,49.3,43.4,87,42.2,90.8C461.2,187,401.7,136,401.7,136z M217.6,335.5
	c-7.2-13-22.2-40.3-16.7-32.8c5.3,7.3,17.1,13.8,22.9,16.7C221.9,326.5,219.1,332.5,217.6,335.5z M224.4,317.3l-14.3-19.8l15.7,7.2
	C226,308.8,225.4,313.2,224.4,317.3z"/>
<path class="st0" d="M187.9,339.4c0,0-39.9-8-40.5-71.3"/>
</svg>
