<?xml version="1.0" encoding="utf-8"?>
<!-- Generator: Adobe Illustrator 22.1.0, SVG Export Plug-In . SVG Version: 6.00 Build 0)  -->
<svg version="1.1" id="Слой_1" xmlns="http://www.w3.org/2000/svg" xmlns:xlink="http://www.w3.org/1999/xlink" x="0px" y="0px"
	 viewBox="0 0 362.8 362.8" style="enable-background:new 0 0 362.8 362.8;" xml:space="preserve">
<style type="text/css">
	.st0{fill:#FFFFFF;stroke:#FFFFFF;stroke-linecap:round;stroke-linejoin:round;stroke-miterlimit:10;}
</style>
<circle class="st0" cx="184" cy="163.5" r="57.7"/>
<path class="st0" d="M278.5,282.2c0,0.8,0,1.6,0,2.4c-0.6,11.1-4.9,21-11.9,28.9H100.3c-6.9-7.7-11.3-17.8-11.9-28.9
	c0-0.8,0-1.6,0-2.4c0-12.9,5.3-24.7,14-33.4c8.5-8.5,20.2-14,33.4-14h95.7C257.3,235.1,278.5,256.1,278.5,282.2z"/>
<rect x="88.3" y="284.4" class="st0" width="189.9" height="28.9"/>
<path class="st0" d="M108.2,163.5c0,2.6,0.2,5.1,0.4,7.7c-31.8-0.2-57.2-25.9-57.2-57.7c0-32,25.9-57.7,57.7-57.7
	c23.9,0,44.3,14.6,53.2,35C131,100.2,108.2,129.1,108.2,163.5z"/>
<path class="st0" d="M125.2,216.1c-9.1,4.7-17.4,10.3-25.1,17.2c-1.8,1.6-3.6,3.2-5.3,4.9c-1.4,1.4-2.8,2.8-4,4.2
	c-0.4,0.4-0.8,0.8-1.2,1.2c-1.4,1.6-2.8,3.2-4,4.9c-1.2,1.4-2.2,2.6-3.2,4c-0.8,1-1.4,2-2.2,3c-0.8,1.2-1.8,2.6-2.6,4
	c-1,1.6-2,3.2-3,4.9c-0.2,0.4-0.4,0.6-0.6,1c-1,1.6-1.8,3.2-2.6,4.9c-0.2,0.2-0.2,0.4-0.4,0.8H24.2c-4.5-3-8.3-6.9-11.3-11.3
	c-4-5.7-6.9-12.1-8.1-19.2c-0.4-2.6-0.6-5.3-0.6-8.1c0-12.9,5.3-24.7,14-33.4c8.5-8.5,20.2-14,33.4-14h59.1
	C112.6,196.4,117.9,207.2,125.2,216.1z"/>
<path class="st0" d="M149.8,236.1v4c-0.2-1.4-0.4-2.8-0.6-4.5C149.4,235.9,149.6,235.9,149.8,236.1z"/>
<path class="st0" d="M149.8,236.1v4c-0.2-1.4-0.4-2.8-0.6-4.5C149.4,235.9,149.6,235.9,149.8,236.1z"/>
<path class="st0" d="M100.1,233.3c-1.8,1.6-3.6,3.2-5.3,4.9c-1.4,1.4-2.8,2.8-4,4.2c-0.4,0.4-0.8,0.8-1.2,1.2c-1.4,1.6-2.8,3-4,4.9
	c-1.2,1.4-2.2,2.6-3.2,4c-0.8,1-1.4,2-2.2,3c-0.8,1.2-1.8,2.6-2.6,4c-1,1.6-2,3.2-3,4.9c-0.2,0.4-0.4,0.6-0.6,1
	c-1,1.6-1.8,3.2-2.6,4.9c-0.2,0.2-0.2,0.4-0.4,0.8H4.6v-37.4h95.5V233.3z"/>
<path class="st0" d="M311.9,113.3c0,29.9-23.1,54.6-52.2,57.4c0.2-2.4,0.4-4.9,0.4-7.5c0-35.8-24.9-65.9-58.5-73.8
	c9.1-20,29.1-34,52.6-34C286,55.6,311.9,81.5,311.9,113.3z"/>
<path class="st0" d="M149.2,235.7c0.2,0,0.4,0.2,0.6,0.2v4C149.4,238.7,149.2,237.3,149.2,235.7z"/>
<path class="st0" d="M358,232v1.2c-0.2,9.7-3.4,18.8-8.7,26.1c-1.4,2.2-3.2,4.2-5.1,6.1c-2,2-4,3.8-6.3,5.3h-40.1
	c-0.2-0.2-0.2-0.4-0.4-0.8c-0.8-1.6-1.6-3.2-2.6-4.9c-0.2-0.4-0.4-0.8-0.6-1c-0.8-1.6-1.8-3-2.8-4.7l0,0c-1-1.6-2.2-3.2-3.4-4.9
	c-1.4-2.2-3-4.2-4.9-6.3c-1.2-1.6-2.6-3.2-4-4.9c-0.4-0.4-0.8-0.8-1.2-1.2c-1.4-1.4-2.6-2.8-4-4.2c-1.6-1.6-3.4-3.2-5.3-4.9
	c-7.7-6.7-16-12.5-25.1-17.2c7.3-8.9,12.5-19.6,15-31.2h52.6C336.8,184.9,358,206.1,358,232z"/>
<path class="st0" d="M358.6,233.3v37.4h-61.1c-0.2-0.2-0.2-0.4-0.4-0.8c-0.8-1.6-1.6-3.2-2.6-4.9c-0.2-0.4-0.4-0.8-0.6-1
	c-0.8-1.6-1.8-3.2-2.8-4.7l0,0c-1-1.6-2.2-3.2-3.4-4.9c-1.4-2.2-3-4.2-4.9-6.3c-1.2-1.6-2.6-3.2-4-4.9c-0.4-0.4-0.8-0.8-1.2-1.2
	c-1.2-1.4-2.6-2.8-4-4.2c-1.6-1.6-3.4-3.2-5.3-4.9h90.4V233.3z"/>
<path class="st0" d="M149.8,236.1v4c-0.2-1.4-0.4-2.8-0.6-4.5C149.4,235.9,149.6,235.9,149.8,236.1z"/>
</svg>
