<?xml version="1.0" encoding="utf-8"?>
<!-- Generator: Adobe Illustrator 22.1.0, SVG Export Plug-In . SVG Version: 6.00 Build 0)  -->
<svg version="1.1" id="Слой_1" xmlns="http://www.w3.org/2000/svg" xmlns:xlink="http://www.w3.org/1999/xlink" x="0px" y="0px"
	 viewBox="0 0 800 300" style="enable-background:new 0 0 800 300;" xml:space="preserve">
<style type="text/css">
	.st0{fill:#808080;}
	.st1{fill:#808080;stroke:#B3B3B3;stroke-linecap:round;stroke-linejoin:round;stroke-miterlimit:10;}
	.st2{fill:#418181;stroke:#418181;stroke-width:6;stroke-miterlimit:10;}
	.st3{fill:#E6E6E6;stroke:#666666;stroke-width:8;stroke-miterlimit:10;}
	.st4{fill:none;}
	.st5{fill:none;stroke:#FF9600;stroke-width:2;stroke-miterlimit:10;}
	.st6{fill:none;stroke:#595959;stroke-miterlimit:10;}
	.st7{fill:none;stroke:#FF9600;stroke-miterlimit:10;}
	.st8{fill:none;stroke:#595959;stroke-width:2;stroke-miterlimit:10;}
	.st9{fill:none;stroke:#C1272D;stroke-miterlimit:10;}
	.st10{fill:none;stroke:#D3D3D3;stroke-miterlimit:10;}
	.st11{fill:#FFFFFF;}
	.st12{fill:#418181;}
	.st13{fill:#666666;}
</style>
<rect x="570.1" y="170.8" transform="matrix(0.7071 -0.7071 0.7071 0.7071 43.8876 458.6266)" class="st0" width="11" height="11"/>
<rect x="575.7" y="180" transform="matrix(0.7071 -0.7071 0.7071 0.7071 41.7459 463.4342)" class="st0" width="9.3" height="2.7"/>
<polygon class="st1" points="590.1,181.2 589.2,182.2 585.3,178.3 577.5,186.1 581.4,189.9 580.4,190.9 612.5,223 622.2,213.3 "/>
<polyline class="st2" points="582,148.2 595.9,154 619.2,97.4 580.5,81.4 564.9,119.3 "/>
<circle class="st3" cx="548.3" cy="148.6" r="33.7"/>
<polyline class="st2" points="580.3,159.3 541.4,143.3 552.9,115.3 "/>
<path class="st4" d="M489.2,124.6c-3,2.7-7.7,2.3-10.3-0.7c-2.1-2.4-1.9-6.1,0.5-8.2c1.9-1.7,4.9-1.5,6.6,0.4
	c1.4,1.6,1.2,3.9-0.4,5.3c-1.2,1.1-3.1,1-4.2-0.3c-0.9-1-0.8-2.5,0.2-3.4c0.8-0.7,2-0.6,2.7,0.2c0.6,0.6,0.5,1.6-0.1,2.2
	c-0.5,0.4-1.3,0.4-1.7-0.1c-0.4-0.4-0.3-1,0.1-1.4"/>
<path class="st5" d="M535.3,95.7c-2.7,7.2-10.7,10.9-17.9,8.2c-5.8-2.1-8.7-8.5-6.6-14.3c1.7-4.6,6.8-7,11.4-5.3
	c3.7,1.4,5.6,5.5,4.2,9.2c-1.1,3-4.4,4.5-7.3,3.4c-2.4-0.9-3.6-3.5-2.7-5.9c0.7-1.9,2.8-2.9,4.7-2.2c1.5,0.6,2.3,2.2,1.7,3.7
	c-0.4,1.2-1.8,1.8-3,1.4c-1-0.4-1.5-1.4-1.1-2.4"/>
<path class="st6" d="M493.7,140.1c-3,2.2-7.2,1.6-9.5-1.4c-1.8-2.4-1.3-5.8,1.1-7.6c1.9-1.4,4.6-1,6.1,0.9c1.1,1.5,0.8,3.7-0.7,4.9
	c-1.2,0.9-3,0.7-3.9-0.6c-0.7-1-0.5-2.4,0.4-3.1c0.8-0.6,1.9-0.4,2.5,0.4c0.5,0.6,0.3,1.5-0.3,2c-0.5,0.4-1.2,0.3-1.6-0.2
	c-0.3-0.4-0.2-1,0.2-1.3"/>
<path class="st7" d="M561.1,207.4c-4.2,7.2-13.4,9.7-20.6,5.5c-5.8-3.3-7.7-10.7-4.4-16.5c2.7-4.6,8.6-6.2,13.2-3.5
	c3.7,2.1,5,6.9,2.8,10.6c-1.7,3-5.5,4-8.4,2.3c-2.4-1.4-3.2-4.4-1.8-6.8c1.1-1.9,3.5-2.5,5.4-1.4c1.5,0.9,2,2.8,1.2,4.3
	c-0.7,1.2-2.2,1.6-3.5,0.9c-1-0.6-1.3-1.8-0.7-2.8"/>
<path class="st8" d="M606.4,153.8c3.4-1.9,7.7-0.7,9.6,2.7c1.5,2.7,0.5,6.2-2.2,7.7c-2.2,1.2-4.9,0.4-6.2-1.8c-1-1.7-0.3-4,1.4-4.9
	c1.4-0.8,3.2-0.3,3.9,1.1c0.6,1.1,0.2,2.5-0.9,3.2c-0.9,0.5-2,0.2-2.5-0.7c-0.4-0.7-0.1-1.6,0.6-2c0.6-0.3,1.3-0.1,1.6,0.5
	c0.3,0.5,0.1,1-0.4,1.3"/>
<path class="st9" d="M651.8,89.2c5.7,6.1,5.4,15.6-0.7,21.3c-4.9,4.6-12.5,4.3-17-0.5c-3.6-3.9-3.4-10,0.4-13.6
	c3.1-2.9,8-2.8,10.9,0.4c2.3,2.5,2.2,6.4-0.3,8.7c-2,1.9-5.1,1.8-7-0.2c-1.5-1.6-1.4-4.1,0.2-5.6c1.3-1.2,3.3-1.1,4.5,0.1
	c1,1,0.9,2.6-0.1,3.6c-0.8,0.8-2.1,0.7-2.9-0.1"/>
<path class="st10" d="M649.7,190.2c-2.7,3.4-7.6,4-11,1.4c-2.7-2.1-3.2-6.1-1.1-8.8c1.7-2.2,4.9-2.6,7-0.9c1.7,1.4,2.1,3.9,0.7,5.6
	c-1.1,1.4-3.1,1.7-4.5,0.6c-1.1-0.9-1.3-2.5-0.5-3.6c0.7-0.9,2-1.1,2.9-0.4c0.7,0.6,0.8,1.6,0.3,2.3c-0.4,0.6-1.3,0.7-1.8,0.2
	c-0.5-0.4-0.5-1-0.2-1.5"/>
<path class="st11" d="M523.5,159.5c-6.4-11.9-2.4-26.5,9-32.7c0,0,3.1-1.3,4.8,1.1c1.7,2.4-0.3,5.1-0.3,5.1
	c-7.8,4.2-10.1,15.1-5.1,24.3c0,0,2.4,4.5-2,6.1S523.5,159.5,523.5,159.5z"/>
<g>
	<g>
		<path d="M564,125.2c-1.3,0.1-2.4,0.6-3.3,1.4c-0.4,0.4-0.8,0.9-1,1.5c-0.3,1.1,0.6,2,1.6,2c0.8,0,1.5-0.7,1.5-1.5
			c0-0.8-0.7-1.5-1.5-1.5c0,0-0.1,0-0.1,0c0.4,0.2,0.9,0.5,1.3,0.7c0,0,0-0.1-0.1-0.1c0.1,0.4,0.1,0.8,0.2,1.2c0,0.1,0,0.1-0.1,0.2
			c0.1-0.1,0.2-0.2,0.2-0.3c0.2-0.2,0.2-0.2,0.4-0.3c0.3-0.2,0.7-0.3,0.9-0.3c0.8-0.1,1.5-0.6,1.5-1.5
			C565.5,126,564.8,125.1,564,125.2L564,125.2z"/>
	</g>
</g>
<g>
	<g>
		<path d="M564.5,127.1c-1.2,0.8-2.4,1.8-3.5,2.7c0.7,0.7,1.4,1.4,2.1,2.1c1.1-1,2.2-1.9,3.3-2.7c0.6-0.5,1-1.3,0.5-2.1
			c-0.4-0.6-1.4-1-2.1-0.5c-1.4,1-2.7,2.1-3.9,3.2c-0.6,0.5-0.6,1.6,0,2.1c0.6,0.6,1.5,0.5,2.1,0c0.9-0.8,1.9-1.6,2.9-2.3
			c0.7-0.5,1-1.3,0.5-2.1C566.2,127,565.2,126.6,564.5,127.1L564.5,127.1z"/>
	</g>
</g>
<g>
	<g>
		<path d="M562.8,135c0.5-1.1,0.9-2.3,1.2-3.5c-1-0.3-1.9-0.5-2.9-0.8c-0.2,1.2-0.4,2.5-0.5,3.7c-0.2,1.6,1.8,2.7,2.7,1.2
			c0.9-1.4,1.7-2.9,2.5-4.5c-0.9-0.4-1.8-0.8-2.7-1.2c-0.3,1.9-0.8,3.7-1.3,5.5c-0.4,1.6,2.1,2.8,2.7,1.2c0.5-1.1,1-2.1,1.6-3.1
			c-0.9-0.1-1.8-0.2-2.7-0.4c0.3,1.5-0.6,3.5-1.1,4.8c-0.6,1.6,1.9,2.6,2.7,1.2c1.1-1.8,1.8-3.8,3.4-5.3c-0.8-0.2-1.7-0.4-2.5-0.7
			c0.5,1.2,0.7,4.5-0.2,5.5c-0.6,0.7-2.2,0.6-2.8-0.4c0-0.6,0-1.2,0.1-1.8c1.7,0.1,2.4,0.8,2.2,2.1c0.3,3-3.1,3.5-5.2,2.6
			c-0.9-0.4-2.1-1.3-2.2-2.4c-0.3-2.5,2.2-2.9,3.8-2.9c1.3,0,5.1,1.2,4.4,3.4c-0.5,1.4-5.3,0.4-6.2,0.2c-1.1-0.3-6.7-2.8-3.2-3.9
			c0.7-0.2,1.8-0.1,2.5-0.1c0.4,0.1,0.9,0.1,1.3,0.2c0.9,0.6,1.3,0.2,1.3-1c-1.8,0.7-1,3.6,0.8,2.9c1.1-0.5,2.4-1.3,1.9-2.7
			c-0.5-1.7-3-2.1-4.4-2.3c-3.5-0.4-10.2,0.5-7.3,5.6c2.4,4.1,8.5,5.3,12.8,4.5c4-0.7,4.4-4.7,1.9-7.4c-2.6-2.9-8.6-3.4-11.4-0.4
			c-3,3.2-0.3,7.8,3,9.2c3.7,1.6,8.7-0.1,9.2-4.5c0.5-3.9-2.7-7.5-6.7-5.7c-4.3,2-1.6,7.1,1.9,8.1c5.4,1.7,6.9-5.6,5.3-9.6
			c-0.4-1-1.6-1.5-2.5-0.7c-1.7,1.7-2.6,3.9-3.8,5.9c0.9,0.4,1.8,0.8,2.7,1.2c0.7-2.1,1.6-4.2,1.1-6.4c-0.3-1.3-2.1-1.4-2.7-0.4
			c-0.6,1-1.1,2-1.6,3.1c0.9,0.4,1.8,0.8,2.7,1.2c0.5-1.8,1-3.6,1.3-5.5c0.2-1.5-1.9-2.8-2.7-1.2c-0.8,1.5-1.6,3-2.5,4.5
			c0.9,0.4,1.8,0.8,2.7,1.2c0.2-1.2,0.4-2.5,0.5-3.7c0.3-1.9-2.4-2.7-2.9-0.8c-0.3,1-0.5,1.9-0.9,2.8
			C559.4,135.2,562,136.7,562.8,135L562.8,135z"/>
	</g>
</g>
<g>
	<g>
		<path class="st12" d="M571.1,135.8c-1.9,1.1-3.9,2-5.9,2.8c-1.8,0.7-1,3.6,0.8,2.9c2.3-0.8,4.5-1.9,6.6-3.1
			C574.3,137.5,572.8,134.9,571.1,135.8L571.1,135.8z"/>
	</g>
</g>
<g>
	<g>
		<path class="st12" d="M569,136.1c-2,1.3-4,2.7-6,4c0.6,0.8,1.2,1.6,1.8,2.4c2.2-1.8,4.6-3.5,7-5.1c-0.5-0.9-1-1.7-1.5-2.6
			c-3.3,2.4-6.7,4.4-10.3,6.3c0.5,0.9,1,1.7,1.5,2.6c3.7-2.4,7.4-4.9,11.1-7.5c1.5-1.1,0.1-3.7-1.5-2.6c-3.8,2.5-7.7,5-12,6.8
			c0.6,0.7,1.1,1.5,1.7,2.2c1.8-2.9,6.2-4.9,9.1-6.4c-0.5-0.9-1-1.7-1.5-2.6c-4.2,2.6-8.7,4.6-13.5,6c0.4,0.9,0.8,1.8,1.2,2.7
			c4.2-2.1,8.3-4.2,12.5-6.3c1.7-0.9,0.2-3.4-1.5-2.6c-4.4,2.1-8.8,3.9-13.5,5.2c0.4,0.9,0.8,1.8,1.2,2.7c3.8-2.9,8-4.8,12.3-6.7
			c-0.5-0.9-1-1.7-1.5-2.6c-4.1,1.9-8.3,3.8-12.6,5.5c0.4,0.9,0.8,1.8,1.2,2.7c3.1-2.3,6.4-3.8,9.9-5.3c-0.4-0.9-0.8-1.8-1.2-2.7
			c-3.5,1.6-7.1,3.1-10.8,4.3c0.6,0.7,1.1,1.5,1.7,2.2c0.9-1.9,6-3.4,7.8-4.2c1.5-0.7,0.4-3.3-1.2-2.7c-3,1-5.9,2.1-8.8,3.3
			c0.4,0.9,0.8,1.8,1.2,2.7c2.4-1.2,4.8-2.5,7.1-3.7c1.8-0.9,0.2-3.3-1.5-2.6c-2.9,1.2-5.8,2.3-8.8,3.3c0.5,0.8,1,1.7,1.5,2.5
			c2.1-1.7,4.9-2.7,7.3-3.9c1.7-0.8,0.2-3.4-1.5-2.6c-2.1,1-4.2,2-6.3,3c0.5,0.9,1,1.7,1.5,2.6c3.1-1.9,6.4-3.8,10-4.6
			c-0.5-0.8-1-1.7-1.5-2.5c-1.3,1.4-2.4,2.4-4,3.5c0.6,0.8,1.2,1.6,1.8,2.4c2-1.8,3.6-2.8,6.1-3.8c-0.6-0.7-1.1-1.5-1.7-2.2
			c-0.9,2-2.4,3.6-4.5,4.5c0.7,0.3,1.5,0.6,2.2,0.9c0.8-2.4,2-2.9,3.6-1.7c0.4-0.5,0.7-1,1.1-1.4c-1.1-0.7-2.3-1.4-3.4-2
			c-0.6,0.7-1.1,1.5-1.7,2.2c0.6-0.9,1.2-1.8,1.9-2.8c1,0,1.9,0,2.9,0c-0.3-1-0.6-2-0.7-3c-0.3-1.5-2.5-1.3-2.9,0
			c-0.3,0.5-0.5,1-0.8,1.5c0.8,0.5,1.7,1,2.5,1.5c0.3,0.1,0.6,0.3,0.8,0.4c1-0.1,2-0.3,2.9-0.4c-0.4-0.9-0.6-1.8-0.7-2.8
			c-1,0.3-1.9,0.5-2.9,0.8c0.2,1.3,0.4,2.6,0.6,3.9c0.3,1.8,2.8,1.1,2.9-0.4c0.2-1.1,0.3-2.2,0.5-3.3c-0.8,0.2-1.7,0.4-2.5,0.7
			c1.1,1,0.3,5.1,0.2,6.4c-0.1,1.7,2.5,2,2.9,0.4c0.3-1.1,0.6-2.3,0.9-3.4c-1,0-1.9,0-2.9,0c0.4,1.2,0.7,2.5,0.8,3.8
			c1-0.1,2-0.3,2.9-0.4c-0.1-0.8-0.2-1.7-0.4-2.5c-1,0.3-1.9,0.5-2.9,0.8c0.8,3.2-4.6,13-8.1,7.4c-0.7-1.2-2.9-0.8-2.8,0.8
			c0.2,1.9,0.1,1.9,0.8,3.7c0.6,1.8,3.3,1.1,2.9-0.8c-0.4-2.1-1.2-1-0.4,0.3c0.3,0.6,1.1,1.1,1.7,1.3c1.5,0.5,3.1-0.2,4.4-1.1
			c1-0.7,1-2.4-0.4-2.7c-1.3-0.3-1.7-0.3-3,0c-1.7,0.4-1.3,3,0.4,2.9c1.5,0,2.8-0.2,4.2-0.6c-0.4-0.9-0.8-1.8-1.2-2.7
			c-0.7,0.3-1.4,0.7-2.1,1c0.5,0.9,1,1.7,1.5,2.6c1.9-1.1,3.6-2.3,5.4-3.6c1.5-1.1,0.2-3.5-1.5-2.6c-1.5,0.8-3,1.6-4.5,2.4
			c0.5,0.9,1,1.7,1.5,2.6c1.2-0.9,2.3-1.5,3.7-2.2c-0.5-0.9-1-1.7-1.5-2.6c-0.6,0.4-1.2,0.9-1.7,1.3c-1.3,1-0.6,3.2,1.2,2.7
			c1.3-0.3,2.6-0.6,3.9-0.9c-0.5-0.8-1-1.7-1.5-2.5c-0.4,0.4-0.8,0.9-1.1,1.3c-1.2,1.5,0.7,3.5,2.1,2.1c1.1-1.1,2-2.2,2.9-3.5
			c1.1-1.6-1.5-3.1-2.6-1.5c-0.7,0.9-1.4,1.9-2,2.8c0.9,0.4,1.8,0.8,2.7,1.2c0.4-1,0.8-1.9,1.3-2.9c-0.9-0.3-1.9-0.5-2.8-0.8
			c-0.1,1.6-0.2,3.2-0.2,4.8c-0.1,1.7,2.6,2.1,2.9,0.4c0.3-1.5,0.7-2.8,1.3-4.2c-1-0.1-2-0.3-2.9-0.4c-0.1,1.5-0.3,3-0.6,4.5
			c1,0.3,1.9,0.5,2.9,0.8c0.1-1.5,0.7-2.8,1.7-4c-0.9-0.4-1.7-0.7-2.6-1.1c-0.2,2.3-0.8,4.1-1.5,6.2c1,0.1,2,0.3,2.9,0.4
			c-0.1-1.4,0.2-2.8,0.7-4.1c-1-0.1-2-0.3-2.9-0.4c0.2,1.6,0,3.2-0.6,4.7c1,0,1.9,0,2.9,0c-0.5-1.3-0.9-2.5-1.1-3.9
			c-0.4-1.9-3.2-1.1-2.9,0.8c0.2,1.5,0.5,3,0.8,4.5c0.4,1.6,2.4,1.2,2.9,0c0.7-1.7,1.3-3.4,1.9-5.1c-1-0.1-2-0.3-2.9-0.4
			c0,2.3,0,4.5,0,6.8c0,2,2.8,1.9,3,0c0.2-1.9,0.6-3.6,1.1-5.5c-1-0.1-2-0.3-2.9-0.4c0.2,2.4,0.1,4.6-0.1,7c1,0,2,0,3,0
			c0.1-2.6,0.3-5.2,0.5-7.8c-1,0.1-2,0.3-2.9,0.4c0.5,2.5,0.6,4.6,0.5,7.1c-0.1,1.9,2.9,1.9,3,0c0.1-2.7-0.1-5.2-0.6-7.9
			c-0.3-1.8-2.8-1.2-2.9,0.4c-0.2,2.6-0.4,5.2-0.5,7.8c-0.1,2,2.8,1.9,3,0c0.3-2.4,0.3-4.6,0.1-7c-0.1-1.6-2.5-2.1-2.9-0.4
			c-0.5,2.1-0.9,4.1-1.2,6.3c1,0,2,0,3,0c0-2.3,0-4.5,0-6.8c0-1.7-2.4-2-2.9-0.4c-0.6,1.7-1.2,3.4-1.9,5.1c1,0,1.9,0,2.9,0
			c-0.3-1.5-0.6-3-0.8-4.5c-1,0.3-1.9,0.5-2.9,0.8c0.3,1.4,0.6,2.6,1.1,3.9c0.5,1.4,2.4,1.5,2.9,0c0.6-1.9,0.8-3.5,0.7-5.5
			c-0.1-1.7-2.4-2-2.9-0.4c-0.6,1.7-0.8,3.2-0.8,4.9c0,1.8,2.4,1.9,2.9,0.4c0.8-2.4,1.4-4.6,1.7-7c0.1-1.2-1.8-2.1-2.6-1.1
			c-1.3,1.7-2.1,3.1-2.4,5.3c-0.3,1.9,2.5,2.7,2.9,0.8c0.3-1.8,0.5-3.5,0.7-5.3c0.2-1.8-2.4-1.8-2.9-0.4c-0.6,1.4-1,2.7-1.3,4.2
			c1,0.1,2,0.3,2.9,0.4c0.1-1.6,0.2-3.2,0.2-4.8c0.1-1.5-2.1-2.1-2.8-0.8c-0.7,1.5-1,2.1-1.6,3.6c-0.6,1.7,1.8,2.4,2.7,1.2
			c0.7-0.9,1.4-1.9,2-2.8c-0.9-0.5-1.7-1-2.6-1.5c-0.6,1.1-1.4,2-2.4,2.9c0.7,0.7,1.4,1.4,2.1,2.1c0.4-0.4,0.8-0.9,1.1-1.3
			c1-1.1,0.1-2.8-1.5-2.5c-1.3,0.3-2.6,0.6-3.9,0.9c0.4,0.9,0.8,1.8,1.2,2.7c0.6-0.4,1.2-0.9,1.7-1.3c1.5-1.2,0.3-3.4-1.5-2.6
			c-1.3,0.6-2.5,1.3-3.7,2.2c-1.6,1.1-0.2,3.5,1.5,2.6c1.5-0.8,3-1.6,4.5-2.4c-0.5-0.9-1-1.7-1.5-2.6c-1.7,1.3-3.5,2.5-5.4,3.6
			c-1.7,1-0.2,3.4,1.5,2.6c0.7-0.3,1.4-0.7,2.1-1c1.6-0.8,0.4-3.2-1.2-2.7c-1.1,0.4-2.2,0.5-3.4,0.5c0.1,1,0.3,2,0.4,2.9
			c0.5,0,0.9,0,1.4,0c-0.1-0.9-0.2-1.8-0.4-2.7c-2.4,1.5-3.9-3.4-6.8-1.8c-0.5,0.2-0.8,0.8-0.7,1.3c0,1.1,0.3,2.3,0.6,3.4
			c1-0.3,1.9-0.5,2.9-0.8c-0.2-1-0.4-1.9-0.6-2.9c-0.9,0.3-1.9,0.5-2.8,0.8c1.8,3,5.8,5,8.6,2.7c1.6-1.3,3.8-5.2,4.7-6.8
			c1.2-2.1,0.8-3.2,0.2-5.5c-0.5-1.9-3.2-1.1-2.9,0.8c0.1,0.8,0.2,1.7,0.4,2.5c0.2,1.7,3.1,1.3,2.9-0.4c-0.2-1.6-0.5-3.1-0.9-4.6
			c-0.4-1.4-2.5-1.4-2.9,0c-0.3,1.1-0.7,2.3-0.9,3.4c1,0.1,2,0.3,2.9,0.4c0.2-2.6,1-6.6-1.1-8.6c-0.8-0.7-2.3-0.5-2.5,0.7
			c-0.3,1.5-0.4,2.6-0.6,4.1c1-0.1,2-0.3,2.9-0.4c-0.2-1.3-0.4-2.6-0.6-3.9c-0.3-1.9-3.1-1.1-2.9,0.8c0,1,0.3,1.9,0.7,2.8
			c0.6,1.6,2.9,1.3,2.9-0.4c0.2-5.8-5.6-7.8-6.7-1.2c-0.2,1.3,1.4,2.7,2.5,1.5c1-1.1,1.1-1.4,1.6-2.8c-1,0-1.9,0-2.9,0
			c0.1,1,0.3,2,0.7,3c0.4,1.5,2.4,1.3,2.9,0c3.3-8.6-9.7-3.7-5.1,0.9c0.3,0.3,1,0.6,1.5,0.4c2.9-1.2,2.4-4.9-0.9-4.4
			c-0.5,0.1-0.9,0.6-1,1c-1,2.9,2.6,5.9,4.5,2.7c1.7-2.9-2.4-5-4.6-3.2c-2.2,1.8-0.8,6.3,2.2,6.1c3.8-0.2,1.5-3.7-0.5-4.5
			c-1.2-0.5-2.4,1.2-1.7,2.2c1.6,2.2,3.9,4.1,6.8,3.4c0.6-0.2,1.2-0.8,1.1-1.4c-0.3-3.1-4.6-5.3-6.5-2c-1.7,2.8,1.5,5.7,4.3,4.2
			c2.5-1.4,3-5.9-0.3-6.4c-3.1-0.5-7.9,3.4-7,6.7c0.3,1,1.3,1.3,2.2,0.9c2.7-1.2,4.3-2.8,5.5-5.6c0.5-1-0.3-2.7-1.7-2.2
			c-2.8,1.1-5.2,2.5-7.4,4.5c-1.2,1.1,0.4,3.3,1.8,2.4c1.8-1.2,3.2-2.4,4.6-4c1-1.1,0-2.8-1.5-2.5c-3.9,0.8-7.4,2.8-10.8,4.9
			c-1.7,1-0.2,3.4,1.5,2.6c2.1-1,4.2-2,6.3-3c-0.5-0.9-1-1.7-1.5-2.6c-2.7,1.3-5.6,2.4-7.9,4.4c-1.2,1,0.1,3,1.5,2.5
			c3.2-1.1,6.4-2.2,9.5-3.6c-0.5-0.9-1-1.7-1.5-2.6c-2.4,1.2-4.8,2.5-7.1,3.7c-1.5,0.8-0.4,3.4,1.2,2.7c2.9-1.2,5.9-2.3,8.8-3.3
			c-0.4-0.9-0.8-1.8-1.2-2.7c-2.7,1.2-7.6,2.4-8.9,5.3c-0.5,1.1,0.3,2.6,1.7,2.2c4-1.3,7.7-2.9,11.5-4.6c1.5-0.7,0.4-3.4-1.2-2.7
			c-3.7,1.6-7.3,3.2-10.6,5.6c-1.2,0.9-0.6,3.4,1.2,2.7c4.5-1.8,8.9-3.7,13.3-5.8c1.8-0.8,0.2-3.3-1.5-2.6
			c-4.4,1.9-8.5,3.8-12.3,6.7c-1.3,1-0.6,3.2,1.2,2.7c4.9-1.4,9.6-3.3,14.2-5.5c-0.5-0.9-1-1.7-1.5-2.6c-4.2,2.1-8.3,4.2-12.5,6.3
			c-1.5,0.8-0.5,3.2,1.2,2.7c5.1-1.4,9.7-3.5,14.2-6.3c1.6-1,0.2-3.5-1.5-2.6c-3.5,1.8-8,4-10.1,7.5c-0.6,1,0.4,2.7,1.7,2.2
			c4.5-1.9,8.6-4.4,12.7-7.1c-0.5-0.9-1-1.7-1.5-2.6c-3.6,2.6-7.3,5.1-11.1,7.5c-1.6,1.1-0.2,3.5,1.5,2.6c3.6-1.9,7-3.9,10.3-6.3
			c1.5-1.1,0.1-3.6-1.5-2.6c-2.7,1.7-5.2,3.5-7.6,5.5c-1.3,1.1,0.4,3.3,1.8,2.4c2-1.3,4-2.7,6-4C572.1,137.6,570.6,135,569,136.1
			L569,136.1z"/>
	</g>
</g>
<g>
	<g>
		<path class="st12" d="M569.1,132c-0.3,0.6-0.6,1.2-0.8,1.8c-0.8,1.7,1.7,3.3,2.6,1.5c0.1-0.2,0.9-1.6,0.5-1.4
			c-0.7-0.2-1.4-0.4-2.1-0.5c0.3,0.7,0.7,1.4,1,2.1c0.6,1.2,2.4,0.8,2.7-0.4c0.3-1.1-0.3-2.7,0.4-3.7c-0.7,0.2-1.4,0.4-2.1,0.5
			c0.1,0.1-0.2,2.2-0.2,2.3c-0.1,0.9-0.3,1.9-0.5,2.8c1,0,1.9,0,2.9,0c-0.7-2.8-1.5-5.7-3.4-8c-0.9-1.1-2.5-0.1-2.6,1.1
			c-0.1,1.3,0.1,2.6,0.8,3.7c0.9,1.5,3.2,0.5,2.7-1.2c-0.2-0.9-0.8-1.6-1.3-2.4c-0.7,0.7-1.4,1.4-2.1,2.1c1.2,0.8,2.4,1.6,3.2,2.9
			c0.7,1.2,1.1,2.6,1.5,4c0.5,1.6,3.1,1.3,2.9-0.4c-0.2-2.3-0.5-4.4-1.5-6.6c-0.8,0.6-1.6,1.2-2.4,1.8c1.2,1.2,1.6,3.3,1.9,4.9
			c0.3,1.9,3.2,1.1,2.9-0.8c-0.4-2.1-1.1-4.6-2.7-6.2c-1.3-1.3-3,0.3-2.4,1.8c0.7,1.6,0.9,3.3,1.1,5c1-0.1,2-0.3,2.9-0.4
			c-0.5-1.7-1.1-3.6-2.1-5.1c-1-1.5-2.5-2.5-4-3.5c-1.2-0.9-2.8,0.8-2.1,2.1c0.3,0.5,0.8,1.1,1,1.7c0.9-0.4,1.8-0.8,2.7-1.2
			c-0.4-0.7-0.4-1.4-0.3-2.2c-0.9,0.4-1.7,0.7-2.6,1.1c1.6,1.9,2.1,4.4,2.7,6.7c0.3,1.4,2.6,1.5,2.9,0c0.4-2.3,1.9-6.9-0.7-8.5
			c-0.7-0.4-1.6-0.1-2.1,0.5c-0.9,1.4-0.3,2.9-0.7,4.4c0.9-0.1,1.8-0.2,2.7-0.4c-0.3-0.7-0.7-1.4-1-2.1c-0.3-0.7-1.4-1-2.1-0.5
			c-0.9,0.7-1.2,1.5-1.6,2.4c0.9,0.5,1.7,1,2.6,1.5c0.3-0.6,0.6-1.2,0.8-1.8C572.5,131.8,569.9,130.2,569.1,132L569.1,132z"/>
	</g>
</g>
<g>
	<g>
		<path class="st12" d="M573.3,139.3c0.4,0.9,0.6,1.9,0.8,2.8c0.3,1.6,3.2,1.3,2.9-0.4c-0.2-1.4-0.6-2.6-1.4-3.8
			c-1.1-1.5-3.5-0.2-2.6,1.5c0.2,0.4,0.4,0.9,0.5,1.4c0.1,0.2,0.1,0.5,0.2,0.7c0,0.3,0,0.2,0,0.3c-0.3,0.3-0.9,0.2-1.3,0.3
			c-0.2,0-0.5,0-0.7,0c-0.2,0-0.7-0.1-0.5,0c0.2,0.3,0.5,0.6,0.7,0.9c0-0.1-0.1-0.2-0.1-0.3c0-0.2,0-0.2-0.2,0
			c-0.2,0.1-0.2,0.2,0,0.2c0.3,0,0.2,0-0.3-0.1c-0.2-0.3-0.5-0.6-0.7-0.9c0,0.1,0.1,0.2,0.1,0.2c0-0.3,0-0.5,0-0.8
			c0,0.1-0.1,0.2-0.2,0.3c0.8,0.5,1.7,1,2.5,1.5c-0.1,0.1-0.2,0.3-0.3,0.4c1.3-1.4-0.8-3.5-2.1-2.1c-0.2,0.3-0.4,0.5-0.5,0.9
			c-0.2,1.3,1.4,2.7,2.5,1.5c0.7-0.8,1.3-1.8,0.8-2.8c-0.5-1-1.7-1.2-2.7-0.9c-2,0.5-3,3.8-0.9,4.9c0.8,0.5,2.1,0.3,3,0.3
			c1.1-0.1,2.2-0.3,3-1.1c1.7-1.6,0.8-4.3-0.2-6.1c-0.9,0.5-1.7,1-2.6,1.5c0.5,0.7,0.9,1.4,1,2.3c1-0.1,2-0.3,2.9-0.4
			c-0.2-1.2-0.6-2.4-1.1-3.5C575.1,136,572.5,137.5,573.3,139.3L573.3,139.3z"/>
	</g>
</g>
<g>
	<g>
		<path class="st12" d="M575.4,147.3c0.3,1.7,0.2,3.4-0.4,5.1c1,0.1,2,0.3,2.9,0.4c-0.2-1.6-0.4-3.1-1.3-4.4c-0.7-1-2.4-1-2.7,0.4
			c-0.3,1-0.3,1.8-0.1,2.8c0.2,1.4,2.7,1.4,2.9,0c0.1-0.6,0.2-1.1,0.1-1.7c-0.2-1.9-2.8-1.9-3,0c-0.1,0.9-0.1,1.7,0.4,2.5
			c0.2,0.3,0.5,0.6,0.8,0.8c0.4,0.2,0.8,0.2,1.1,0.3c-0.2-0.3-0.5-0.6-0.7-0.9c0.1,0.4,0.1,0.7,0.2,1.1c0.1,1.6,2.7,2.2,2.9,0.4
			c0.2-1.6,0.6-3.1,0.7-4.7c-1,0.1-2,0.3-2.9,0.4c0.2,0.9,0,2.1-0.2,3c-0.3,1.9,2.5,2.7,2.9,0.8c0.3-1.5,0.6-3.1,0.2-4.6
			c-0.5-1.7-2.8-1.2-2.9,0.4c-0.1,1.3-0.4,2.6-0.6,3.9c1,0.1,2,0.3,2.9,0.4c-0.1-0.8,0-1.9-0.7-2.6c-0.3-0.3-0.5-0.3-0.8-0.5
			c-0.3-0.2-0.4-0.2-0.4,0c0-0.3,0-0.5,0.1-0.8c-1,0-2,0-3,0c0.1,0.3,0.1,0.6,0,0.9c1,0,1.9,0,2.9,0c-0.1-0.4,0-0.8,0.1-1.2
			c-0.9,0.1-1.8,0.2-2.7,0.4c0.6,0.9,0.8,1.8,0.9,2.9c0.2,1.6,2.4,2.1,2.9,0.4c0.7-2.2,0.8-4.4,0.4-6.6
			C577.9,144.7,575,145.5,575.4,147.3L575.4,147.3z"/>
	</g>
</g>
<g>
	<g>
		<path class="st12" d="M579.3,147.8c-0.3-2.1-0.2-4.2-0.7-6.2c-0.5-1.8-1.3-3.5-2.2-5.1c-0.9-1.7-3.5-0.2-2.6,1.5
			c0.9,1.6,1.7,3.3,2,5.1c0.4,1.8,0.3,3.7,0.5,5.6C576.7,150.5,579.6,149.7,579.3,147.8L579.3,147.8z"/>
	</g>
</g>
<g>
	<g>
		<path class="st12" d="M577.5,155.8c1.9,0,1.9-3,0-3C575.6,152.8,575.6,155.8,577.5,155.8L577.5,155.8z"/>
	</g>
</g>
<g>
	<g>
		<path class="st12" d="M577.5,155.9c1.9,0,1.9-3,0-3C575.6,152.9,575.5,155.9,577.5,155.9L577.5,155.9z"/>
	</g>
</g>
<g>
	<g>
		<path class="st12" d="M577.6,156c1.9,0,1.9-3,0-3C575.7,153,575.7,156,577.6,156L577.6,156z"/>
	</g>
</g>
<g>
	<g>
		<path class="st12" d="M579.1,154.1c-0.1-1.1,0.3-2.4,0.5-3.5c0.1-0.6,0.2-1.2,0.2-1.7c0-0.5-0.2-0.9-0.3-1.3c-0.2-1.9-3.2-1.9-3,0
			c0,0.5,0.2,0.9,0.3,1.3c0.1,0.6-0.1,1.3-0.2,1.8c-0.2,1.1-0.5,2.3-0.4,3.4C576.2,156,579.2,156,579.1,154.1L579.1,154.1z"/>
	</g>
</g>
<g>
	<g>
		<path class="st12" d="M563.6,125.6c1.1,0.9,2.2,1.7,3.1,2.8c1,1.2,1.8,2.6,2.6,4c1,1.7,3.6,0.1,2.6-1.5c-1.7-2.9-3.6-5.3-6.2-7.4
			C564.2,122.3,562.1,124.5,563.6,125.6L563.6,125.6z"/>
	</g>
</g>
<g>
	<g>
		<path class="st12" d="M565.8,129.3c0.8,0.9,1.5,1.9,2.1,3c1,1.7,3.6,0.2,2.6-1.5c-0.7-1.3-1.6-2.5-2.6-3.6c-0.5-0.6-1.6-0.5-2.1,0
			C565.2,127.8,565.2,128.7,565.8,129.3L565.8,129.3z"/>
	</g>
</g>
<g>
	<g>
		<path class="st12" d="M566.1,126.7c1.9,1.6,3.3,3.6,4.7,5.7c1.2,1.9,2.8,3.8,3.4,6c0.5,1.6,3.1,1.3,2.9-0.4
			c-0.2-2.9-1.6-5.3-3.7-7.2c-1.4-1.3-3.6,0.8-2.1,2.1c1.6,1.4,2.7,2.9,2.9,5.1c1-0.1,2-0.3,2.9-0.4c-0.7-2.5-2.4-4.6-3.7-6.7
			c-1.5-2.3-3.1-4.5-5.2-6.3C566.7,123.4,564.6,125.5,566.1,126.7L566.1,126.7z"/>
	</g>
</g>
<g>
	<g>
		<path class="st12" d="M554.4,120.9c1.2,0.8,2.6,0.9,3.7,1.8c1.4,1,2.3,2.6,3.3,3.9c0.4-0.8,0.9-1.5,1.3-2.3
			c-2.2,0-3.7-1.9-4.6-3.7c-0.8,0.6-1.6,1.2-2.4,1.8c1.4,1.8,3.2,3.2,4.5,5.2c0.9,1.4,3.3,0.5,2.7-1.2c-0.4-1.1-0.9-2.1-1.6-3.1
			c-0.8-1.1-2.9-0.9-2.8,0.8c0.1,1.5,0.4,2.8,1,4.1c0.6,1.4,2.9,0.7,2.8-0.8c-0.1-1.3-0.3-2.7-0.8-3.9c-0.6-1.3-1.6-2.1-2.4-3.3
			c-0.3,0.7-0.6,1.5-0.9,2.2c2.1-0.5,5.4,2.7,6.8,4c1.1,0.9,2.9,0.1,2.5-1.5c-0.6-2.5-4-3.7-6.1-4.5c-1.8-0.6-2.6,2.3-0.8,2.9
			c1,0.3,3.7,1.2,4,2.4c0.8-0.5,1.7-1,2.5-1.5c-1.5-1.2-3-2.4-4.5-3.6c-1.5-1.1-3.4-1.6-5.2-1.2c-0.9,0.2-1.4,1.4-0.9,2.2
			c0.5,0.8,1.3,1.3,1.8,2.1c0.7,1,0.9,2.3,1,3.5c0.9-0.3,1.9-0.5,2.8-0.8c-0.4-0.9-0.6-1.6-0.6-2.6c-0.9,0.3-1.9,0.5-2.8,0.8
			c0.6,0.8,1,1.5,1.3,2.4c0.9-0.4,1.8-0.8,2.7-1.2c-1.4-2.2-3.4-3.8-4.9-5.8c-1.1-1.4-3.1,0.4-2.4,1.8c1.5,2.7,3.9,5.2,7.2,5.2
			c1.1,0,2-1.3,1.3-2.3c-1.1-1.6-2.2-3.2-3.6-4.5c-1.3-1.1-3-1.4-4.4-2.3C554.3,117.3,552.8,119.9,554.4,120.9L554.4,120.9z"/>
	</g>
</g>
<g>
	<g>
		<path class="st12" d="M573.5,131.9c0.4,0.6,0.9,1.1,1.2,1.8c0.2,0.4,0.8,0.1,0.6-0.4c-0.3-0.7-0.8-1.2-1.2-1.8
			C573.9,131.1,573.3,131.5,573.5,131.9L573.5,131.9z"/>
	</g>
</g>
<g>
	<g>
		<path class="st12" d="M576.3,137.2c0,0.3,0,0.6,0,0.8c0.1,0.3,0.3,0.5,0.3,0.8c0.1,0.4,0.8,0.3,0.7-0.1c-0.1-0.6-0.1-1.2-0.3-1.8
			c-0.2-0.6-0.6-1.2-0.8-1.8c-0.2,0.1-0.4,0.2-0.6,0.4c0.5,0.6,0.9,1.8,1.1,2.6c0.2,0.5,0.1,1.2,0.3,1.7c0.2,0.3,0.7,0.2,0.7-0.2
			c0-0.2,0-0.3,0-0.5c-0.1-0.5-0.8-0.3-0.7,0.2c0,0.1,0,0.2,0,0.3c0.2-0.1,0.5-0.1,0.7-0.2c-0.1-0.2-0.1-0.6-0.1-0.9
			c-0.1-0.5-0.3-1-0.5-1.4c-0.3-0.7-0.6-1.5-1-2c-0.3-0.3-0.7,0-0.6,0.4c0.1,0.5,0.4,1,0.6,1.4c0.3,0.7,0.4,1.3,0.4,2
			c0.2,0,0.5-0.1,0.7-0.1c-0.1-0.5-0.3-0.9-0.3-1.5C577,136.8,576.3,136.8,576.3,137.2L576.3,137.2z"/>
	</g>
</g>
<g>
	<g>
		<path class="st12" d="M577,138.9c0.1,0.2,0.1,0.4,0.2,0.6c0.1,0.4,0.8,0.3,0.7-0.1c0-0.3-0.1-0.5-0.2-0.8
			C577.6,138.1,576.8,138.3,577,138.9c0.2,0.5,0.3,1.1,0.3,1.6c0.2-0.1,0.5-0.1,0.7-0.2c-0.1-0.4-0.1-0.9-0.2-1.3
			c-0.1-0.5-0.8-0.3-0.7,0.2c0.1,0.5,0.3,1,0.4,1.6c0.1,0.5,0.8,0.5,0.8,0c-0.1-0.6-0.3-1.2-0.4-1.8c-0.2,0.1-0.5,0.1-0.7,0.2
			c0.1,0.4,0.1,0.9,0.2,1.3c0.1,0.5,0.8,0.3,0.7-0.2c-0.1-0.6-0.1-1.2-0.3-1.7C577.5,138.7,577.3,138.7,577,138.9
			c0.1,0.1,0.1,0.3,0.2,0.5c0.2,0,0.5-0.1,0.7-0.1c0-0.2-0.1-0.4-0.2-0.6C577.6,138.3,576.8,138.4,577,138.9L577,138.9z"/>
	</g>
</g>
<g>
	<g>
		<path class="st12" d="M577.2,139.4c0,0.1,0.1,0.2,0.1,0.3c0.2,0.4,0.7,0.3,0.7-0.1c0-0.1,0-0.1,0-0.2c-0.2,0-0.5,0.1-0.7,0.1
			c0,0,0,0,0,0.1c0.2-0.1,0.5-0.1,0.7-0.2c0-0.1,0-0.1-0.1-0.2C577.8,138.9,577.1,139.1,577.2,139.4c0.2,0.5,0.3,0.9,0.4,1.3
			c0.1,0.5,0.8,0.5,0.8,0c-0.1-0.5-0.2-0.9-0.3-1.4C577.7,139.4,577.5,139.5,577.2,139.4c0.1,0.1,0.1,0.2,0.1,0.3
			c0.2,0.4,0.9,0.3,0.7-0.2c0,0,0,0,0-0.1c-0.1-0.4-0.7-0.3-0.7,0.1c0,0.1,0,0.1,0,0.2c0.2,0,0.5-0.1,0.7-0.1
			c-0.1-0.1-0.1-0.2-0.1-0.3C577.8,138.8,577.1,139,577.2,139.4L577.2,139.4z"/>
	</g>
</g>
<g>
	<g>
		<path class="st12" d="M578.3,140.6c-0.1-0.4-0.2-0.9-0.3-1.3c-0.1-0.5-0.9-0.3-0.7,0.2c0.1,0.4,0.3,0.7,0.3,1.1
			C577.6,141.1,578.4,141.1,578.3,140.6L578.3,140.6z"/>
	</g>
</g>
<g>
	<g>
		<path class="st12" d="M577.5,140.3c0.4,1,0.5,2,0.6,3c0.1,0.5,0.8,0.5,0.8,0c-0.1-1.1-0.3-2.2-0.7-3.2
			C578.1,139.7,577.3,139.9,577.5,140.3L577.5,140.3z"/>
	</g>
</g>
<g>
	<g>
		<path class="st12" d="M578.2,143c0.2,0.9,0.2,1.9,0.2,2.8c0,0.5,0.8,0.5,0.8,0c0-1-0.1-2-0.3-3C578.8,142.3,578.1,142.5,578.2,143
			L578.2,143z"/>
	</g>
</g>
<g>
	<g>
		<path class="st12" d="M578.4,145.1c0.1,0.3,0,0.7,0,1.1c0,0.4,0,0.7,0,1.1c0.3,0,0.5,0,0.8,0c0-0.7,0-1.4,0-2.1
			c-0.2,0-0.5,0.1-0.7,0.1c0.2,0.8,0.2,1.7,0.2,2.6c0,0.5,0.7,0.5,0.8,0c0-0.9,0-1.9-0.2-2.8C579.1,144.7,578.5,144.8,578.4,145.1
			c0,0.8,0.1,1.5,0.1,2.2c0,0.5,0.8,0.5,0.8,0c0-0.8,0.1-1.6-0.1-2.4C579,144.5,578.3,144.7,578.4,145.1L578.4,145.1z"/>
	</g>
</g>
<g>
	<g>
		<path class="st12" d="M578.7,147.7c0,0.4,0,0.8,0,1.2c-0.1,0.5,0.7,0.5,0.8,0c0.1-0.4,0-0.8,0-1.2
			C579.5,147.3,578.8,147.3,578.7,147.7L578.7,147.7z"/>
	</g>
</g>
<g>
	<g>
		<path class="st12" d="M578.5,149.4c0,0.5,0.1,0.9,0.1,1.4c0.2,0,0.5-0.1,0.7-0.1c-0.1-0.3,0-0.7,0-1.1c0.1-0.5-0.7-0.7-0.7-0.2
			c-0.1,0.5-0.1,1,0,1.5c0.1,0.5,0.7,0.3,0.7-0.1c0.1-0.5,0-0.9-0.1-1.4C579.2,149,578.5,149,578.5,149.4L578.5,149.4z"/>
	</g>
</g>
<g>
	<g>
		<path class="st12" d="M578.6,150.8c-0.1,0.6-0.1,1.2-0.2,1.7c0,0.5-0.2,1-0.3,1.6c0,0.5,0.7,0.5,0.8,0c0-0.4,0.2-0.9,0.2-1.3
			c0.1-0.6,0.1-1.2,0.2-1.8C579.5,150.5,578.7,150.3,578.6,150.8L578.6,150.8z"/>
	</g>
</g>
<g>
	<g>
		<path class="st12" d="M578.2,154.1c-0.1,0.6-0.3,1.1-0.4,1.7c-0.1,0.5,0.7,0.5,0.8,0c0.1-0.6,0.4-1.1,0.4-1.7
			C579,153.7,578.2,153.7,578.2,154.1L578.2,154.1z"/>
	</g>
</g>
<g>
	<g>
		<path class="st12" d="M578.6,155.9c0-0.2,0.1-0.5,0.2-0.7c0.2-0.5-0.6-0.7-0.7-0.2c-0.1,0.3-0.2,0.6-0.2,0.9
			C577.8,156.3,578.6,156.3,578.6,155.9L578.6,155.9z"/>
	</g>
</g>
<g>
	<g>
		<path class="st12" d="M578.2,156.2c0.5,0,0.5-0.8,0-0.8C577.8,155.5,577.8,156.2,578.2,156.2L578.2,156.2z"/>
	</g>
</g>
<g>
	<g>
		<path class="st12" d="M578.3,156.3c0.5,0,0.5-0.8,0-0.8C577.8,155.6,577.8,156.3,578.3,156.3L578.3,156.3z"/>
	</g>
</g>
<g>
	<g>
		<path class="st12" d="M562.3,124.1c0.2,0.1,0.3,0.3,0.4,0.5c0.2-0.1,0.5-0.2,0.7-0.3c-0.1-0.1-0.1-0.2-0.1-0.3
			c-0.1-0.5-0.9-0.3-0.7,0.2c0.1,0.2,0.1,0.3,0.2,0.5c0.2,0.4,0.8,0.1,0.7-0.3c-0.1-0.4-0.3-0.8-0.7-1
			C562.2,123.3,561.8,123.9,562.3,124.1L562.3,124.1z"/>
	</g>
</g>
<g>
	<g>
		<path class="st12" d="M574.6,131.9c-0.3-0.3-0.6-0.7-0.7-1c-0.1,0.2-0.2,0.4-0.3,0.6c0,0,0.1,0,0.1,0c-0.1,0-0.2-0.1-0.3-0.1
			c0.3,0.3,0.5,0.9,0.7,1.3c0-0.1,0-0.2,0-0.3c0,0,0,0,0,0c0.1-0.1,0.2-0.1,0.3-0.2c0,0,0,0,0,0c0.1,0.1,0.2,0.1,0.3,0.2
			c-0.1-0.2-0.2-0.4-0.2-0.6c0,0.1,0,0.2,0,0.3c0,0,0,0,0-0.1c-0.1,0.1-0.1,0.1-0.2,0.2c0,0,0,0,0.1,0c-0.1,0-0.2,0-0.3,0
			c-0.1-0.1,0.1,0.1,0.1,0.2c0.1,0.1,0.2,0.3,0.2,0.4c0.2,0.4,0.9,0,0.6-0.4c-0.2-0.3-0.6-1.3-1.1-0.8c-0.2,0.2-0.2,0.4-0.1,0.6
			c0.1,0.2,0.2,0.6,0.4,0.7c0.2,0.1,0.4,0.1,0.5-0.1c0.2-0.2,0-0.5-0.1-0.7c-0.2-0.5-0.5-1.4-1.1-1.5c-0.3,0-0.4,0.3-0.3,0.6
			c0.2,0.4,0.5,0.9,0.9,1.2C574.4,132.8,574.9,132.2,574.6,131.9L574.6,131.9z"/>
	</g>
</g>
<g>
	<g>
		<path class="st12" d="M569.7,127c0.9,1.1,1.7,2.3,2.5,3.5c0.3,0.4,0.9,0,0.6-0.4c-0.8-1.3-1.6-2.5-2.6-3.6
			C569.9,126.1,569.4,126.7,569.7,127L569.7,127z"/>
	</g>
</g>
<g>
	<g>
		<path class="st12" d="M570.6,127.9c1.1,1.1,1.9,2.3,2.6,3.6c0.2,0.4,0.9,0,0.6-0.4c-0.7-1.4-1.7-2.6-2.8-3.7
			C570.8,127,570.3,127.5,570.6,127.9L570.6,127.9z"/>
	</g>
</g>
<g>
	<g>
		<path class="st12" d="M570.3,127.6c0.2,0.2,0.3,0.3,0.5,0.5c0.1-0.2,0.2-0.4,0.4-0.6c0,0-0.1-0.2-0.1-0.2
			c-0.1-0.1-0.2-0.2-0.3-0.3c-0.2-0.2-0.5-0.4-0.8-0.6c-0.4-0.3-0.8,0.4-0.4,0.6c0.3,0.2,0.7,0.4,0.9,0.8c0.1,0.2,0.2,0.4,0.5,0.5
			c0.4,0.1,0.6-0.4,0.4-0.6c-0.2-0.2-0.3-0.4-0.5-0.5C570.5,126.7,570,127.3,570.3,127.6L570.3,127.6z"/>
	</g>
</g>
<g>
	<g>
		<path class="st12" d="M567.2,125c1,0.5,1.7,1.4,2.4,2.3c0.3,0.4,0.9,0,0.6-0.4c-0.7-1-1.5-2-2.6-2.6
			C567.2,124.1,566.8,124.8,567.2,125L567.2,125z"/>
	</g>
</g>
<g>
	<g>
		<path class="st12" d="M569.9,126.4c-0.1-0.2-0.3-0.3-0.4-0.5c-0.1,0.2-0.1,0.4-0.2,0.6c0,0,0.1,0,0.1,0c-0.1,0-0.2,0-0.3,0
			c0.2,0.1,0.3,0.3,0.5,0.4c0.3,0.4,0.8-0.2,0.5-0.5c-0.2-0.3-0.6-0.7-1-0.6c-0.2,0.1-0.4,0.4-0.2,0.6c0.2,0.2,0.3,0.4,0.5,0.7
			C569.7,127.3,570.2,126.8,569.9,126.4L569.9,126.4z"/>
	</g>
</g>
<g>
	<g>
		<path class="st12" d="M561.8,121.5c0.7,0.6,1.6,1.1,2.5,1.5c0.4,0.2,0.8-0.4,0.4-0.6c-0.8-0.4-1.6-0.8-2.3-1.4
			C561.9,120.6,561.4,121.2,561.8,121.5L561.8,121.5z"/>
	</g>
</g>
<g>
	<g>
		<path class="st12" d="M562.4,121.7c0.5,0.2,1,0.5,1.4,0.9c0.4,0.3,0.7,0.6,1.2,0.7c0.5,0.1,0.7-0.6,0.2-0.7
			c-0.5-0.1-0.8-0.5-1.1-0.7c-0.4-0.3-0.8-0.5-1.3-0.8C562.3,120.9,561.9,121.5,562.4,121.7L562.4,121.7z"/>
	</g>
</g>
<g>
	<g>
		<path class="st12" d="M563.8,122.5c0.7,0.1,1.4,0.8,1.9,1.2c0.6,0.5,1,1.2,1.4,1.9c0.2,0.2,0.6,0.2,0.7-0.1c0,0,0-0.1,0-0.1
			c0.1-0.5-0.7-0.7-0.7-0.2c0,0,0,0.1,0,0.1c0.2,0,0.5-0.1,0.7-0.1c-0.5-0.8-0.9-1.6-1.7-2.2c-0.6-0.5-1.3-1.1-2.1-1.3
			C563.6,121.6,563.4,122.3,563.8,122.5L563.8,122.5z"/>
	</g>
</g>
<g>
	<g>
		<path class="st12" d="M566.5,124.1c0.4,0.1,0.8,0.7,1,1c0.3,0.4,0.8-0.2,0.5-0.5c-0.4-0.4-0.8-1-1.3-1.2
			C566.2,123.2,566,123.9,566.5,124.1L566.5,124.1z"/>
	</g>
</g>
<g>
	<g>
		<path class="st12" d="M554.6,118.9c1.2,0.2,2.3,0.7,3.5,1.1c1.5,0.5,3.2,0.9,4.4,1.9c0.4,0.3,0.9-0.2,0.5-0.5
			c-1.1-0.9-2.4-1.3-3.7-1.8c-1.5-0.5-3-1.1-4.5-1.4C554.4,118.1,554.2,118.8,554.6,118.9L554.6,118.9z"/>
	</g>
</g>
<g>
	<g>
		<path class="st12" d="M558.5,119.9c-0.2-0.2-0.4-0.4-0.6-0.5c0,0.2-0.1,0.5-0.1,0.7c0,0,0.3,0.1,0.5,0.1c0.1,0,0.5,0.1,0.6,0.2
			c0.1-0.2,0.1-0.4,0.2-0.6c0,0,0,0,0,0c0.2,0.1,0.3,0.2,0.5,0.3c0,0,0,0,0,0c-0.1-0.5-0.8-0.3-0.7,0.2c0,0,0,0,0,0
			c0,0.2,0.3,0.3,0.5,0.3c0,0,0,0,0,0c0.2,0,0.3-0.4,0.2-0.6c-0.2-0.3-0.6-0.4-0.9-0.5c-0.3-0.1-0.7-0.3-1-0.2
			c-0.3,0.1-0.4,0.5-0.1,0.7c0.2,0.1,0.3,0.3,0.5,0.4C558.3,120.8,558.8,120.3,558.5,119.9L558.5,119.9z"/>
	</g>
</g>
<g>
	<g>
		<path class="st12" d="M557.4,119.5c0.8,0.3,1.5,0.6,2.1,1.1c0.4,0.3,0.8-0.4,0.4-0.6c-0.7-0.5-1.5-0.9-2.3-1.2
			C557.1,118.6,556.9,119.4,557.4,119.5L557.4,119.5z"/>
	</g>
</g>
<g>
	<g>
		<path class="st12" d="M559.3,120.3c0.5,0,0.5-0.8,0-0.8C558.8,119.5,558.8,120.3,559.3,120.3L559.3,120.3z"/>
	</g>
</g>
<g>
	<g>
		<path class="st12" d="M574.9,133.9c-0.1,0,0.2,0.7,0.2,0.8c0.2,0.3,0.4,0.6,0.5,1c0.2-0.1,0.5-0.1,0.7-0.2
			c-0.1-0.3-0.1-0.6-0.2-0.9c-0.1-0.3-0.3-0.5-0.5-0.8c-0.2-0.4-0.9-0.1-0.6,0.4c0.1,0.3,0.3,0.5,0.4,0.7c0.1,0.2,0.1,0.5,0.2,0.8
			c0.2,0.4,0.9,0.3,0.7-0.2c-0.1-0.5-0.4-0.8-0.6-1.3c-0.2-0.3-0.1-0.8-0.5-1C574.9,133.1,574.5,133.7,574.9,133.9L574.9,133.9z"/>
	</g>
</g>
<g>
	<g>
		<path class="st13" d="M550.8,115.3c0.7,0,1.4,0,2.1,0c0-0.3,0-0.5,0-0.8c-1.1,0-2.1,0-3.2,0c0.1,0.2,0.1,0.5,0.2,0.7
			c0.9-0.4,1.8-0.4,2.7-0.5c0-0.2-0.1-0.5-0.1-0.7c-1.2,0.2-2.3,0.4-3.5,0.5c-0.5,0.1-0.3,0.7,0.1,0.7c1.5,0.2,3,0.1,4.5,0.2
			c0-0.2-0.1-0.5-0.1-0.7c-1.5,0.4-3.2,0.4-4.8,0.5c-0.5,0-0.5,0.7,0,0.8c2.1,0.1,4.2,0,6.3,0c0-0.3,0-0.5,0-0.8
			c-1.7,0.1-3.5,0.1-5.2,0.3c-0.5,0-0.5,0.7,0,0.8c2.1,0.2,4.3-0.2,6.4,0.2c0-0.2,0-0.5,0-0.7c-1.6,0.5-3.9,0.2-5.5,0.2
			c-0.5,0-0.5,0.7,0,0.8c1.7,0.2,3.4,0,5.1,0.5c0-0.2,0-0.5,0-0.7c-2.2,0.7-4.8-0.3-7.1-0.2c-0.5,0-0.5,0.8,0,0.8c1.7,0,3.4,0,5.1,0
			c0.5,0,0.5-0.7,0-0.8c-1.7-0.1-3.4-0.3-5.1-0.4c0,0.3,0,0.5,0,0.8c1.6,0.1,3.3,0.1,4.9,0.1c0.5,0,0.5-0.7,0-0.8
			c-1.3,0-2.7-0.1-4-0.2c0,0.3,0,0.5,0,0.8c2,0.1,4,0.3,6,0.4c0-0.3,0-0.5,0-0.8c-1.1,0-2.3,0.1-3.4,0.1c-0.5,0-0.5,0.7,0,0.8
			c0.8,0.1,1.6,0.1,2.4,0.2c0.5,0,0.5-0.7,0-0.8c-0.8-0.1-1.6-0.1-2.4-0.2c0,0.3,0,0.5,0,0.8c1.1,0,2.3-0.1,3.4-0.1
			c0.5,0,0.5-0.7,0-0.8c-2-0.1-4-0.3-6-0.4c-0.5,0-0.5,0.7,0,0.8c1.3,0.1,2.7,0.2,4,0.2c0-0.3,0-0.5,0-0.8c-1.6,0-3.3,0-4.9-0.1
			c-0.5,0-0.5,0.7,0,0.8c1.7,0.2,3.4,0.3,5.1,0.4c0-0.3,0-0.5,0-0.8c-1.7-0.1-3.4-0.1-5.1,0c0,0.3,0,0.5,0,0.8
			c2.4-0.2,5,0.9,7.3,0.2c0.4-0.1,0.4-0.6,0-0.7c-1.7-0.5-3.5-0.4-5.3-0.6c0,0.3,0,0.5,0,0.8c1.7,0,4.1,0.3,5.7-0.3
			c0.3-0.1,0.4-0.6,0-0.7c-2.2-0.4-4.4,0.1-6.6-0.2c0,0.3,0,0.5,0,0.8c1.7-0.1,3.5-0.2,5.2-0.3c0.5,0,0.5-0.8,0-0.8
			c-2.1,0.1-4.2,0.1-6.3,0c0,0.3,0,0.5,0,0.8c1.6-0.2,3.4-0.1,5-0.6c0.4-0.1,0.3-0.7-0.1-0.7c-1.5-0.1-3-0.1-4.5-0.2
			c0,0.2,0.1,0.5,0.1,0.7c1.2-0.2,2.3-0.4,3.5-0.5c0.4-0.1,0.3-0.8-0.1-0.7c-1.1,0.1-2.1,0.2-3.1,0.6c-0.3,0.2-0.2,0.7,0.2,0.7
			c1.1,0,2.1,0,3.2,0c0.5,0,0.5-0.7,0-0.8c-0.7,0-1.4,0-2.1,0C550.3,114.5,550.3,115.3,550.8,115.3L550.8,115.3z"/>
	</g>
</g>
<g>
	<g>
		<path class="st13" d="M549.5,117.6c0.5,0,5.3-0.1,5.3,0.3c0.1-0.1,0.3-0.3,0.4-0.4c-0.4,0-0.9-0.2-1.3-0.3
			c-0.6-0.1-1.2-0.1-1.7-0.1c-1-0.1-1.9-0.3-2.9-0.1c-0.4,0-0.6,0.6-0.1,0.7c1.9,0.4,4,0.4,6,0.7c0.5,0.1,0.7-0.6,0.2-0.7
			c-2-0.4-4-0.3-6-0.7c0,0.2-0.1,0.5-0.1,0.7c2-0.2,4,0.4,6,0.5c0.2,0,0.4-0.2,0.4-0.4c-0.1-0.9-0.8-0.9-1.6-0.9
			c-1.5,0-3-0.2-4.5-0.1C549,116.9,549,117.6,549.5,117.6L549.5,117.6z"/>
	</g>
</g>
<g>
	<g>
		<path class="st13" d="M577.5,160.9c0.5-1,1.2-1.9,1.6-2.9c0.5-1,0.7-2.1,1-3.2c0.1-0.5-0.6-0.7-0.7-0.2c-0.3,1.2-0.6,2.3-1.1,3.4
			c-0.4,0.9-1,1.6-1.4,2.5C576.6,160.9,577.3,161.3,577.5,160.9L577.5,160.9z"/>
	</g>
</g>
<g>
	<g>
		<path class="st13" d="M578.5,156.2c-0.1,0.7-0.5,1.3-0.7,2c-0.1,0.5,0.6,0.7,0.7,0.2c0.2-0.7,0.5-1.3,0.7-2
			C579.3,155.9,578.6,155.7,578.5,156.2L578.5,156.2z"/>
	</g>
</g>
<g>
	<g>
		<path class="st13" d="M578.4,156.1c-0.1,0.7-0.1,1.3-0.4,1.9c0.2,0.1,0.5,0.1,0.7,0.2c0.2-0.6,0.3-1.2,0.5-1.8
			C579.3,155.9,578.6,155.7,578.4,156.1c-0.5,1.4-0.8,2.7-1.4,4.1c-0.2,0.4,0.4,0.8,0.6,0.4c0.1-0.1,0.2-0.3,0.3-0.4
			c-0.2-0.1-0.4-0.3-0.6-0.4c-0.1,0.1-0.1,0.3-0.2,0.4c0.2,0.1,0.5,0.2,0.7,0.3c0-0.1,0-0.2,0-0.3c0.1-0.4-0.5-0.7-0.7-0.3
			c0,0.1-0.1,0.2-0.1,0.2c-0.2,0.4,0.4,0.8,0.6,0.4c0.3-0.5,0.6-1.1,0.8-1.7c-0.2-0.1-0.5-0.1-0.7-0.2c-0.2,0.5-0.5,0.9-0.7,1.3
			c-0.2,0.4,0.4,0.8,0.6,0.4c0.2-0.3,0.3-0.6,0.5-0.9c-0.2-0.1-0.4-0.3-0.6-0.4c-0.1,0.2-0.2,0.4-0.3,0.6c0.2,0.1,0.5,0.2,0.7,0.3
			c0.2-0.6,0.6-1.1,0.8-1.7c0.1-0.5-0.6-0.7-0.7-0.2c-0.1,0.3-0.2,0.5-0.4,0.8c0.2,0.1,0.4,0.3,0.6,0.4c0.4-0.9,0.6-1.9,1-2.9
			c-0.2,0.1-0.4,0.1-0.6,0.2c0.6,0.6,0.3,1.8,0.2,2.6c-0.1,0.5,0.6,0.7,0.7,0.2c0.2-0.8,0.4-1.6,0.6-2.4c-0.2,0-0.5-0.1-0.7-0.1
			c0,0.8-0.1,1.6-0.3,2.3c0.2,0,0.5,0.1,0.7,0.1c-0.1-0.6-0.3-1.8,0.1-2.4c-0.2,0-0.4,0.1-0.6,0.1c0.4,0.4,0.4,1.8,0.4,2.3
			c0,0.5,0.7,0.5,0.8,0c0-0.7,0.1-1.4,0.2-2.1c-0.2,0-0.5,0-0.7,0c0.2,0.7,0.1,1.4,0.1,2.1c0.3,0,0.5,0,0.8,0
			c-0.1-0.7-0.1-1.4,0-2.1c-0.1,0.1-0.3,0.3-0.4,0.4c0,0,0.1,0,0.1,0c-0.1-0.1-0.2-0.2-0.4-0.3c0.2,0.5,0.3,1.1,0.4,1.6
			c0.1,0.5,0.7,0.3,0.7-0.1c0.1-0.5,0.1-1.1,0.2-1.6c-0.3,0-0.5,0-0.8,0c0,0.5,0,1-0.1,1.5c0.2,0,0.5,0.1,0.7,0.1
			c0-0.7,0.3-1.8-0.2-2.3c-0.1-0.1-0.2-0.1-0.4-0.1c-0.3,0.1-0.5,0.3-0.8,0.4c0.2,0.1,0.4,0.1,0.6,0.2c0-0.1,0-0.1,0-0.2
			c0-0.4-0.7-0.5-0.7-0.1c0,0.3-0.4,3-0.6,3c0.1,0.1,0.2,0.2,0.3,0.3c-0.1-0.3,0.2-1,0.3-1.3c-0.2-0.1-0.5-0.2-0.7-0.3
			c-0.1,0.5-0.3,1.1-0.7,1.5c0.2,0.1,0.4,0.1,0.6,0.2c-0.1-0.6,0.3-1.2,0.6-1.7c-0.2-0.1-0.5-0.1-0.7-0.2c0,0.6-0.6,1.3-0.9,1.8
			c0.2,0.1,0.5,0.1,0.7,0.2c0-0.5,0.5-1.3,0.8-1.6c-0.2-0.1-0.4-0.2-0.6-0.3c0,0.5-0.3,1.2-0.5,1.7c-0.1,0.3,0.1,0.4,0.4,0.5
			c0.4,0,0.7-0.5,0.9-0.8c-0.2-0.1-0.4-0.1-0.6-0.2c0.1,0.3-0.2,0.8-0.3,1c-0.2,0.4,0.5,0.7,0.7,0.3c0.2-0.4,0.4-0.9,0.8-1.2
			c-0.2-0.1-0.4-0.3-0.6-0.4c-0.1,0.4-0.2,0.7-0.4,1.1c-0.1,0.4,0.5,0.7,0.7,0.3c0.2-0.4,0.4-0.7,0.6-1.1c-0.2-0.1-0.5-0.1-0.7-0.2
			c0,0.4-0.2,0.7-0.4,1c0.2,0.1,0.5,0.2,0.7,0.3c0.1-0.3,0.2-0.6,0.4-0.9c0.3-0.4-0.4-0.8-0.6-0.4c-0.2,0.4-0.4,0.7-0.5,1.1
			c-0.1,0.4,0.5,0.7,0.7,0.3c0.3-0.4,0.5-0.9,0.5-1.4c0-0.4-0.5-0.5-0.7-0.2c-0.2,0.3-0.4,0.7-0.6,1.1c0.2,0.1,0.5,0.2,0.7,0.3
			c0.1-0.4,0.2-0.7,0.4-1.1c0.1-0.3-0.3-0.6-0.6-0.4c-0.5,0.3-0.8,0.9-1,1.4c0.2,0.1,0.5,0.2,0.7,0.3c0.2-0.4,0.5-0.9,0.3-1.4
			c-0.1-0.3-0.4-0.4-0.6-0.2c0,0-0.5,0.6-0.4,0.6c0.1,0.2,0.2,0.3,0.4,0.5c0.2-0.6,0.5-1.3,0.5-1.9c0-0.3-0.4-0.5-0.6-0.3
			c-0.5,0.5-1,1.4-1.1,2.2c0,0.4,0.5,0.5,0.7,0.2c0.4-0.7,1-1.4,1-2.2c0-0.4-0.5-0.5-0.7-0.2c-0.4,0.6-0.8,1.5-0.6,2.3
			c0.1,0.3,0.4,0.3,0.6,0.2c0.5-0.5,0.8-1.2,0.9-1.8c0.1-0.4-0.5-0.7-0.7-0.3c-0.2,0.5-0.6,1.3-0.4,1.9c0,0.1,0.1,0.2,0.3,0.3
			c0.4,0.1,0.8-0.2,1-0.5c0.4-0.8,0.4-2.1,0.6-3c-0.2,0-0.5-0.1-0.7-0.1c0,0.2,0,0.2,0.1,0.4c0.1,0.2,0.3,0.3,0.6,0.2
			c0.2-0.1,0.4-0.2,0.6-0.3c-0.1,0-0.2-0.1-0.4-0.1c0.3,0.3,0,1.4,0,1.8c0,0.4,0.6,0.5,0.7,0.1c0.1-0.6,0.2-1.1,0.1-1.7
			c0-0.5-0.7-0.5-0.8,0c-0.1,0.5-0.1,1.1-0.2,1.6c0.2,0,0.5-0.1,0.7-0.1c-0.1-0.6-0.2-1.1-0.4-1.6c-0.1-0.2-0.2-0.3-0.4-0.3
			c0,0-0.1,0-0.1,0c-0.2,0-0.4,0.2-0.4,0.4c-0.1,0.7,0,1.4,0,2.1c0.1,0.5,0.7,0.5,0.8,0c0-0.8,0.1-1.6-0.1-2.3
			c-0.1-0.3-0.6-0.4-0.7,0c-0.1,0.7-0.2,1.5-0.2,2.3c0.3,0,0.5,0,0.8,0c0-0.8,0-2.3-0.6-2.9c-0.2-0.2-0.5-0.1-0.6,0.1
			c-0.4,0.7-0.3,1.9-0.2,2.7c0,0.4,0.7,0.5,0.7,0.1c0.1-0.8,0.2-1.7,0.3-2.5c0-0.4-0.6-0.5-0.7-0.1c-0.2,0.8-0.5,1.6-0.6,2.4
			c0.2,0.1,0.5,0.1,0.7,0.2c0.2-1.1,0.5-2.4-0.3-3.3C578.8,155.8,578.5,155.9,578.4,156.1c-0.3,0.9-0.5,1.8-0.9,2.7
			c-0.2,0.4,0.4,0.8,0.6,0.4c0.2-0.3,0.3-0.6,0.4-1c-0.2-0.1-0.5-0.1-0.7-0.2c-0.2,0.6-0.5,1.1-0.8,1.7c-0.2,0.4,0.5,0.6,0.7,0.3
			c0.1-0.2,0.2-0.4,0.3-0.6c0.2-0.4-0.4-0.8-0.6-0.4c-0.1,0.3-0.3,0.6-0.5,0.9c0.2,0.1,0.4,0.3,0.6,0.4c0.2-0.5,0.6-0.9,0.7-1.5
			c0.2-0.5-0.5-0.6-0.7-0.2c-0.2,0.5-0.5,1-0.7,1.5c0.2,0.1,0.4,0.3,0.6,0.4c0-0.1,0.1-0.2,0.1-0.2c-0.2-0.1-0.5-0.2-0.7-0.3
			c0,0.1,0,0.2,0,0.3c-0.1,0.4,0.5,0.7,0.7,0.3c0.1-0.1,0.2-0.3,0.2-0.4c0.2-0.4-0.4-0.8-0.6-0.4c-0.1,0.1-0.2,0.3-0.3,0.4
			c0.2,0.1,0.4,0.3,0.6,0.4c0.3-0.7,0.6-1.3,0.9-2c0.3-0.7,0.4-1.5,0.7-2.2C578.9,156.3,578.6,156.3,578.4,156.1
			c-0.1,0.7-0.3,1.3-0.4,1.9c-0.1,0.5,0.5,0.6,0.7,0.2c0.3-0.7,0.4-1.3,0.4-2.1C579.1,155.7,578.4,155.7,578.4,156.1L578.4,156.1z"
			/>
	</g>
</g>
<g>
	<g>
		<path class="st13" d="M578,160.8c0.2,0,0.3-0.1,0.5-0.1c-0.1-0.2-0.2-0.5-0.3-0.7c-0.1,0.1-0.3,0.2-0.5,0.1
			c0.1,0.1,0.2,0.1,0.3,0.2c0,0,0,0,0-0.1c0,0.1,0,0.2,0,0.3c0-0.1,0.2-0.3,0.3-0.4c0.1-0.1,0.3-0.3,0.1-0.3
			c-0.1-0.1-0.2-0.2-0.4-0.3c0,0.2-0.2,0.7-0.3,0.8c-0.1,0.3-0.3,0.6-0.5,0.9c-0.2,0.4,0.4,0.8,0.6,0.4c0.3-0.4,0.7-0.9,1.1-1.2
			c-0.2-0.1-0.4-0.2-0.6-0.3c0,0.1-0.3,0.5-0.4,0.6c-0.2,0.2-0.4,0.4-0.6,0.6c0.2,0.2,0.4,0.3,0.6,0.5c0.1-0.3,0.4-0.5,0.6-0.7
			c0.2-0.2,0.5-0.6,0.7-0.7c-0.2-0.2-0.3-0.3-0.5-0.5c-0.1,0.5-0.6,0.9-0.8,1.3c-0.2,0.3,0.2,0.8,0.5,0.5c0.2-0.2,0.4-0.3,0.6-0.5
			c0.2-0.2,0.4-0.5,0.7-0.6c-0.2-0.1-0.4-0.3-0.6-0.4c-0.1,0.3-0.4,0.5-0.6,0.7c0.2,0.2,0.4,0.3,0.6,0.5c0.1-0.2,0.3-0.4,0.5-0.6
			c-0.2-0.1-0.4-0.2-0.6-0.3c0,0.1-0.3,0.6-0.3,0.7c-0.2,0.4,0.3,0.7,0.6,0.5c0,0,0,0,0,0c0.4-0.3-0.2-0.8-0.5-0.5c0,0,0,0,0,0
			c0.2,0.2,0.4,0.3,0.6,0.5c0.2-0.3,0.5-0.7,0.5-1.1c0-0.3-0.3-0.5-0.6-0.3c-0.3,0.2-0.6,0.5-0.8,0.8c-0.3,0.3,0.3,0.8,0.6,0.5
			c0.3-0.3,0.7-0.7,0.8-1.1c0.1-0.3-0.3-0.5-0.6-0.4c-0.5,0.2-0.9,0.8-1.3,1.1c0.2,0.2,0.3,0.3,0.5,0.5c0.3-0.5,0.7-1,0.9-1.5
			c0.1-0.3-0.2-0.5-0.5-0.5c-0.4,0.1-0.7,0.4-0.9,0.7c-0.3,0.3-0.6,0.6-0.8,1c-0.2,0.4,0.3,0.7,0.6,0.5c0.4-0.4,1.3-1.2,1.3-1.8
			c0-0.3-0.3-0.5-0.6-0.3c-0.6,0.3-1,0.9-1.4,1.4c0.2,0.1,0.4,0.3,0.6,0.4c0.3-0.6,1-1.6,0.8-2.3c0-0.2-0.2-0.3-0.4-0.3
			c-0.3,0-0.5,0.3-0.7,0.5c-0.2,0.2-0.5,0.5-0.5,0.7c-0.1,0.8,0.9,0.5,1.3,0.3c0.4-0.2,0.1-0.8-0.3-0.7c-0.2,0-0.3,0.1-0.5,0.1
			C577.3,160.2,577.5,160.9,578,160.8L578,160.8z"/>
	</g>
</g>
</svg>
