<?xml version="1.0" encoding="utf-8"?>
<!-- Generator: Adobe Illustrator 22.1.0, SVG Export Plug-In . SVG Version: 6.00 Build 0)  -->
<svg version="1.1" id="Слой_1" xmlns="http://www.w3.org/2000/svg" xmlns:xlink="http://www.w3.org/1999/xlink" x="0px" y="0px"
	 viewBox="0 0 14 14" style="enable-background:new 0 0 14 14;" xml:space="preserve">
<style type="text/css">
	.st0{fill:none;}
</style>
<path class="st0" d="M13.4,3.5C13.3,3.5,13.3,3.4,13.4,3.5C13.3,3.4,13.3,3.4,13.4,3.5c-0.5-1.4-1.7-2.4-3.1-2.4
	C9.5,1.1,8.7,1.4,8.1,2C8.1,2.1,7.5,2.6,7,3.3h0C6.5,2.5,5.8,2,5.8,2l0,0C5.3,1.4,4.5,1.1,3.7,1.1c-1.4,0-2.6,1-3,2.3c0,0,0,0,0,0
	c0,0,0,0,0,0.1C-1,8.2,7,12.9,7,12.9S15,8.2,13.4,3.5z"/>
</svg>
