<?xml version="1.0" encoding="utf-8"?>
<!-- Generator: Adobe Illustrator 22.1.0, SVG Export Plug-In . SVG Version: 6.00 Build 0)  -->
<svg version="1.1" id="Capa_1" xmlns="http://www.w3.org/2000/svg" xmlns:xlink="http://www.w3.org/1999/xlink" x="0px" y="0px"
	 viewBox="0 0 528.9 528.9" style="enable-background:new 0 0 528.9 528.9;" xml:space="preserve">
<style type="text/css">
	.st0{fill:#FDCB5C;stroke:#000000;stroke-width:29;stroke-miterlimit:10;}
</style>
<circle class="st0" cx="264.5" cy="264.5" r="235.9"/>
<g>
	<ellipse transform="matrix(0.9871 -0.1602 0.1602 0.9871 -20.1764 47.6308)" cx="285.3" cy="149" rx="35.8" ry="35.8"/>
	<path d="M272.2,363.1c0,0,0-0.1,0-0.2c0.5-1.6,3.8-12.9,7.6-26.2c0.1-0.4,0.2-0.8,0.3-1.2c5.4-18.7,11.9-41,13.1-45.4
		c0.2-0.5,0.2-0.8,0.2-0.8s0.5-1.8,1.3-4.8c0-0.2,0.1-0.4,0.1-0.6c0.4-1.9,0.9-4.2,1.4-6.9c0,0,0-0.1,0-0.2c0.5-2.6,0.9-5.6,1.2-8.7
		c1.7-17.7-0.5-41.3-21.9-49.2c-35.8-13.3-81.6,14-81.6,14l-2.4,13.4c35.7-7.5,52.4-0.6,45.4,21.9c0,0,0,0.1,0,0.2
		c-0.5,1.6-3.9,13.3-7.9,27c0,0.1-0.1,0.2-0.1,0.4c-4.8,16.5-10.3,35.7-12.4,43.1c-0.1,0.5-0.3,0.9-0.4,1.3c-0.1,0.4-0.2,0.8-0.3,1
		c-0.2,0.5-0.2,0.8-0.2,0.8s-0.6,2-1.4,5.4c-0.4,1.8-0.9,4.1-1.3,6.6c0,0.1,0,0.2-0.1,0.3c-0.5,2.7-0.9,5.7-1.2,8.9
		c-1.7,17.7,0.5,41.3,21.9,49.2c35.8,13.3,81.6-14,81.6-14l2.4-13.4C281.9,392.5,265.2,385.6,272.2,363.1z"/>
</g>
</svg>
