<?xml version="1.0" encoding="utf-8"?>
<!-- Generator: Adobe Illustrator 22.1.0, SVG Export Plug-In . SVG Version: 6.00 Build 0)  -->
<svg version="1.1" id="Слой_1" class= "" xmlns="http://www.w3.org/2000/svg" xmlns:xlink="http://www.w3.org/1999/xlink" x="0px" y="0px"
	 viewBox="0 0 14 14" style="enable-background:new 0 0 14 14;" xml:space="preserve">
<style type="text/css">
	.st0{fill:#FFFFFF;stroke:#000000;stroke-width:0.75;stroke-miterlimit:10;}
</style>
<path class="st0" d="M13.1,3.6C13.1,3.6,13.1,3.6,13.1,3.6C13,3.6,13,3.6,13.1,3.6c-0.5-1.4-1.6-2.3-2.9-2.3c-0.8,0-1.5,0.3-2,0.9
	C8,2.3,7.5,2.8,7,3.5h0C6.5,2.7,5.9,2.2,5.9,2.2l0,0c-0.5-0.5-1.3-0.9-2-0.9C2.5,1.4,1.4,2.3,1,3.6c0,0,0,0,0,0c0,0,0,0,0,0.1
	c-1.6,4.6,6.1,9,6.1,9S14.7,8.2,13.1,3.6z"/>
</svg>
