<?xml version="1.0" encoding="utf-8"?>
<!-- Generator: Adobe Illustrator 22.1.0, SVG Export Plug-In . SVG Version: 6.00 Build 0)  -->
<svg version="1.1" id="Capa_1" xmlns="http://www.w3.org/2000/svg" xmlns:xlink="http://www.w3.org/1999/xlink" x="0px" y="0px"
	 viewBox="0 0 528.9 528.9" style="enable-background:new 0 0 528.9 528.9;" xml:space="preserve">
<style type="text/css">
	.st0{fill:none;stroke:#000000;stroke-width:10;stroke-miterlimit:10;}
</style>
<path class="st0" d="M473.4,263.5c0,115.9-94,209.9-209.9,209.9s-209.9-94-209.9-209.9s94-209.9,209.9-209.9c36,0,69.8,9,99.4,25
	C428.7,114,473.4,183.5,473.4,263.5z"/>
<path d="M356.7,75.4c0,0-26.2,12.1-35.6,16.8c0,0-46.1,3.3-57.6,9.5c0,0-19.5,13.7-17.1,21.8c2.4,8,14.7,3.3,14.7,3.3l6.1-9.5
	l0.5,16.6c0,0,7.1,7.6,13.2,0l3.8-15.6c0,0,3.3-4.7,8.5,0c0,0,4.2,0,8.2,3.8c4.1,3.8-2.6,9.9-2.6,9.9s-10.4,0-9.5,9
	c0,0-3.6,4.7-25,2.8l-6.3-9.5c0,0-6.1-2.4-4.3,17c0,0-15.1,2.4-14.7,9.9c0,0-2.4,2.4-9.5,0c0,0,1.4,5.7-14.2,4.7v6.6
	c0,0,12.3-4.3,10.9,6.1c-1.4,10.4-20.3,5.7-20.3,5.7s-5.7,11.8,0,16.1c5.7,4.3,21.8,2.8,21.8,2.8s5.7-20.3,11.8-21.3
	c6.1-0.9,14.2-0.5,14.2-0.5v-5.7c0,0,6.6-1.4,6.6,1.9c0,3.3,8,10.9,8,10.9l0.5,14.9c0,0,4.3-8.3,5.7-5.9c1.4,2.4,5.4,0.9,5.4,0.9
	s3.1-6.6-11.6-21.8l11.6-0.5c0,0,5.9,10.4,9.2,9.9c3.3-0.5,0,17.3,0,17.3s9,4.5,12.8-2.6s12.8-25.1,12.8-25.1s41.6-3.3,32.2,20.3
	l-36.4,0.5c0,0-1.4,12.8,7.1,11.8c8.5-0.9,16.6,3.8,16.6,3.8l0.5,12.8c0,0-39.3,5.7-43.5,0c-4.3-5.7-15.1,2.5-15.1,2.5
	s-12.6,1.7-12.7-18.1c0,0-36.1,2.4-50.7,9.5l-23.2,23.2v49.7l23.2,19.4h16.1c0,0,18-10.9,23.7,0c0,0,12.1,7.1,11.9,22.2
	c0,0,3.3,11.8,8.7,15.1c0,0-6.9,17.5-4.6,19.9c2.4,2.4-2.4,14.2,8,22.7c10.4,8.5,7.6,12.8,7.6,12.8s22.7,9.5,31.2-12.3
	c8.5-21.8,28.9-28.9,28.9-28.9l1.4-31.7c0,0,29.3-9.5,30.7-42.1c0,0-14.7,11.4-27.4,7.1l0.9-18.9c0,0-20.8-27.1-14.2-36.5
	c6.6-9.4,22.7,42.2,22.7,42.2s14.7,2,42.6-19.3c0,0,8-14.3-19.9-14.3c0,0-5.7,0.9-9-20.3l14.2,11.8l19.9,2.9l22.7,23.2
	c0,0,0.9,32.2,12.8,27.4c0,0,7.6-27.8,22.7-29.7C479.6,262.5,474.6,135.2,356.7,75.4z"/>
<path d="M357.5,387.8c0,0,5.2,1.4,13.2-20.8v-15.1h-6.6c0,0-0.5,11.8-2.8,13.2c-2.4,1.4-9.5,8-9.5,8S352.3,391.8,357.5,387.8z"/>
<path d="M224.6,100.7c0,0-9.9-2.8-7.6,15.1l-3.8,5.2v13.7l5.7,4.7h13.7c0,0,5.7-7.6,6.1-14.2c0.5-6.6-8.5-14.2-8.5-14.2
	S230.8,98.2,224.6,100.7z"/>
<path d="M100.8,130.9L138,95.2l4.3,7.4c0,0,5.2,10.7,3.3,22.4l-17,21.6l-7.6,14.7c0,0-8,7.1-10.4,3.3c-2.4-3.8-1.4-22.2-1.4-22.2
	L100.8,130.9z"/>
<path d="M76.7,167.7c0,0,15.5,21.5,19.3,36.6c3.8,15.1-9.6,9.9-9.6,9.9s-28.7,6.4-29.9,14.5S76.7,167.7,76.7,167.7z"/>
<path d="M62.8,312.1c0,0,18.9,3.8,24.6,12.3c5.7,8.5,14.9,27.4,13.4,34.5c0,0,30.6,7.1,35.4,14.2c4.7,7.1-12.7,37.4-12.7,37.4
	l-26.8-19.7l-37.4-78.7H62.8z"/>
<path d="M201.6,133.7c0.3-0.4-0.3-5.8,5-12.6l3.3,1.9v10.7H201.6z"/>
</svg>
