<?xml version="1.0" encoding="utf-8"?>
<!-- Generator: Adobe Illustrator 22.1.0, SVG Export Plug-In . SVG Version: 6.00 Build 0)  -->
<svg version="1.1" id="Слой_1" xmlns="http://www.w3.org/2000/svg" xmlns:xlink="http://www.w3.org/1999/xlink" x="0px" y="0px"
	 viewBox="0 0 264 264" style="enable-background:new 0 0 264 264;" xml:space="preserve">
<style type="text/css">
	.st0{fill:#FFFFFF;}
	.st1{fill:#595959;}
	.st2{fill:none;stroke:#595959;stroke-width:14;stroke-miterlimit:10;}
	.st3{fill-rule:evenodd;clip-rule:evenodd;fill:#595959;}
</style>
<g>
	<circle class="st0" cx="132" cy="132" r="114.5"/>
	<path class="st1" d="M132,23c29.1,0,56.5,11.3,77.1,31.9c20.6,20.6,31.9,48,31.9,77.1s-11.3,56.5-31.9,77.1
		c-20.6,20.6-48,31.9-77.1,31.9s-56.5-11.3-77.1-31.9C34.3,188.5,23,161.1,23,132s11.3-56.5,31.9-77.1C75.5,34.3,102.9,23,132,23
		 M132,12C65.7,12,12,65.7,12,132s53.7,120,120,120s120-53.7,120-120S198.3,12,132,12L132,12z"/>
</g>
<g>
	<line class="st2" x1="132" y1="47.6" x2="132" y2="176.4"/>
</g>
<circle class="st3" cx="132" cy="207.6" r="11"/>
</svg>
