<?xml version="1.0" encoding="utf-8"?>
<!-- Generator: Adobe Illustrator 22.1.0, SVG Export Plug-In . SVG Version: 6.00 Build 0)  -->
<svg version="1.1" id="Слой_1" xmlns="http://www.w3.org/2000/svg" xmlns:xlink="http://www.w3.org/1999/xlink" x="0px" y="0px"
	 viewBox="0 0 200 25" style="enable-background:new 0 0 200 25;" xml:space="preserve">
<style type="text/css">
	.st0{fill:#FFFFFF;}
	.st1{fill:none;stroke:#000000;stroke-miterlimit:10;}
	.st2{fill:#FFFFFF;stroke:#000000;stroke-miterlimit:10;}
</style>
<g>
	<path class="st0" d="M100,24c-3.5,0-6.8-1.6-9-4.3l-0.2-0.2H0.5v-13h89.7l0.1-0.2C92.5,3,96.1,1,100,1c3.9,0,7.5,2,9.7,5.3l0.1,0.2
		h89.7v13h-90.4l-0.1,0.2C106.8,22.4,103.5,24,100,24z"/>
	<path d="M100,1.5c3.7,0,7.2,1.9,9.2,5l0.3,0.5h0.5H199v12h-89.6h-0.5l-0.3,0.4c-2.1,2.6-5.2,4.1-8.6,4.1s-6.5-1.5-8.6-4.1L91.1,19
		h-0.5H1V7h88.9h0.5l0.3-0.5C92.8,3.4,96.3,1.5,100,1.5 M100,0.5c-4.2,0-7.9,2.2-10.1,5.5H0v14h90.6c2.2,2.7,5.6,4.5,9.4,4.5
		s7.2-1.8,9.4-4.5H200V6h-89.9C107.9,2.7,104.2,0.5,100,0.5L100,0.5z"/>
</g>
<polygon class="st1" points="95.5,17.5 97.7,17.5 105.5,9.7 103.3,7.5 95.5,15.3 "/>
<line class="st2" x1="101.5" y1="9.2" x2="103.8" y2="11.5"/>
</svg>
