<?xml version="1.0" encoding="utf-8"?>
<!-- Generator: Adobe Illustrator 22.1.0, SVG Export Plug-In . SVG Version: 6.00 Build 0)  -->
<svg version="1.1" id="Слой_1" xmlns="http://www.w3.org/2000/svg" xmlns:xlink="http://www.w3.org/1999/xlink" x="0px" y="0px"
	 viewBox="0 0 362.8 362.8" style="enable-background:new 0 0 362.8 362.8;" xml:space="preserve">
<style type="text/css">
	.st0{fill:none;stroke:#FFFFFF;stroke-width:10;stroke-miterlimit:10;}
	.st1{fill:#FFFFFF;stroke:#FFFFFF;stroke-width:10;stroke-linejoin:round;stroke-miterlimit:10;}
	.st2{fill:#FFFFFF;stroke:#FFFFFF;stroke-width:5;stroke-linecap:round;stroke-linejoin:round;stroke-miterlimit:10;}
	.st3{fill:#FFFFFF;stroke:#FFFFFF;stroke-linecap:round;stroke-linejoin:round;stroke-miterlimit:10;}
	.st4{fill:none;stroke:#FFFFFF;stroke-width:1.5;stroke-linecap:round;stroke-linejoin:round;stroke-miterlimit:10;}
	.st5{stroke:#000000;stroke-linecap:round;stroke-linejoin:round;stroke-miterlimit:10;}
	.st6{fill:#FFFFFF;stroke:#FFFFFF;stroke-miterlimit:10;}
	.st7{fill:#FFFFFF;stroke:#FFFFFF;stroke-width:10;stroke-miterlimit:10;}
</style>
<circle class="st0" cx="181.4" cy="191.4" r="70.9"/>
<rect x="172.1" y="83.7" class="st1" width="18.7" height="13.2"/>
<rect x="175.3" y="106.1" class="st2" width="12.2" height="3.8"/>
<rect x="173.3" y="103.6" class="st3" width="16.2" height="6"/>
<rect x="107.7" y="120.8" transform="matrix(0.6691 -0.7431 0.7431 0.6691 -56.6419 126.3927)" class="st2" width="11.9" height="11.9"/>
<rect x="116.8" y="130.1" transform="matrix(0.7071 -0.7071 0.7071 0.7071 -58.8733 123.5063)" class="st2" width="5.7" height="5.5"/>
<rect x="243.4" y="120.9" transform="matrix(0.6691 0.7431 -0.7431 0.6691 176.7852 -143.369)" class="st2" width="11.9" height="11.9"/>
<rect x="240.2" y="129.8" transform="matrix(0.6691 0.7431 -0.7431 0.6691 178.9338 -136.7842)" class="st2" width="5.7" height="5.5"/>
<circle class="st4" cx="181.4" cy="191.4" r="63.2"/>
<circle class="st5" cx="181.4" cy="132.3" r="1.5"/>
<circle class="st5" cx="181.4" cy="132.3" r="1.5"/>
<circle class="st3" cx="181.4" cy="132.3" r="1.5"/>
<circle class="st3" cx="151.8" cy="140.2" r="1.5"/>
<circle class="st3" cx="130.2" cy="161.8" r="1.5"/>
<circle class="st5" cx="122.3" cy="191.4" r="1.5"/>
<circle class="st3" cx="130.2" cy="221" r="1.5"/>
<circle class="st3" cx="151.8" cy="242.7" r="1.5"/>
<circle class="st5" cx="181.4" cy="250.6" r="1.5"/>
<circle class="st3" cx="211" cy="242.7" r="1.5"/>
<circle class="st3" cx="232.7" cy="221" r="1.5"/>
<circle class="st5" cx="240.6" cy="191.4" r="1.5"/>
<circle class="st3" cx="232.7" cy="161.8" r="1.5"/>
<circle class="st6" cx="211" cy="140.2" r="1.5"/>
<circle class="st3" cx="181.4" cy="250.4" r="1.5"/>
<circle class="st3" cx="122.3" cy="191.4" r="1.5"/>
<circle class="st3" cx="240.6" cy="191.4" r="1.5"/>
<line class="st7" x1="145" y1="183.5" x2="177.7" y2="216.2"/>
<line class="st7" x1="220.1" y1="166.7" x2="173.6" y2="213.2"/>
</svg>
