<?xml version="1.0" encoding="utf-8"?>
<!-- Generator: Adobe Illustrator 22.1.0, SVG Export Plug-In . SVG Version: 6.00 Build 0)  -->
<svg version="1.1" id="Слой_1" xmlns="http://www.w3.org/2000/svg" xmlns:xlink="http://www.w3.org/1999/xlink" x="0px" y="0px"
	 viewBox="0 0 128 128" style="enable-background:new 0 0 128 128;" xml:space="preserve">
<style type="text/css">
	.st0{fill:none;}
	.st1{fill:#FFFFFF;}
</style>
<circle class="st0" cx="64" cy="64" r="56"/>
<path class="st1" d="M64,101.3c-20.6,0-37.3-16.7-37.3-37.3c0-20.6,16.7-37.3,37.3-37.3c8.1,0,15.7,2.6,21.8,7l-15,15l28.6,3.5
	l16.8,2.1l-1.4-13.8L111.5,8L99.1,20.4C89.5,12.6,77.3,8,64,8C33.1,8,8,33.1,8,64c0,30.9,25.1,56,56,56c20,0,37.6-10.5,47.5-26.3
	l-16.6-8.7C88.1,94.9,76.8,101.3,64,101.3z"/>
</svg>
