<?xml version="1.0" encoding="utf-8"?>
<!-- Generator: Adobe Illustrator 22.1.0, SVG Export Plug-In . SVG Version: 6.00 Build 0)  -->
<svg version="1.1" id="Слой_1" xmlns="http://www.w3.org/2000/svg" xmlns:xlink="http://www.w3.org/1999/xlink" x="0px" y="0px"
	 viewBox="0 0 362.8 362.8" style="enable-background:new 0 0 362.8 362.8;" xml:space="preserve">
<style type="text/css">
	.st0{fill:none;stroke:#FFFFFF;stroke-width:8;stroke-miterlimit:10;}
	.st1{fill:none;stroke:#FFFFFF;stroke-width:5;stroke-miterlimit:10;}
</style>
<path class="st0" d="M108.6,139.9c0,0,2.1-2.2,3.5-3.9c2.5-3,6.4-8,9.5-13.2c2.3-3.9,1-11.9,1.3-15.4c0.3-3.8,3.7-5,6.6-5.8
	c3.9-1,11.1,5.4,12.7,16.9c0.3,2.1-0.7,7.3-0.8,9.7c-0.1,2.8-0.2,2.8-1.1,5.8l26.6-0.3c0,0,8.9,3.1,4.7,11.8l-1.9,2l-2.9,0.9
	c0,0,7.1,5,3.2,9.8c-0.5,0.6-2.3,2-4.2,2.6c0,0,5.7,4.5,2.4,9.4c-1.1,1.6-4,2.7-4,2.7s2.2,1.9,2,5.6c-0.2,3.6-2.4,5.7-7.9,6.8h-44
	l-4.6-1.7"/>
<path class="st0" d="M108.6,137.2v48.2H85.8c-2.4,0-4.3-1.9-4.3-4.3v-40c0-1.6,0.9-3.1,2.3-3.8H108.6z"/>
<path class="st0" d="M87.9,137.7c-0.6-0.3-1.3-0.5-2-0.5c-0.7,0-1.4,0.2-2,0.5c-1.3,0.7-2.3,2.1-2.3,3.8V181c0,2.4,2,4.3,4.3,4.3"/>
<path class="st0" d="M254.3,230.8c0,0-2.1,2.2-3.5,3.9c-2.5,3-6.4,8-9.5,13.2c-2.3,3.9-1,11.9-1.3,15.4c-0.3,3.8-3.7,5-6.6,5.8
	c-3.9,1-11.1-5.4-12.7-16.9c-0.3-2.1,0.7-7.3,0.8-9.7c0.1-2.8,0.2-2.8,1.1-5.8l-26.6,0.3c0,0-8.9-3.1-4.7-11.8l1.9-2l2.9-0.9
	c0,0-7.1-5-3.2-9.8c0.5-0.6,2.3-2,4.2-2.6c0,0-5.7-4.5-2.4-9.4c1.1-1.6,4-2.7,4-2.7s-2.2-1.9-2-5.6c0.2-3.6,2.4-5.7,7.9-6.8h44
	l4.6,1.7"/>
<path class="st0" d="M254.3,233.5v-48.2H277c2.4,0,4.3,1.9,4.3,4.3v40c0,1.6-0.9,3.1-2.3,3.8H254.3z"/>
<path class="st1" d="M275,233c0.6,0.3,1.3,0.5,2,0.5c0.7,0,1.4-0.2,2-0.5c1.3-0.7,2.3-2.1,2.3-3.8v-39.6c0-2.4-2-4.3-4.3-4.3"/>
<path class="st0" d="M152.1,114.7c9-4,18.9-6.2,29.3-6.2c37.9,0,69.1,29,72.5,66"/>
<path class="st0" d="M110.9,196.4c6.9,32.9,36,57.6,71,57.6c9.8,0,19.2-2,27.8-5.5"/>
</svg>
