<?xml version="1.0" encoding="utf-8"?>
<!-- Generator: Adobe Illustrator 22.1.0, SVG Export Plug-In . SVG Version: 6.00 Build 0)  -->
<svg version="1.1" id="Слой_1" xmlns="http://www.w3.org/2000/svg" xmlns:xlink="http://www.w3.org/1999/xlink" x="0px" y="0px"
	 viewBox="0 0 64 64" style="enable-background:new 0 0 64 64;" xml:space="preserve">
<style type="text/css">
	.st0{fill:#FFFFFF;}
</style>
<g>
	<polygon class="st0" points="15.2,35.3 15.2,41.2 15.2,48.8 48.8,48.8 48.8,41.2 48.8,35.3 48.8,34.5 15.2,34.5 	"/>
	<path class="st0" d="M49,20.7l-1.4-5.8l-32,7.9h0h0l-0.2,0.1L15.1,23l0,1.2l0,1.2l0,0l0,2.6l0,0v5.3h33.7v-5.9H22.2L49,20.7z
		 M40.9,18l3.3-0.9l0.8-0.2l0.9,3.3L45,20.4l-3.3,0.9l-1.7-3L40.9,18z M32.9,20.1l3.3-0.9l1.7,3L37,22.5l-3.3,0.9l-1.7-3L32.9,20.1z
		 M24.1,22.4l3.3-0.9l1.7,3l-0.8,0.2l-3.3,0.9l-1.7-3L24.1,22.4z M42.1,28.6h4.2V32h-5.1L42.1,28.6z M33.7,28.6h4.2L37.1,32h-4.2
		L33.7,28.6z M25.3,28.6h4.2L28.6,32h-4.2L25.3,28.6z M21.5,27.5c0,0.1,0,0.2,0,0.2c0,1.2-1,2.1-2.1,2.1c-0.9,0-1.7-0.6-2-1.4
		c-0.1-0.2-0.2-0.5-0.2-0.8c0-0.1,0-0.3,0-0.4c0.2-1,1.1-1.7,2.1-1.7s1.9,0.7,2.1,1.7C21.5,27.4,21.5,27.5,21.5,27.5z"/>
</g>
</svg>
