<svg xmlns="http://www.w3.org/2000/svg" viewBox="0 0 686 14" width="686" height="14"><g><defs><clipPath id="clip_frame0_path_1"><path d="M13.1 3.6c-.5-1.4-1.6-2.3-2.9-2.3-.8 0-1.5.3-2 .9-.2.1-.7.6-1.2 1.3-.5-.8-1.1-1.3-1.1-1.3-.5-.5-1.3-.9-2-.9-1.4.1-2.5 1-2.9 2.3v.1c-1.6 4.6 6.1 9 6.1 9s7.6-4.5 6-9.1z"/></clipPath></defs><path d="M13.1 3.6c-.5-1.4-1.6-2.3-2.9-2.3-.8 0-1.5.3-2 .9-.2.1-.7.6-1.2 1.3-.5-.8-1.1-1.3-1.1-1.3-.5-.5-1.3-.9-2-.9-1.4.1-2.5 1-2.9 2.3v.1c-1.6 4.6 6.1 9 6.1 9s7.6-4.5 6-9.1z" fill="none" stroke="#000000" stroke-width=".75" stroke-miterlimit="10"/><path clip-path="url(#clip_frame0_path_1)" d="M.7 13s3.2-.1 6.3 0c3.1.1 6.3 0 6.3 0v.5H.7V13z" fill="#f25268"/></g><g transform="translate(14)"><defs><clipPath id="clip_frame1_path_1"><path d="M13.1 3.6c-.5-1.4-1.6-2.3-2.9-2.3-.8 0-1.5.3-2 .9-.2.1-.7.6-1.2 1.3-.5-.8-1.1-1.3-1.1-1.3-.5-.5-1.3-.9-2-.9-1.4.1-2.5 1-2.9 2.3v.1c-1.6 4.6 6.1 9 6.1 9s7.6-4.5 6-9.1z"/></clipPath></defs><path d="M13.1 3.6c-.5-1.4-1.6-2.3-2.9-2.3-.8 0-1.5.3-2 .9-.2.1-.7.6-1.2 1.3-.5-.8-1.1-1.3-1.1-1.3-.5-.5-1.3-.9-2-.9-1.4.1-2.5 1-2.9 2.3v.1c-1.6 4.6 6.1 9 6.1 9s7.6-4.5 6-9.1z" fill="none" stroke="#000000" stroke-width=".75" stroke-miterlimit="10"/><path clip-path="url(#clip_frame1_path_1)" d="M.7 12.992s3.2-.102 6.3 0c3.1.101 6.3 0 6.3 0v.508H.7v-.508z" fill="#f25268"/></g><g transform="translate(28)"><defs><clipPath id="clip_frame2_path_1"><path d="M13.1 3.6c-.5-1.4-1.6-2.3-2.9-2.3-.8 0-1.5.3-2 .9-.2.1-.7.6-1.2 1.3-.5-.8-1.1-1.3-1.1-1.3-.5-.5-1.3-.9-2-.9-1.4.1-2.5 1-2.9 2.3v.1c-1.6 4.6 6.1 9 6.1 9s7.6-4.5 6-9.1z"/></clipPath></defs><path d="M13.1 3.6c-.5-1.4-1.6-2.3-2.9-2.3-.8 0-1.5.3-2 .9-.2.1-.7.6-1.2 1.3-.5-.8-1.1-1.3-1.1-1.3-.5-.5-1.3-.9-2-.9-1.4.1-2.5 1-2.9 2.3v.1c-1.6 4.6 6.1 9 6.1 9s7.6-4.5 6-9.1z" fill="none" stroke="#000000" stroke-width=".75" stroke-miterlimit="10"/><path clip-path="url(#clip_frame2_path_1)" d="M.7 12.967s3.2-.107 6.3 0c3.1.106 6.3 0 6.3 0v.533H.7v-.533z" fill="#f25268"/></g><g transform="translate(42)"><defs><clipPath id="clip_frame3_path_1"><path d="M13.1 3.6c-.5-1.4-1.6-2.3-2.9-2.3-.8 0-1.5.3-2 .9-.2.1-.7.6-1.2 1.3-.5-.8-1.1-1.3-1.1-1.3-.5-.5-1.3-.9-2-.9-1.4.1-2.5 1-2.9 2.3v.1c-1.6 4.6 6.1 9 6.1 9s7.6-4.5 6-9.1z"/></clipPath></defs><path d="M13.1 3.6c-.5-1.4-1.6-2.3-2.9-2.3-.8 0-1.5.3-2 .9-.2.1-.7.6-1.2 1.3-.5-.8-1.1-1.3-1.1-1.3-.5-.5-1.3-.9-2-.9-1.4.1-2.5 1-2.9 2.3v.1c-1.6 4.6 6.1 9 6.1 9s7.6-4.5 6-9.1z" fill="none" stroke="#000000" stroke-width=".75" stroke-miterlimit="10"/><path clip-path="url(#clip_frame3_path_1)" d="M.7 12.922s3.2-.115 6.3 0c3.1.115 6.3 0 6.3 0v.578L.7 13.499v-.577z" fill="#f25268"/></g><g transform="translate(56)"><defs><clipPath id="clip_frame4_path_1"><path d="M13.1 3.6c-.5-1.4-1.6-2.3-2.9-2.3-.8 0-1.5.3-2 .9-.2.1-.7.6-1.2 1.3-.5-.8-1.1-1.3-1.1-1.3-.5-.5-1.3-.9-2-.9-1.4.1-2.5 1-2.9 2.3v.1c-1.6 4.6 6.1 9 6.1 9s7.6-4.5 6-9.1z"/></clipPath></defs><path d="M13.1 3.6c-.5-1.4-1.6-2.3-2.9-2.3-.8 0-1.5.3-2 .9-.2.1-.7.6-1.2 1.3-.5-.8-1.1-1.3-1.1-1.3-.5-.5-1.3-.9-2-.9-1.4.1-2.5 1-2.9 2.3v.1c-1.6 4.6 6.1 9 6.1 9s7.6-4.5 6-9.1z" fill="none" stroke="#000000" stroke-width=".75" stroke-miterlimit="10"/><path clip-path="url(#clip_frame4_path_1)" d="M.7 12.856s3.2-.127 6.3 0c3.1.128 6.3 0 6.3 0v.644L.7 13.499v-.643z" fill="#f25268"/></g><g transform="translate(70)"><defs><clipPath id="clip_frame5_path_1"><path d="M13.1 3.6c-.5-1.4-1.6-2.3-2.9-2.3-.8 0-1.5.3-2 .9-.2.1-.7.6-1.2 1.3-.5-.8-1.1-1.3-1.1-1.3-.5-.5-1.3-.9-2-.9-1.4.1-2.5 1-2.9 2.3v.1c-1.6 4.6 6.1 9 6.1 9s7.6-4.5 6-9.1z"/></clipPath></defs><path d="M13.1 3.6c-.5-1.4-1.6-2.3-2.9-2.3-.8 0-1.5.3-2 .9-.2.1-.7.6-1.2 1.3-.5-.8-1.1-1.3-1.1-1.3-.5-.5-1.3-.9-2-.9-1.4.1-2.5 1-2.9 2.3v.1c-1.6 4.6 6.1 9 6.1 9s7.6-4.5 6-9.1z" fill="none" stroke="#000000" stroke-width=".75" stroke-miterlimit="10"/><path clip-path="url(#clip_frame5_path_1)" d="M.7 12.767s3.2-.145 6.3 0c3.1.145 6.3 0 6.3 0v.733L.7 13.498v-.731z" fill="#f25268"/></g><g transform="translate(84)"><defs><clipPath id="clip_frame6_path_1"><path d="M13.1 3.6c-.5-1.4-1.6-2.3-2.9-2.3-.8 0-1.5.3-2 .9-.2.1-.7.6-1.2 1.3-.5-.8-1.1-1.3-1.1-1.3-.5-.5-1.3-.9-2-.9-1.4.1-2.5 1-2.9 2.3v.1c-1.6 4.6 6.1 9 6.1 9s7.6-4.5 6-9.1z"/></clipPath></defs><path d="M13.1 3.6c-.5-1.4-1.6-2.3-2.9-2.3-.8 0-1.5.3-2 .9-.2.1-.7.6-1.2 1.3-.5-.8-1.1-1.3-1.1-1.3-.5-.5-1.3-.9-2-.9-1.4.1-2.5 1-2.9 2.3v.1c-1.6 4.6 6.1 9 6.1 9s7.6-4.5 6-9.1z" fill="none" stroke="#000000" stroke-width=".75" stroke-miterlimit="10"/><path clip-path="url(#clip_frame6_path_1)" d="M.7 12.651s3.2-.167 6.3 0c3.1.167 6.3 0 6.3 0v.849L.7 13.497v-.846z" fill="#f25268"/></g><g transform="translate(98)"><defs><clipPath id="clip_frame7_path_1"><path d="M13.1 3.6c-.5-1.4-1.6-2.3-2.9-2.3-.8 0-1.5.3-2 .9-.2.1-.7.6-1.2 1.3-.5-.8-1.1-1.3-1.1-1.3-.5-.5-1.3-.9-2-.9-1.4.1-2.5 1-2.9 2.3v.1c-1.6 4.6 6.1 9 6.1 9s7.6-4.5 6-9.1z"/></clipPath></defs><path d="M13.1 3.6c-.5-1.4-1.6-2.3-2.9-2.3-.8 0-1.5.3-2 .9-.2.1-.7.6-1.2 1.3-.5-.8-1.1-1.3-1.1-1.3-.5-.5-1.3-.9-2-.9-1.4.1-2.5 1-2.9 2.3v.1c-1.6 4.6 6.1 9 6.1 9s7.6-4.5 6-9.1z" fill="none" stroke="#000000" stroke-width=".75" stroke-miterlimit="10"/><path clip-path="url(#clip_frame7_path_1)" d="M.7 12.505s3.2-.195 6.3 0c3.1.195 6.3 0 6.3 0v.995L.7 13.496v-.991z" fill="#f25268"/></g><g transform="translate(112)"><defs><clipPath id="clip_frame8_path_1"><path d="M13.1 3.6c-.5-1.4-1.6-2.3-2.9-2.3-.8 0-1.5.3-2 .9-.2.1-.7.6-1.2 1.3-.5-.8-1.1-1.3-1.1-1.3-.5-.5-1.3-.9-2-.9-1.4.1-2.5 1-2.9 2.3v.1c-1.6 4.6 6.1 9 6.1 9s7.6-4.5 6-9.1z"/></clipPath></defs><path d="M13.1 3.6c-.5-1.4-1.6-2.3-2.9-2.3-.8 0-1.5.3-2 .9-.2.1-.7.6-1.2 1.3-.5-.8-1.1-1.3-1.1-1.3-.5-.5-1.3-.9-2-.9-1.4.1-2.5 1-2.9 2.3v.1c-1.6 4.6 6.1 9 6.1 9s7.6-4.5 6-9.1z" fill="none" stroke="#000000" stroke-width=".75" stroke-miterlimit="10"/><path clip-path="url(#clip_frame8_path_1)" d="M.7 12.326s3.2-.23 6.3 0c3.1.23 6.3 0 6.3 0V13.5L.7 13.495v-1.169z" fill="#f25268"/></g><g transform="translate(126)"><defs><clipPath id="clip_frame9_path_1"><path d="M13.1 3.6c-.5-1.4-1.6-2.3-2.9-2.3-.8 0-1.5.3-2 .9-.2.1-.7.6-1.2 1.3-.5-.8-1.1-1.3-1.1-1.3-.5-.5-1.3-.9-2-.9-1.4.1-2.5 1-2.9 2.3v.1c-1.6 4.6 6.1 9 6.1 9s7.6-4.5 6-9.1z"/></clipPath></defs><path d="M13.1 3.6c-.5-1.4-1.6-2.3-2.9-2.3-.8 0-1.5.3-2 .9-.2.1-.7.6-1.2 1.3-.5-.8-1.1-1.3-1.1-1.3-.5-.5-1.3-.9-2-.9-1.4.1-2.5 1-2.9 2.3v.1c-1.6 4.6 6.1 9 6.1 9s7.6-4.5 6-9.1z" fill="none" stroke="#000000" stroke-width=".75" stroke-miterlimit="10"/><path clip-path="url(#clip_frame9_path_1)" d="M.7 12.109s3.2-.271 6.3 0c3.1.272 6.3 0 6.3 0V13.5L.7 13.493v-1.384z" fill="#f25268"/></g><g transform="translate(140)"><defs><clipPath id="clip_frame10_path_1"><path d="M13.1 3.6c-.5-1.4-1.6-2.3-2.9-2.3-.8 0-1.5.3-2 .9-.2.1-.7.6-1.2 1.3-.5-.8-1.1-1.3-1.1-1.3-.5-.5-1.3-.9-2-.9-1.4.1-2.5 1-2.9 2.3v.1c-1.6 4.6 6.1 9 6.1 9s7.6-4.5 6-9.1z"/></clipPath></defs><path d="M13.1 3.6c-.5-1.4-1.6-2.3-2.9-2.3-.8 0-1.5.3-2 .9-.2.1-.7.6-1.2 1.3-.5-.8-1.1-1.3-1.1-1.3-.5-.5-1.3-.9-2-.9-1.4.1-2.5 1-2.9 2.3v.1c-1.6 4.6 6.1 9 6.1 9s7.6-4.5 6-9.1z" fill="none" stroke="#000000" stroke-width=".75" stroke-miterlimit="10"/><path clip-path="url(#clip_frame10_path_1)" d="M.7 11.851s3.2-.321 6.3 0c3.1.321 6.3 0 6.3 0V13.5L.7 13.491v-1.64z" fill="#f25268"/></g><g transform="translate(154)"><defs><clipPath id="clip_frame11_path_1"><path d="M13.1 3.6c-.5-1.4-1.6-2.3-2.9-2.3-.8 0-1.5.3-2 .9-.2.1-.7.6-1.2 1.3-.5-.8-1.1-1.3-1.1-1.3-.5-.5-1.3-.9-2-.9-1.4.1-2.5 1-2.9 2.3v.1c-1.6 4.6 6.1 9 6.1 9s7.6-4.5 6-9.1z"/></clipPath></defs><path d="M13.1 3.6c-.5-1.4-1.6-2.3-2.9-2.3-.8 0-1.5.3-2 .9-.2.1-.7.6-1.2 1.3-.5-.8-1.1-1.3-1.1-1.3-.5-.5-1.3-.9-2-.9-1.4.1-2.5 1-2.9 2.3v.1c-1.6 4.6 6.1 9 6.1 9s7.6-4.5 6-9.1z" fill="none" stroke="#000000" stroke-width=".75" stroke-miterlimit="10"/><path clip-path="url(#clip_frame11_path_1)" d="M.7 11.547s3.2-.38 6.3 0c3.1.379 6.3 0 6.3 0V13.5L.7 13.489v-1.942z" fill="#f25268"/></g><g transform="translate(168)"><defs><clipPath id="clip_frame12_path_1"><path d="M13.1 3.6c-.5-1.4-1.6-2.3-2.9-2.3-.8 0-1.5.3-2 .9-.2.1-.7.6-1.2 1.3-.5-.8-1.1-1.3-1.1-1.3-.5-.5-1.3-.9-2-.9-1.4.1-2.5 1-2.9 2.3v.1c-1.6 4.6 6.1 9 6.1 9s7.6-4.5 6-9.1z"/></clipPath></defs><path d="M13.1 3.6c-.5-1.4-1.6-2.3-2.9-2.3-.8 0-1.5.3-2 .9-.2.1-.7.6-1.2 1.3-.5-.8-1.1-1.3-1.1-1.3-.5-.5-1.3-.9-2-.9-1.4.1-2.5 1-2.9 2.3v.1c-1.6 4.6 6.1 9 6.1 9s7.6-4.5 6-9.1z" fill="none" stroke="#000000" stroke-width=".75" stroke-miterlimit="10"/><path clip-path="url(#clip_frame12_path_1)" d="M.7 11.192s3.2-.449 6.3 0c3.1.448 6.3 0 6.3 0V13.5L.7 13.487v-2.295z" fill="#f25268"/></g><g transform="translate(182)"><defs><clipPath id="clip_frame13_path_1"><path d="M13.1 3.6c-.5-1.4-1.6-2.3-2.9-2.3-.8 0-1.5.3-2 .9-.2.1-.7.6-1.2 1.3-.5-.8-1.1-1.3-1.1-1.3-.5-.5-1.3-.9-2-.9-1.4.1-2.5 1-2.9 2.3v.1c-1.6 4.6 6.1 9 6.1 9s7.6-4.5 6-9.1z"/></clipPath></defs><path d="M13.1 3.6c-.5-1.4-1.6-2.3-2.9-2.3-.8 0-1.5.3-2 .9-.2.1-.7.6-1.2 1.3-.5-.8-1.1-1.3-1.1-1.3-.5-.5-1.3-.9-2-.9-1.4.1-2.5 1-2.9 2.3v.1c-1.6 4.6 6.1 9 6.1 9s7.6-4.5 6-9.1z" fill="none" stroke="#000000" stroke-width=".75" stroke-miterlimit="10"/><path clip-path="url(#clip_frame13_path_1)" d="M.7 10.783s3.2-.526 6.3 0c3.1.527 6.3 0 6.3 0V13.5L.7 13.484v-2.701z" fill="#f25268"/></g><g transform="translate(196)"><defs><clipPath id="clip_frame14_path_1"><path d="M13.1 3.6c-.5-1.4-1.6-2.3-2.9-2.3-.8 0-1.5.3-2 .9-.2.1-.7.6-1.2 1.3-.5-.8-1.1-1.3-1.1-1.3-.5-.5-1.3-.9-2-.9-1.4.1-2.5 1-2.9 2.3v.1c-1.6 4.6 6.1 9 6.1 9s7.6-4.5 6-9.1z"/></clipPath></defs><path d="M13.1 3.6c-.5-1.4-1.6-2.3-2.9-2.3-.8 0-1.5.3-2 .9-.2.1-.7.6-1.2 1.3-.5-.8-1.1-1.3-1.1-1.3-.5-.5-1.3-.9-2-.9-1.4.1-2.5 1-2.9 2.3v.1c-1.6 4.6 6.1 9 6.1 9s7.6-4.5 6-9.1z" fill="none" stroke="#000000" stroke-width=".75" stroke-miterlimit="10"/><path clip-path="url(#clip_frame14_path_1)" d="M.7 10.321s3.2-.616 6.3 0c3.1.616 6.3 0 6.3 0V13.5L.7 13.48v-3.159z" fill="#f25268"/></g><g transform="translate(210)"><defs><clipPath id="clip_frame15_path_1"><path d="M13.1 3.6c-.5-1.4-1.6-2.3-2.9-2.3-.8 0-1.5.3-2 .9-.2.1-.7.6-1.2 1.3-.5-.8-1.1-1.3-1.1-1.3-.5-.5-1.3-.9-2-.9-1.4.1-2.5 1-2.9 2.3v.1c-1.6 4.6 6.1 9 6.1 9s7.6-4.5 6-9.1z"/></clipPath></defs><path d="M13.1 3.6c-.5-1.4-1.6-2.3-2.9-2.3-.8 0-1.5.3-2 .9-.2.1-.7.6-1.2 1.3-.5-.8-1.1-1.3-1.1-1.3-.5-.5-1.3-.9-2-.9-1.4.1-2.5 1-2.9 2.3v.1c-1.6 4.6 6.1 9 6.1 9s7.6-4.5 6-9.1z" fill="none" stroke="#000000" stroke-width=".75" stroke-miterlimit="10"/><path clip-path="url(#clip_frame15_path_1)" d="M.7 9.806s3.2-.715 6.3 0c3.1.715 6.3 0 6.3 0V13.5L.7 13.476v-3.67z" fill="#f25268"/></g><g transform="translate(224)"><defs><clipPath id="clip_frame16_path_1"><path d="M13.1 3.6c-.5-1.4-1.6-2.3-2.9-2.3-.8 0-1.5.3-2 .9-.2.1-.7.6-1.2 1.3-.5-.8-1.1-1.3-1.1-1.3-.5-.5-1.3-.9-2-.9-1.4.1-2.5 1-2.9 2.3v.1c-1.6 4.6 6.1 9 6.1 9s7.6-4.5 6-9.1z"/></clipPath></defs><path d="M13.1 3.6c-.5-1.4-1.6-2.3-2.9-2.3-.8 0-1.5.3-2 .9-.2.1-.7.6-1.2 1.3-.5-.8-1.1-1.3-1.1-1.3-.5-.5-1.3-.9-2-.9-1.4.1-2.5 1-2.9 2.3v.1c-1.6 4.6 6.1 9 6.1 9s7.6-4.5 6-9.1z" fill="none" stroke="#000000" stroke-width=".75" stroke-miterlimit="10"/><path clip-path="url(#clip_frame16_path_1)" d="M.7 9.246s3.2-.823 6.3 0c3.1.823 6.3 0 6.3 0V13.5L.7 13.472V9.246z" fill="#f25268"/></g><g transform="translate(238)"><defs><clipPath id="clip_frame17_path_1"><path d="M13.1 3.6c-.5-1.4-1.6-2.3-2.9-2.3-.8 0-1.5.3-2 .9-.2.1-.7.6-1.2 1.3-.5-.8-1.1-1.3-1.1-1.3-.5-.5-1.3-.9-2-.9-1.4.1-2.5 1-2.9 2.3v.1c-1.6 4.6 6.1 9 6.1 9s7.6-4.5 6-9.1z"/></clipPath></defs><path d="M13.1 3.6c-.5-1.4-1.6-2.3-2.9-2.3-.8 0-1.5.3-2 .9-.2.1-.7.6-1.2 1.3-.5-.8-1.1-1.3-1.1-1.3-.5-.5-1.3-.9-2-.9-1.4.1-2.5 1-2.9 2.3v.1c-1.6 4.6 6.1 9 6.1 9s7.6-4.5 6-9.1z" fill="none" stroke="#000000" stroke-width=".75" stroke-miterlimit="10"/><path clip-path="url(#clip_frame17_path_1)" d="M.7 8.653s3.2-.937 6.3 0c3.1.937 6.3 0 6.3 0V13.5L.7 13.468V8.653z" fill="#f25268"/></g><g transform="translate(252)"><defs><clipPath id="clip_frame18_path_1"><path d="M13.1 3.6c-.5-1.4-1.6-2.3-2.9-2.3-.8 0-1.5.3-2 .9-.2.1-.7.6-1.2 1.3-.5-.8-1.1-1.3-1.1-1.3-.5-.5-1.3-.9-2-.9-1.4.1-2.5 1-2.9 2.3v.1c-1.6 4.6 6.1 9 6.1 9s7.6-4.5 6-9.1z"/></clipPath></defs><path d="M13.1 3.6c-.5-1.4-1.6-2.3-2.9-2.3-.8 0-1.5.3-2 .9-.2.1-.7.6-1.2 1.3-.5-.8-1.1-1.3-1.1-1.3-.5-.5-1.3-.9-2-.9-1.4.1-2.5 1-2.9 2.3v.1c-1.6 4.6 6.1 9 6.1 9s7.6-4.5 6-9.1z" fill="none" stroke="#000000" stroke-width=".75" stroke-miterlimit="10"/><path clip-path="url(#clip_frame18_path_1)" d="M.7 8.042s3.2-1.055 6.3 0c3.1 1.054 6.3 0 6.3 0V13.5L.7 13.463V8.042z" fill="#f25268"/></g><g transform="translate(266)"><defs><clipPath id="clip_frame19_path_1"><path d="M13.1 3.6c-.5-1.4-1.6-2.3-2.9-2.3-.8 0-1.5.3-2 .9-.2.1-.7.6-1.2 1.3-.5-.8-1.1-1.3-1.1-1.3-.5-.5-1.3-.9-2-.9-1.4.1-2.5 1-2.9 2.3v.1c-1.6 4.6 6.1 9 6.1 9s7.6-4.5 6-9.1z"/></clipPath></defs><path d="M13.1 3.6c-.5-1.4-1.6-2.3-2.9-2.3-.8 0-1.5.3-2 .9-.2.1-.7.6-1.2 1.3-.5-.8-1.1-1.3-1.1-1.3-.5-.5-1.3-.9-2-.9-1.4.1-2.5 1-2.9 2.3v.1c-1.6 4.6 6.1 9 6.1 9s7.6-4.5 6-9.1z" fill="none" stroke="#000000" stroke-width=".75" stroke-miterlimit="10"/><path clip-path="url(#clip_frame19_path_1)" d="M.7 7.428s3.2-1.173 6.3 0c3.1 1.173 6.3 0 6.3 0V13.5L.7 13.459V7.428z" fill="#f25268"/></g><g transform="translate(280)"><defs><clipPath id="clip_frame20_path_1"><path d="M13.1 3.6c-.5-1.4-1.6-2.3-2.9-2.3-.8 0-1.5.3-2 .9-.2.1-.7.6-1.2 1.3-.5-.8-1.1-1.3-1.1-1.3-.5-.5-1.3-.9-2-.9-1.4.1-2.5 1-2.9 2.3v.1c-1.6 4.6 6.1 9 6.1 9s7.6-4.5 6-9.1z"/></clipPath></defs><path d="M13.1 3.6c-.5-1.4-1.6-2.3-2.9-2.3-.8 0-1.5.3-2 .9-.2.1-.7.6-1.2 1.3-.5-.8-1.1-1.3-1.1-1.3-.5-.5-1.3-.9-2-.9-1.4.1-2.5 1-2.9 2.3v.1c-1.6 4.6 6.1 9 6.1 9s7.6-4.5 6-9.1z" fill="none" stroke="#000000" stroke-width=".75" stroke-miterlimit="10"/><path clip-path="url(#clip_frame20_path_1)" d="M.7 6.827s3.2-1.289 6.3 0c3.1 1.289 6.3 0 6.3 0V13.5L.7 13.454V6.827z" fill="#f25268"/></g><g transform="translate(294)"><defs><clipPath id="clip_frame21_path_1"><path d="M13.1 3.6c-.5-1.4-1.6-2.3-2.9-2.3-.8 0-1.5.3-2 .9-.2.1-.7.6-1.2 1.3-.5-.8-1.1-1.3-1.1-1.3-.5-.5-1.3-.9-2-.9-1.4.1-2.5 1-2.9 2.3v.1c-1.6 4.6 6.1 9 6.1 9s7.6-4.5 6-9.1z"/></clipPath></defs><path d="M13.1 3.6c-.5-1.4-1.6-2.3-2.9-2.3-.8 0-1.5.3-2 .9-.2.1-.7.6-1.2 1.3-.5-.8-1.1-1.3-1.1-1.3-.5-.5-1.3-.9-2-.9-1.4.1-2.5 1-2.9 2.3v.1c-1.6 4.6 6.1 9 6.1 9s7.6-4.5 6-9.1z" fill="none" stroke="#000000" stroke-width=".75" stroke-miterlimit="10"/><path clip-path="url(#clip_frame21_path_1)" d="M.7 6.25s3.2-1.4 6.3 0c3.1 1.4 6.3 0 6.3 0v7.25L.7 13.45v-7.2z" fill="#f25268"/></g><g transform="translate(308)"><defs><clipPath id="clip_frame22_path_1"><path d="M13.1 3.6c-.5-1.4-1.6-2.3-2.9-2.3-.8 0-1.5.3-2 .9-.2.1-.7.6-1.2 1.3-.5-.8-1.1-1.3-1.1-1.3-.5-.5-1.3-.9-2-.9-1.4.1-2.5 1-2.9 2.3v.1c-1.6 4.6 6.1 9 6.1 9s7.6-4.5 6-9.1z"/></clipPath></defs><path d="M13.1 3.6c-.5-1.4-1.6-2.3-2.9-2.3-.8 0-1.5.3-2 .9-.2.1-.7.6-1.2 1.3-.5-.8-1.1-1.3-1.1-1.3-.5-.5-1.3-.9-2-.9-1.4.1-2.5 1-2.9 2.3v.1c-1.6 4.6 6.1 9 6.1 9s7.6-4.5 6-9.1z" fill="none" stroke="#000000" stroke-width=".75" stroke-miterlimit="10"/><path clip-path="url(#clip_frame22_path_1)" d="M.7 5.704s3.2-1.505 6.3 0c3.1 1.505 6.3 0 6.3 0V13.5L.7 13.446V5.704z" fill="#f25268"/></g><g transform="translate(322)"><defs><clipPath id="clip_frame23_path_1"><path d="M13.1 3.6c-.5-1.4-1.6-2.3-2.9-2.3-.8 0-1.5.3-2 .9-.2.1-.7.6-1.2 1.3-.5-.8-1.1-1.3-1.1-1.3-.5-.5-1.3-.9-2-.9-1.4.1-2.5 1-2.9 2.3v.1c-1.6 4.6 6.1 9 6.1 9s7.6-4.5 6-9.1z"/></clipPath></defs><path d="M13.1 3.6c-.5-1.4-1.6-2.3-2.9-2.3-.8 0-1.5.3-2 .9-.2.1-.7.6-1.2 1.3-.5-.8-1.1-1.3-1.1-1.3-.5-.5-1.3-.9-2-.9-1.4.1-2.5 1-2.9 2.3v.1c-1.6 4.6 6.1 9 6.1 9s7.6-4.5 6-9.1z" fill="none" stroke="#000000" stroke-width=".75" stroke-miterlimit="10"/><path clip-path="url(#clip_frame23_path_1)" d="M.7 5.192s3.2-1.603 6.3 0c3.1 1.604 6.3 0 6.3 0V13.5L.7 13.442v-8.25z" fill="#f25268"/></g><g transform="translate(336)"><defs><clipPath id="clip_frame24_path_1"><path d="M13.1 3.6c-.5-1.4-1.6-2.3-2.9-2.3-.8 0-1.5.3-2 .9-.2.1-.7.6-1.2 1.3-.5-.8-1.1-1.3-1.1-1.3-.5-.5-1.3-.9-2-.9-1.4.1-2.5 1-2.9 2.3v.1c-1.6 4.6 6.1 9 6.1 9s7.6-4.5 6-9.1z"/></clipPath></defs><path d="M13.1 3.6c-.5-1.4-1.6-2.3-2.9-2.3-.8 0-1.5.3-2 .9-.2.1-.7.6-1.2 1.3-.5-.8-1.1-1.3-1.1-1.3-.5-.5-1.3-.9-2-.9-1.4.1-2.5 1-2.9 2.3v.1c-1.6 4.6 6.1 9 6.1 9s7.6-4.5 6-9.1z" fill="none" stroke="#000000" stroke-width=".75" stroke-miterlimit="10"/><path clip-path="url(#clip_frame24_path_1)" d="M.7 4.716s3.2-1.695 6.3 0c3.1 1.696 6.3 0 6.3 0V13.5L.7 13.439V4.716z" fill="#f25268"/></g><g transform="translate(350)"><defs><clipPath id="clip_frame25_path_1"><path d="M13.1 3.6c-.5-1.4-1.6-2.3-2.9-2.3-.8 0-1.5.3-2 .9-.2.1-.7.6-1.2 1.3-.5-.8-1.1-1.3-1.1-1.3-.5-.5-1.3-.9-2-.9-1.4.1-2.5 1-2.9 2.3v.1c-1.6 4.6 6.1 9 6.1 9s7.6-4.5 6-9.1z"/></clipPath></defs><path d="M13.1 3.6c-.5-1.4-1.6-2.3-2.9-2.3-.8 0-1.5.3-2 .9-.2.1-.7.6-1.2 1.3-.5-.8-1.1-1.3-1.1-1.3-.5-.5-1.3-.9-2-.9-1.4.1-2.5 1-2.9 2.3v.1c-1.6 4.6 6.1 9 6.1 9s7.6-4.5 6-9.1z" fill="none" stroke="#000000" stroke-width=".75" stroke-miterlimit="10"/><path clip-path="url(#clip_frame25_path_1)" d="M.7 4.276s3.2-1.781 6.3 0c3.1 1.78 6.3 0 6.3 0V13.5L.7 13.435V4.276z" fill="#f25268"/></g><g transform="translate(364)"><defs><clipPath id="clip_frame26_path_1"><path d="M13.1 3.6c-.5-1.4-1.6-2.3-2.9-2.3-.8 0-1.5.3-2 .9-.2.1-.7.6-1.2 1.3-.5-.8-1.1-1.3-1.1-1.3-.5-.5-1.3-.9-2-.9-1.4.1-2.5 1-2.9 2.3v.1c-1.6 4.6 6.1 9 6.1 9s7.6-4.5 6-9.1z"/></clipPath></defs><path d="M13.1 3.6c-.5-1.4-1.6-2.3-2.9-2.3-.8 0-1.5.3-2 .9-.2.1-.7.6-1.2 1.3-.5-.8-1.1-1.3-1.1-1.3-.5-.5-1.3-.9-2-.9-1.4.1-2.5 1-2.9 2.3v.1c-1.6 4.6 6.1 9 6.1 9s7.6-4.5 6-9.1z" fill="none" stroke="#000000" stroke-width=".75" stroke-miterlimit="10"/><path clip-path="url(#clip_frame26_path_1)" d="M.7 3.868s3.2-1.858 6.3 0c3.1 1.859 6.3 0 6.3 0V13.5L.7 13.432V3.868z" fill="#f25268"/></g><g transform="translate(378)"><defs><clipPath id="clip_frame27_path_1"><path d="M13.1 3.6c-.5-1.4-1.6-2.3-2.9-2.3-.8 0-1.5.3-2 .9-.2.1-.7.6-1.2 1.3-.5-.8-1.1-1.3-1.1-1.3-.5-.5-1.3-.9-2-.9-1.4.1-2.5 1-2.9 2.3v.1c-1.6 4.6 6.1 9 6.1 9s7.6-4.5 6-9.1z"/></clipPath></defs><path d="M13.1 3.6c-.5-1.4-1.6-2.3-2.9-2.3-.8 0-1.5.3-2 .9-.2.1-.7.6-1.2 1.3-.5-.8-1.1-1.3-1.1-1.3-.5-.5-1.3-.9-2-.9-1.4.1-2.5 1-2.9 2.3v.1c-1.6 4.6 6.1 9 6.1 9s7.6-4.5 6-9.1z" fill="none" stroke="#000000" stroke-width=".75" stroke-miterlimit="10"/><path clip-path="url(#clip_frame27_path_1)" d="M.7 3.492s3.2-1.931 6.3 0c3.1 1.931 6.3 0 6.3 0V13.5L.7 13.43V3.492z" fill="#f25268"/></g><g transform="translate(392)"><defs><clipPath id="clip_frame28_path_1"><path d="M13.1 3.6c-.5-1.4-1.6-2.3-2.9-2.3-.8 0-1.5.3-2 .9-.2.1-.7.6-1.2 1.3-.5-.8-1.1-1.3-1.1-1.3-.5-.5-1.3-.9-2-.9-1.4.1-2.5 1-2.9 2.3v.1c-1.6 4.6 6.1 9 6.1 9s7.6-4.5 6-9.1z"/></clipPath></defs><path d="M13.1 3.6c-.5-1.4-1.6-2.3-2.9-2.3-.8 0-1.5.3-2 .9-.2.1-.7.6-1.2 1.3-.5-.8-1.1-1.3-1.1-1.3-.5-.5-1.3-.9-2-.9-1.4.1-2.5 1-2.9 2.3v.1c-1.6 4.6 6.1 9 6.1 9s7.6-4.5 6-9.1z" fill="none" stroke="#000000" stroke-width=".75" stroke-miterlimit="10"/><path clip-path="url(#clip_frame28_path_1)" d="M.7 3.145s3.2-1.997 6.3 0c3.1 1.998 6.3 0 6.3 0V13.5L.7 13.427V3.145z" fill="#f25268"/></g><g transform="translate(406)"><defs><clipPath id="clip_frame29_path_1"><path d="M13.1 3.6c-.5-1.4-1.6-2.3-2.9-2.3-.8 0-1.5.3-2 .9-.2.1-.7.6-1.2 1.3-.5-.8-1.1-1.3-1.1-1.3-.5-.5-1.3-.9-2-.9-1.4.1-2.5 1-2.9 2.3v.1c-1.6 4.6 6.1 9 6.1 9s7.6-4.5 6-9.1z"/></clipPath></defs><path d="M13.1 3.6c-.5-1.4-1.6-2.3-2.9-2.3-.8 0-1.5.3-2 .9-.2.1-.7.6-1.2 1.3-.5-.8-1.1-1.3-1.1-1.3-.5-.5-1.3-.9-2-.9-1.4.1-2.5 1-2.9 2.3v.1c-1.6 4.6 6.1 9 6.1 9s7.6-4.5 6-9.1z" fill="none" stroke="#000000" stroke-width=".75" stroke-miterlimit="10"/><path clip-path="url(#clip_frame29_path_1)" d="M.7 2.825s3.2-2.059 6.3 0c3.1 2.06 6.3 0 6.3 0V13.5L.7 13.425v-10.6z" fill="#f25268"/></g><g transform="translate(420)"><defs><clipPath id="clip_frame30_path_1"><path d="M13.1 3.6c-.5-1.4-1.6-2.3-2.9-2.3-.8 0-1.5.3-2 .9-.2.1-.7.6-1.2 1.3-.5-.8-1.1-1.3-1.1-1.3-.5-.5-1.3-.9-2-.9-1.4.1-2.5 1-2.9 2.3v.1c-1.6 4.6 6.1 9 6.1 9s7.6-4.5 6-9.1z"/></clipPath></defs><path d="M13.1 3.6c-.5-1.4-1.6-2.3-2.9-2.3-.8 0-1.5.3-2 .9-.2.1-.7.6-1.2 1.3-.5-.8-1.1-1.3-1.1-1.3-.5-.5-1.3-.9-2-.9-1.4.1-2.5 1-2.9 2.3v.1c-1.6 4.6 6.1 9 6.1 9s7.6-4.5 6-9.1z" fill="none" stroke="#000000" stroke-width=".75" stroke-miterlimit="10"/><path clip-path="url(#clip_frame30_path_1)" d="M.7 2.53S3.9.413 7 2.53c3.1 2.116 6.3 0 6.3 0V13.5L.7 13.422V2.53z" fill="#f25268"/></g><g transform="translate(434)"><defs><clipPath id="clip_frame31_path_1"><path d="M13.1 3.6c-.5-1.4-1.6-2.3-2.9-2.3-.8 0-1.5.3-2 .9-.2.1-.7.6-1.2 1.3-.5-.8-1.1-1.3-1.1-1.3-.5-.5-1.3-.9-2-.9-1.4.1-2.5 1-2.9 2.3v.1c-1.6 4.6 6.1 9 6.1 9s7.6-4.5 6-9.1z"/></clipPath></defs><path d="M13.1 3.6c-.5-1.4-1.6-2.3-2.9-2.3-.8 0-1.5.3-2 .9-.2.1-.7.6-1.2 1.3-.5-.8-1.1-1.3-1.1-1.3-.5-.5-1.3-.9-2-.9-1.4.1-2.5 1-2.9 2.3v.1c-1.6 4.6 6.1 9 6.1 9s7.6-4.5 6-9.1z" fill="none" stroke="#000000" stroke-width=".75" stroke-miterlimit="10"/><path clip-path="url(#clip_frame31_path_1)" d="M.7 2.257s3.2-2.169 6.3 0c3.1 2.169 6.3 0 6.3 0V13.5L.7 13.42V2.257z" fill="#f25268"/></g><g transform="translate(448)"><defs><clipPath id="clip_frame32_path_1"><path d="M13.1 3.6c-.5-1.4-1.6-2.3-2.9-2.3-.8 0-1.5.3-2 .9-.2.1-.7.6-1.2 1.3-.5-.8-1.1-1.3-1.1-1.3-.5-.5-1.3-.9-2-.9-1.4.1-2.5 1-2.9 2.3v.1c-1.6 4.6 6.1 9 6.1 9s7.6-4.5 6-9.1z"/></clipPath></defs><path d="M13.1 3.6c-.5-1.4-1.6-2.3-2.9-2.3-.8 0-1.5.3-2 .9-.2.1-.7.6-1.2 1.3-.5-.8-1.1-1.3-1.1-1.3-.5-.5-1.3-.9-2-.9-1.4.1-2.5 1-2.9 2.3v.1c-1.6 4.6 6.1 9 6.1 9s7.6-4.5 6-9.1z" fill="none" stroke="#000000" stroke-width=".75" stroke-miterlimit="10"/><path clip-path="url(#clip_frame32_path_1)" d="M.7 2.005s3.2-2.217 6.3 0c3.1 2.218 6.3 0 6.3 0V13.5L.7 13.419V2.005z" fill="#f25268"/></g><g transform="translate(462)"><defs><clipPath id="clip_frame33_path_1"><path d="M13.1 3.6c-.5-1.4-1.6-2.3-2.9-2.3-.8 0-1.5.3-2 .9-.2.1-.7.6-1.2 1.3-.5-.8-1.1-1.3-1.1-1.3-.5-.5-1.3-.9-2-.9-1.4.1-2.5 1-2.9 2.3v.1c-1.6 4.6 6.1 9 6.1 9s7.6-4.5 6-9.1z"/></clipPath></defs><path d="M13.1 3.6c-.5-1.4-1.6-2.3-2.9-2.3-.8 0-1.5.3-2 .9-.2.1-.7.6-1.2 1.3-.5-.8-1.1-1.3-1.1-1.3-.5-.5-1.3-.9-2-.9-1.4.1-2.5 1-2.9 2.3v.1c-1.6 4.6 6.1 9 6.1 9s7.6-4.5 6-9.1z" fill="none" stroke="#000000" stroke-width=".75" stroke-miterlimit="10"/><path clip-path="url(#clip_frame33_path_1)" d="M.7 1.772s3.2-2.262 6.3 0c3.1 2.263 6.3 0 6.3 0V13.5L.7 13.417V1.772z" fill="#f25268"/></g><g transform="translate(476)"><defs><clipPath id="clip_frame34_path_1"><path d="M13.1 3.6c-.5-1.4-1.6-2.3-2.9-2.3-.8 0-1.5.3-2 .9-.2.1-.7.6-1.2 1.3-.5-.8-1.1-1.3-1.1-1.3-.5-.5-1.3-.9-2-.9-1.4.1-2.5 1-2.9 2.3v.1c-1.6 4.6 6.1 9 6.1 9s7.6-4.5 6-9.1z"/></clipPath></defs><path d="M13.1 3.6c-.5-1.4-1.6-2.3-2.9-2.3-.8 0-1.5.3-2 .9-.2.1-.7.6-1.2 1.3-.5-.8-1.1-1.3-1.1-1.3-.5-.5-1.3-.9-2-.9-1.4.1-2.5 1-2.9 2.3v.1c-1.6 4.6 6.1 9 6.1 9s7.6-4.5 6-9.1z" fill="none" stroke="#000000" stroke-width=".75" stroke-miterlimit="10"/><path clip-path="url(#clip_frame34_path_1)" d="M.7 1.557s3.2-2.304 6.3 0c3.1 2.304 6.3 0 6.3 0V13.5L.7 13.415V1.557z" fill="#f25268"/></g><g transform="translate(490)"><defs><clipPath id="clip_frame35_path_1"><path d="M13.1 3.6c-.5-1.4-1.6-2.3-2.9-2.3-.8 0-1.5.3-2 .9-.2.1-.7.6-1.2 1.3-.5-.8-1.1-1.3-1.1-1.3-.5-.5-1.3-.9-2-.9-1.4.1-2.5 1-2.9 2.3v.1c-1.6 4.6 6.1 9 6.1 9s7.6-4.5 6-9.1z"/></clipPath></defs><path d="M13.1 3.6c-.5-1.4-1.6-2.3-2.9-2.3-.8 0-1.5.3-2 .9-.2.1-.7.6-1.2 1.3-.5-.8-1.1-1.3-1.1-1.3-.5-.5-1.3-.9-2-.9-1.4.1-2.5 1-2.9 2.3v.1c-1.6 4.6 6.1 9 6.1 9s7.6-4.5 6-9.1z" fill="none" stroke="#000000" stroke-width=".75" stroke-miterlimit="10"/><path clip-path="url(#clip_frame35_path_1)" d="M.7 1.358s3.2-2.342 6.3 0c3.1 2.342 6.3 0 6.3 0V13.5L.7 13.414V1.358z" fill="#f25268"/></g><g transform="translate(504)"><defs><clipPath id="clip_frame36_path_1"><path d="M13.1 3.6c-.5-1.4-1.6-2.3-2.9-2.3-.8 0-1.5.3-2 .9-.2.1-.7.6-1.2 1.3-.5-.8-1.1-1.3-1.1-1.3-.5-.5-1.3-.9-2-.9-1.4.1-2.5 1-2.9 2.3v.1c-1.6 4.6 6.1 9 6.1 9s7.6-4.5 6-9.1z"/></clipPath></defs><path d="M13.1 3.6c-.5-1.4-1.6-2.3-2.9-2.3-.8 0-1.5.3-2 .9-.2.1-.7.6-1.2 1.3-.5-.8-1.1-1.3-1.1-1.3-.5-.5-1.3-.9-2-.9-1.4.1-2.5 1-2.9 2.3v.1c-1.6 4.6 6.1 9 6.1 9s7.6-4.5 6-9.1z" fill="none" stroke="#000000" stroke-width=".75" stroke-miterlimit="10"/><path clip-path="url(#clip_frame36_path_1)" d="M.7 1.174s3.2-2.377 6.3 0c3.1 2.378 6.3 0 6.3 0V13.5L.7 13.412V1.174z" fill="#f25268"/></g><g transform="translate(518)"><defs><clipPath id="clip_frame37_path_1"><path d="M13.1 3.6c-.5-1.4-1.6-2.3-2.9-2.3-.8 0-1.5.3-2 .9-.2.1-.7.6-1.2 1.3-.5-.8-1.1-1.3-1.1-1.3-.5-.5-1.3-.9-2-.9-1.4.1-2.5 1-2.9 2.3v.1c-1.6 4.6 6.1 9 6.1 9s7.6-4.5 6-9.1z"/></clipPath></defs><path d="M13.1 3.6c-.5-1.4-1.6-2.3-2.9-2.3-.8 0-1.5.3-2 .9-.2.1-.7.6-1.2 1.3-.5-.8-1.1-1.3-1.1-1.3-.5-.5-1.3-.9-2-.9-1.4.1-2.5 1-2.9 2.3v.1c-1.6 4.6 6.1 9 6.1 9s7.6-4.5 6-9.1z" fill="none" stroke="#000000" stroke-width=".75" stroke-miterlimit="10"/><path clip-path="url(#clip_frame37_path_1)" d="M.7 1.005s3.2-2.411 6.3 0c3.1 2.41 6.3 0 6.3 0V13.5L.7 13.411V1.005z" fill="#f25268"/></g><g transform="translate(532)"><defs><clipPath id="clip_frame38_path_1"><path d="M13.1 3.6c-.5-1.4-1.6-2.3-2.9-2.3-.8 0-1.5.3-2 .9-.2.1-.7.6-1.2 1.3-.5-.8-1.1-1.3-1.1-1.3-.5-.5-1.3-.9-2-.9-1.4.1-2.5 1-2.9 2.3v.1c-1.6 4.6 6.1 9 6.1 9s7.6-4.5 6-9.1z"/></clipPath></defs><path d="M13.1 3.6c-.5-1.4-1.6-2.3-2.9-2.3-.8 0-1.5.3-2 .9-.2.1-.7.6-1.2 1.3-.5-.8-1.1-1.3-1.1-1.3-.5-.5-1.3-.9-2-.9-1.4.1-2.5 1-2.9 2.3v.1c-1.6 4.6 6.1 9 6.1 9s7.6-4.5 6-9.1z" fill="none" stroke="#000000" stroke-width=".75" stroke-miterlimit="10"/><path clip-path="url(#clip_frame38_path_1)" d="M.7.848s3.2-2.441 6.3 0c3.1 2.44 6.3 0 6.3 0V13.5L.7 13.41V.848z" fill="#f25268"/></g><g transform="translate(546)"><defs><clipPath id="clip_frame39_path_1"><path d="M13.1 3.6c-.5-1.4-1.6-2.3-2.9-2.3-.8 0-1.5.3-2 .9-.2.1-.7.6-1.2 1.3-.5-.8-1.1-1.3-1.1-1.3-.5-.5-1.3-.9-2-.9-1.4.1-2.5 1-2.9 2.3v.1c-1.6 4.6 6.1 9 6.1 9s7.6-4.5 6-9.1z"/></clipPath></defs><path d="M13.1 3.6c-.5-1.4-1.6-2.3-2.9-2.3-.8 0-1.5.3-2 .9-.2.1-.7.6-1.2 1.3-.5-.8-1.1-1.3-1.1-1.3-.5-.5-1.3-.9-2-.9-1.4.1-2.5 1-2.9 2.3v.1c-1.6 4.6 6.1 9 6.1 9s7.6-4.5 6-9.1z" fill="none" stroke="#000000" stroke-width=".75" stroke-miterlimit="10"/><path clip-path="url(#clip_frame39_path_1)" d="M.7.703s3.2-2.468 6.3 0c3.1 2.468 6.3 0 6.3 0V13.5L.7 13.409V.703z" fill="#f25268"/></g><g transform="translate(560)"><defs><clipPath id="clip_frame40_path_1"><path d="M13.1 3.6c-.5-1.4-1.6-2.3-2.9-2.3-.8 0-1.5.3-2 .9-.2.1-.7.6-1.2 1.3-.5-.8-1.1-1.3-1.1-1.3-.5-.5-1.3-.9-2-.9-1.4.1-2.5 1-2.9 2.3v.1c-1.6 4.6 6.1 9 6.1 9s7.6-4.5 6-9.1z"/></clipPath></defs><path d="M13.1 3.6c-.5-1.4-1.6-2.3-2.9-2.3-.8 0-1.5.3-2 .9-.2.1-.7.6-1.2 1.3-.5-.8-1.1-1.3-1.1-1.3-.5-.5-1.3-.9-2-.9-1.4.1-2.5 1-2.9 2.3v.1c-1.6 4.6 6.1 9 6.1 9s7.6-4.5 6-9.1z" fill="none" stroke="#000000" stroke-width=".75" stroke-miterlimit="10"/><path clip-path="url(#clip_frame40_path_1)" d="M.7.57s3.2-2.494 6.3 0c3.1 2.494 6.3 0 6.3 0V13.5L.7 13.408V.57z" fill="#f25268"/></g><g transform="translate(574)"><defs><clipPath id="clip_frame41_path_1"><path d="M13.1 3.6c-.5-1.4-1.6-2.3-2.9-2.3-.8 0-1.5.3-2 .9-.2.1-.7.6-1.2 1.3-.5-.8-1.1-1.3-1.1-1.3-.5-.5-1.3-.9-2-.9-1.4.1-2.5 1-2.9 2.3v.1c-1.6 4.6 6.1 9 6.1 9s7.6-4.5 6-9.1z"/></clipPath></defs><path d="M13.1 3.6c-.5-1.4-1.6-2.3-2.9-2.3-.8 0-1.5.3-2 .9-.2.1-.7.6-1.2 1.3-.5-.8-1.1-1.3-1.1-1.3-.5-.5-1.3-.9-2-.9-1.4.1-2.5 1-2.9 2.3v.1c-1.6 4.6 6.1 9 6.1 9s7.6-4.5 6-9.1z" fill="none" stroke="#000000" stroke-width=".75" stroke-miterlimit="10"/><path clip-path="url(#clip_frame41_path_1)" d="M.7.447s3.2-2.518 6.3 0c3.1 2.517 6.3 0 6.3 0V13.5L.7 13.407V.447z" fill="#f25268"/></g><g transform="translate(588)"><defs><clipPath id="clip_frame42_path_1"><path d="M13.1 3.6c-.5-1.4-1.6-2.3-2.9-2.3-.8 0-1.5.3-2 .9-.2.1-.7.6-1.2 1.3-.5-.8-1.1-1.3-1.1-1.3-.5-.5-1.3-.9-2-.9-1.4.1-2.5 1-2.9 2.3v.1c-1.6 4.6 6.1 9 6.1 9s7.6-4.5 6-9.1z"/></clipPath></defs><path d="M13.1 3.6c-.5-1.4-1.6-2.3-2.9-2.3-.8 0-1.5.3-2 .9-.2.1-.7.6-1.2 1.3-.5-.8-1.1-1.3-1.1-1.3-.5-.5-1.3-.9-2-.9-1.4.1-2.5 1-2.9 2.3v.1c-1.6 4.6 6.1 9 6.1 9s7.6-4.5 6-9.1z" fill="none" stroke="#000000" stroke-width=".75" stroke-miterlimit="10"/><path clip-path="url(#clip_frame42_path_1)" d="M.7.334s3.2-2.54 6.3 0c3.1 2.539 6.3 0 6.3 0V13.5L.7 13.406V.334z" fill="#f25268"/></g><g transform="translate(602)"><defs><clipPath id="clip_frame43_path_1"><path d="M13.1 3.6c-.5-1.4-1.6-2.3-2.9-2.3-.8 0-1.5.3-2 .9-.2.1-.7.6-1.2 1.3-.5-.8-1.1-1.3-1.1-1.3-.5-.5-1.3-.9-2-.9-1.4.1-2.5 1-2.9 2.3v.1c-1.6 4.6 6.1 9 6.1 9s7.6-4.5 6-9.1z"/></clipPath></defs><path d="M13.1 3.6c-.5-1.4-1.6-2.3-2.9-2.3-.8 0-1.5.3-2 .9-.2.1-.7.6-1.2 1.3-.5-.8-1.1-1.3-1.1-1.3-.5-.5-1.3-.9-2-.9-1.4.1-2.5 1-2.9 2.3v.1c-1.6 4.6 6.1 9 6.1 9s7.6-4.5 6-9.1z" fill="none" stroke="#000000" stroke-width=".75" stroke-miterlimit="10"/><path clip-path="url(#clip_frame43_path_1)" d="M.7.23s3.2-2.559 6.3 0c3.1 2.559 6.3 0 6.3 0V13.5L.7 13.405V.23z" fill="#f25268"/></g><g transform="translate(616)"><defs><clipPath id="clip_frame44_path_1"><path d="M13.1 3.6c-.5-1.4-1.6-2.3-2.9-2.3-.8 0-1.5.3-2 .9-.2.1-.7.6-1.2 1.3-.5-.8-1.1-1.3-1.1-1.3-.5-.5-1.3-.9-2-.9-1.4.1-2.5 1-2.9 2.3v.1c-1.6 4.6 6.1 9 6.1 9s7.6-4.5 6-9.1z"/></clipPath></defs><path d="M13.1 3.6c-.5-1.4-1.6-2.3-2.9-2.3-.8 0-1.5.3-2 .9-.2.1-.7.6-1.2 1.3-.5-.8-1.1-1.3-1.1-1.3-.5-.5-1.3-.9-2-.9-1.4.1-2.5 1-2.9 2.3v.1c-1.6 4.6 6.1 9 6.1 9s7.6-4.5 6-9.1z" fill="none" stroke="#000000" stroke-width=".75" stroke-miterlimit="10"/><path clip-path="url(#clip_frame44_path_1)" d="M.7.135s3.2-2.578 6.3 0c3.1 2.578 6.3 0 6.3 0V13.5L.7 13.405V.135z" fill="#f25268"/></g><g transform="translate(630)"><defs><clipPath id="clip_frame45_path_1"><path d="M13.1 3.6c-.5-1.4-1.6-2.3-2.9-2.3-.8 0-1.5.3-2 .9-.2.1-.7.6-1.2 1.3-.5-.8-1.1-1.3-1.1-1.3-.5-.5-1.3-.9-2-.9-1.4.1-2.5 1-2.9 2.3v.1c-1.6 4.6 6.1 9 6.1 9s7.6-4.5 6-9.1z"/></clipPath></defs><path d="M13.1 3.6c-.5-1.4-1.6-2.3-2.9-2.3-.8 0-1.5.3-2 .9-.2.1-.7.6-1.2 1.3-.5-.8-1.1-1.3-1.1-1.3-.5-.5-1.3-.9-2-.9-1.4.1-2.5 1-2.9 2.3v.1c-1.6 4.6 6.1 9 6.1 9s7.6-4.5 6-9.1z" fill="none" stroke="#000000" stroke-width=".75" stroke-miterlimit="10"/><path clip-path="url(#clip_frame45_path_1)" d="M.7.049s3.2-2.595 6.3 0c3.1 2.594 6.3 0 6.3 0V13.5L.7 13.404V.049z" fill="#f25268"/></g><g transform="translate(644)"><defs><clipPath id="clip_frame46_path_1"><path d="M13.1 3.6c-.5-1.4-1.6-2.3-2.9-2.3-.8 0-1.5.3-2 .9-.2.1-.7.6-1.2 1.3-.5-.8-1.1-1.3-1.1-1.3-.5-.5-1.3-.9-2-.9-1.4.1-2.5 1-2.9 2.3v.1c-1.6 4.6 6.1 9 6.1 9s7.6-4.5 6-9.1z"/></clipPath></defs><path d="M13.1 3.6c-.5-1.4-1.6-2.3-2.9-2.3-.8 0-1.5.3-2 .9-.2.1-.7.6-1.2 1.3-.5-.8-1.1-1.3-1.1-1.3-.5-.5-1.3-.9-2-.9-1.4.1-2.5 1-2.9 2.3v.1c-1.6 4.6 6.1 9 6.1 9s7.6-4.5 6-9.1z" fill="none" stroke="#000000" stroke-width=".75" stroke-miterlimit="10"/><path clip-path="url(#clip_frame46_path_1)" d="M.7-.03s3.2-2.61 6.3 0c3.1 2.609 6.3 0 6.3 0V13.5L.7 13.403V-.03z" fill="#f25268"/></g><g transform="translate(658)"><defs><clipPath id="clip_frame47_path_1"><path d="M13.1 3.6c-.5-1.4-1.6-2.3-2.9-2.3-.8 0-1.5.3-2 .9-.2.1-.7.6-1.2 1.3-.5-.8-1.1-1.3-1.1-1.3-.5-.5-1.3-.9-2-.9-1.4.1-2.5 1-2.9 2.3v.1c-1.6 4.6 6.1 9 6.1 9s7.6-4.5 6-9.1z"/></clipPath></defs><path d="M13.1 3.6c-.5-1.4-1.6-2.3-2.9-2.3-.8 0-1.5.3-2 .9-.2.1-.7.6-1.2 1.3-.5-.8-1.1-1.3-1.1-1.3-.5-.5-1.3-.9-2-.9-1.4.1-2.5 1-2.9 2.3v.1c-1.6 4.6 6.1 9 6.1 9s7.6-4.5 6-9.1z" fill="none" stroke="#000000" stroke-width=".75" stroke-miterlimit="10"/><path clip-path="url(#clip_frame47_path_1)" d="M.7-.102s3.2-2.623 6.3 0c3.1 2.624 6.3 0 6.3 0V13.5L.7 13.403V-.102z" fill="#f25268"/></g><g transform="translate(672)"><defs><clipPath id="clip_frame48_path_1"><path d="M13.1 3.6c-.5-1.4-1.6-2.3-2.9-2.3-.8 0-1.5.3-2 .9-.2.1-.7.6-1.2 1.3-.5-.8-1.1-1.3-1.1-1.3-.5-.5-1.3-.9-2-.9-1.4.1-2.5 1-2.9 2.3v.1c-1.6 4.6 6.1 9 6.1 9s7.6-4.5 6-9.1z"/></clipPath></defs><path d="M13.1 3.6c-.5-1.4-1.6-2.3-2.9-2.3-.8 0-1.5.3-2 .9-.2.1-.7.6-1.2 1.3-.5-.8-1.1-1.3-1.1-1.3-.5-.5-1.3-.9-2-.9-1.4.1-2.5 1-2.9 2.3v.1c-1.6 4.6 6.1 9 6.1 9s7.6-4.5 6-9.1z" fill="none" stroke="#000000" stroke-width=".75" stroke-miterlimit="10"/><path clip-path="url(#clip_frame48_path_1)" d="M.7-.166s3.2-2.636 6.3 0c3.1 2.636 6.3 0 6.3 0V13.5L.7 13.402V-.166z" fill="#f25268"/></g></svg>