<?xml version="1.0" encoding="utf-8"?>
<!-- Generator: Adobe Illustrator 22.1.0, SVG Export Plug-In . SVG Version: 6.00 Build 0)  -->
<svg version="1.1" id="Слой_1" xmlns="http://www.w3.org/2000/svg" xmlns:xlink="http://www.w3.org/1999/xlink" x="0px" y="0px"
	 viewBox="0 0 128 128" style="enable-background:new 0 0 128 128;" xml:space="preserve">
<style type="text/css">
	.st0{fill:none;stroke:#595959;stroke-width:5;stroke-miterlimit:10;}
	.st1{fill:#FFFFFF;stroke:#595959;stroke-width:3;stroke-miterlimit:10;}
</style>
<path class="st0" d="M121,103.4H7.6c-0.6,0-1-0.5-1-1V25.6c0-0.5,0.4-1,1-1H121c0.6,0,1,0.5,1,1v76.7
	C122,102.9,121.6,103.4,121,103.4z"/>
<rect x="25.1" y="40.3" transform="matrix(-1 -1.224647e-16 1.224647e-16 -1 79.5944 127.327)" class="st1" width="29.4" height="46.7"/>
<rect x="74.1" y="40.3" transform="matrix(-1 -1.224647e-16 1.224647e-16 -1 177.5943 127.327)" class="st1" width="29.4" height="46.7"/>
<line class="st1" x1="6.6" y1="48.2" x2="25.1" y2="48.2"/>
<line class="st1" x1="54.5" y1="48.2" x2="74.1" y2="48.2"/>
<line class="st1" x1="103.5" y1="48.2" x2="122" y2="48.2"/>
</svg>
