<?xml version="1.0" encoding="utf-8"?>
<!-- Generator: Adobe Illustrator 22.1.0, SVG Export Plug-In . SVG Version: 6.00 Build 0)  -->
<svg version="1.1" id="Слой_1" xmlns="http://www.w3.org/2000/svg" xmlns:xlink="http://www.w3.org/1999/xlink" x="0px" y="0px"
	 viewBox="0 0 128 128" style="enable-background:new 0 0 128 128;" xml:space="preserve">
<style type="text/css">
	.st0{fill:none;stroke:#595959;stroke-width:5;stroke-miterlimit:10;}
	.st1{fill:#FFFFFF;stroke:#595959;stroke-width:3;stroke-miterlimit:10;}
	.st2{fill:#595959;}
	.st3{fill:none;stroke:#595959;stroke-width:2;stroke-miterlimit:10;}
</style>
<path class="st0" d="M122,25.6v76.7c0,0.5-0.5,1-1,1H7.6c-0.5,0-1-0.5-1-1V25.6c0-0.6,0.5-1,1-1H121C121.5,24.6,122,25.1,122,25.6z"
	/>
<rect x="16.1" y="33.9" transform="matrix(-1 -1.224647e-16 1.224647e-16 -1 59.5943 111.327)" class="st1" width="27.4" height="43.5"/>
<path class="st1" d="M108.5,77.3h-65V33.8h65c2.2,0,4,1.8,4,4v35.5C112.5,75.4,110.7,77.3,108.5,77.3z"/>
<g>
	<g>
		<path class="st2" d="M28.5,66.1c0,0-0.5-0.1-1.4-0.3s-1.8-0.5-2.6-0.9c-0.8-0.4-1.5-0.9-2.2-1.5l1.9-2.3c0.8,0.7,1.7,1.2,2.7,1.6
			s2,0.5,3.2,0.5c1.5,0,2.7-0.3,3.6-0.9s1.3-1.4,1.3-2.4v0c0-0.7-0.2-1.3-0.6-1.8s-0.9-0.8-1.5-1s-1.4-0.4-2.4-0.6c0,0-0.1,0-0.1,0
			s-0.1,0-0.1,0l-0.2,0c-1.4-0.2-2.6-0.5-3.5-0.8s-1.7-0.9-2.3-1.7s-1-2-1-3.5v0c0-1.3,0.3-2.4,0.9-3.4s1.5-1.6,2.6-2.1
			s2.5-0.7,4.1-0.7c0.8,0,1.5,0.1,2.2,0.2s1.5,0.4,2.2,0.7s1.4,0.7,2.1,1.2l-1.7,2.4c-0.8-0.6-1.6-1-2.4-1.3s-1.6-0.4-2.4-0.4
			c-1.5,0-2.6,0.3-3.4,0.9s-1.2,1.4-1.2,2.5v0c0,0.7,0.2,1.3,0.6,1.7s0.9,0.7,1.6,0.9s1.5,0.4,2.6,0.6c0,0,0.1,0,0.1,0s0.1,0,0.1,0
			c0,0,0.1,0,0.2,0s0.1,0,0.2,0c1.3,0.3,2.4,0.6,3.2,0.9s1.6,0.9,2.2,1.8s0.9,1.9,0.9,3.3v0c0,1.3-0.3,2.4-0.9,3.3s-1.5,1.6-2.7,2.1
			s-2.6,0.7-4.2,0.7C29,66.1,28.5,66.1,28.5,66.1z"/>
	</g>
</g>
<rect x="52" y="44" class="st3" width="16" height="24"/>
<rect x="76" y="44" class="st3" width="16" height="24"/>
<polyline class="st3" points="112.5,68 100,68 100,44 112.5,44 "/>
<polyline class="st1" points="16.1,100.8 16.1,86.3 43.5,86.3 43.5,100.8 "/>
<path class="st1" d="M112.5,100.8v-4.4v-6.3c0-2.2-1.8-4-4-4h-65v0.1v14.5"/>
<polyline class="st3" points="52,100.8 52,96.4 68,96.4 68,100.8 "/>
<polyline class="st3" points="76,100.8 76,96.4 92,96.4 92,100.8 "/>
<polyline class="st3" points="100,100.8 100,96.4 112.5,96.4 "/>
<g>
	<path class="st2" d="M32,93.5h-2.5l-3.6,9.8h2.9l2-5.7l2,5.7h2.9L32,93.5z"/>
</g>
</svg>
