<?xml version="1.0" encoding="utf-8"?>
<!-- Generator: Adobe Illustrator 22.1.0, SVG Export Plug-In . SVG Version: 6.00 Build 0)  -->
<svg version="1.1" id="Слой_1" xmlns="http://www.w3.org/2000/svg" xmlns:xlink="http://www.w3.org/1999/xlink" x="0px" y="0px"
	 viewBox="0 0 1239 100" style="enable-background:new 0 0 1239 100;" xml:space="preserve">
<style type="text/css">
	.st0{fill:#FFFFFF;}
	.st1{fill:none;stroke:#6215FE;stroke-width:3;stroke-miterlimit:10;}
	.st2{fill:#6215FE;}
</style>
<rect class="st0" width="1239" height="100"/>
<g>
	<path class="st1" d="M84.2,83.5c-0.4-1.6-1-3.1-1.7-4.4c-0.1-0.1-0.1-0.2-0.2-0.3c-0.4-0.7-0.8-1.4-1.3-2.1v0
		c-0.8-1.2-1.7-2.4-2.7-3.4c-0.6-0.7-1.3-1.3-2-1.8c-1.1-0.9-2.3-1.7-3.5-2.4c0,0-0.1-0.1-0.2-0.1c-0.8-0.4-1.6-0.9-2.5-1.3
		c-1.3-0.7-2.7-1.3-4.2-1.9c-0.9-0.4-1.8-0.7-2.7-1.1c-1.7-0.6-3.4-1.3-5.3-1.9c-0.1,0-0.2,0-0.2-0.1c-0.3-0.1-0.5-0.2-0.8-0.3
		c-0.2-0.1-0.5-0.2-0.8-0.3c-0.2-0.1-0.3-0.1-0.5-0.2c-0.2,0-0.4-0.1-0.5-0.2c0,0,0,0-0.1,0c-2-0.6-3.8-1.3-5.3-1.8
		c-1-0.4-1.9-0.7-2.7-1.1c-0.6-0.3-1.2-0.5-1.7-0.7c-0.8-0.4-1.6-0.8-2.4-1.3c-0.8-0.5-1.5-1.1-2.1-1.7c-0.4-0.4-0.8-0.9-1.2-1.3
		c-0.5-0.7-1-1.5-1.3-2.4c-0.3-1-0.5-2.1-0.5-3.3c0-0.4,0-0.9,0.1-1.3v-0.1c0.4-3.4,2.3-5.8,5.6-7.3c1.3-0.6,2.7-1,4.3-1.2
		c1.3-0.2,2.6-0.3,4.1-0.3c1.6,0,3.3,0.1,5.1,0.3c0.2,0,0.4,0,0.6,0.1c1.1,0.1,2.1,0.4,3.2,0.6c1.5,0.4,3.1,0.9,4.6,1.5
		c0.9,0.3,1.8,0.7,2.7,1.2c0.2,0.1,0.3,0.2,0.5,0.2c1.4,0.7,2.8,1.5,4.1,2.3c0.8,0.5,1.5,1,2.3,1.5c1.4,1,2.7,2,4,3.1
		c0.3,0.2,0.5,0.4,0.8,0.6l2.7-4v0L90,34.6c-0.6-0.5-1.2-1.1-1.8-1.6l-2.1-1.7c-1.4-1-2.8-2-4.3-2.9c-0.4-0.2-0.8-0.5-1.1-0.7
		c-0.4-0.3-0.8-0.5-1.3-0.7c-1.3-0.8-2.7-1.4-4.1-2.1c-0.9-0.4-1.8-0.8-2.7-1.2c-0.8-0.3-1.6-0.6-2.4-0.9c-0.7-0.3-1.4-0.5-2.1-0.7
		c-1-0.3-2-0.6-3-0.8c-1.4-0.4-2.9-0.6-4.3-0.8c-0.4-0.1-0.8-0.1-1.2-0.2c-0.7-0.1-1.5-0.2-2.2-0.2c-1.3-0.1-2.6-0.2-3.9-0.2
		c-1.3,0-2.6,0-3.8,0c-1.4,0-2.8,0.2-4.2,0.4c-1.6,0.2-3.2,0.5-4.8,0.9c-0.4,0.1-0.8,0.2-1.2,0.3c-5.7,1.7-10.3,4.7-13.7,8.8
		c-2.5,3-4.2,6.6-5.3,10.8c-0.4,1.5-0.7,3-0.9,4.7c0,0.1,0,0.3-0.1,0.4l0,0.1c-0.2,1.3-0.3,2.5-0.3,3.7v0c0,1.3,0,2.5,0,3.7
		c0.1,1.3,0.2,2.5,0.5,3.7c0.2,1,0.5,2,0.8,3c0.4,1.1,0.9,2.2,1.5,3.2c0.1,0.1,0.1,0.2,0.2,0.3c0.5,0.8,1,1.6,1.5,2.3
		c0.9,1.2,1.8,2.3,2.9,3.2c0.7,0.6,1.4,1.2,2.1,1.7c1,0.8,2.2,1.5,3.4,2.1c0.2,0.1,0.3,0.2,0.5,0.2c0.8,0.4,1.7,0.8,2.6,1.2
		c1.6,0.7,3.3,1.3,5.1,2c0.9,0.3,1.9,0.6,2.8,1c1.6,0.5,3.2,1,4.9,1.5l0.6,0.2l0.9,0.2c0.1,0.1,0.3,0.1,0.4,0.1
		c0.1,0,0.2,0.1,0.4,0.1c0.5,0.1,0.9,0.3,1.4,0.4c1.7,0.5,3.3,1,4.6,1.5c1,0.4,1.9,0.7,2.7,1.1c0.1,0,0.2,0.1,0.2,0.1
		c1.4,0.6,2.6,1.3,3.6,2.2c0.7,0.6,1.3,1.2,1.8,1.9c0,0,0,0,0,0.1c1,1.3,1.5,2.8,1.5,4.6c0,0.6,0,1.2-0.1,1.9l0,0.1
		c-0.1,0.9-0.3,1.7-0.6,2.5v0c-0.9,2.5-2.8,4.3-5.5,5.6c-0.1,0.1-0.2,0.1-0.3,0.1l0,0c-1.5,0.7-3.2,1.1-5.2,1.3
		c-1.9,0.3-4,0.3-6.3,0.1h0c-0.9-0.1-1.8-0.1-2.7-0.3c-0.3,0-0.5-0.1-0.8-0.1c-1.8-0.2-3.5-0.6-5.2-1c-1-0.3-2-0.5-3-0.9
		c-1.5-0.5-3-1-4.5-1.7c-0.5-0.2-1.1-0.5-1.6-0.8c-0.3-0.1-0.6-0.3-0.9-0.5c-1.6-0.8-3.1-1.7-4.5-2.6c-0.8-0.5-1.5-1-2.2-1.6
		c-1.3-1-2.6-2.1-3.8-3.3c-0.3-0.3-0.5-0.5-0.8-0.8l-4.3,5.9l-6.1,8.4c0.8,0.8,1.6,1.6,2.4,2.4l2,1.8c1.3,1.1,2.7,2.1,4.1,3
		c0.4,0.3,0.8,0.5,1.2,0.8c0.4,0.2,0.8,0.5,1.1,0.7c1.3,0.8,2.6,1.5,4,2.1c0.8,0.4,1.7,0.8,2.6,1.2c1.4,0.6,2.9,1.2,4.4,1.7
		c0,0,0,0,0,0c1.1,0.4,2,0.7,2.8,1h0c2.5,0.9,3.7,1.3,3.7,1.3s0.3,0,1,0.1h0c0.7,0.1,1.9,0.2,3.4,0.4c0.8,0.1,1.6,0.2,2.6,0.3
		c1,0.1,2,0.2,3,0.3c1.2,0.1,2.4,0.2,3.6,0.2c2.2,0.1,4.3,0,6.3-0.2c1.5-0.1,3-0.3,4.4-0.6c1.2-0.2,2.3-0.5,3.4-0.8
		c5.9-1.7,10.6-4.5,14.1-8.7c3.2-3.7,5.2-8.4,6.1-13.9c0.1-0.6,0.2-1.1,0.3-1.7l0-0.1c0.1-0.8,0.2-1.6,0.2-2.4
		c0.1-2.1,0.1-4.1-0.1-6C84.7,85.6,84.5,84.5,84.2,83.5z"/>
</g>
<path class="st2" d="M45.5,20.3L19.6,45.8c0.2-1.6,0.5-3.2,0.9-4.7l20.2-19.9C42.2,20.8,43.8,20.5,45.5,20.3z"/>
<path class="st2" d="M53.5,19.9L19.3,53.7c-0.1-1.2-0.1-2.4,0-3.7v0l30.4-30C50.9,19.9,52.2,19.9,53.5,19.9z"/>
<path class="st2" d="M60.8,20.5L20.6,60.3c-0.3-0.9-0.6-1.9-0.8-3l37.7-37.2c0.7,0.1,1.4,0.1,2.2,0.2C60,20.4,60.4,20.5,60.8,20.5z"
	/>
<path class="st2" d="M38.6,51.4L23.8,66c-0.5-0.7-1.1-1.5-1.5-2.3l15.9-15.7C38.1,49.3,38.2,50.4,38.6,51.4z"/>
<path class="st2" d="M68.2,22.2L52.3,37.8c-1.5,0-2.9,0.1-4.1,0.3l17-16.7C66.2,21.6,67.2,21.9,68.2,22.2z"/>
<path class="st2" d="M43.1,56.8L28.7,71c-0.7-0.5-1.4-1.1-2.1-1.7L41,55.1C41.6,55.8,42.3,56.3,43.1,56.8z"/>
<path class="st2" d="M75.3,25L61.3,38.9c-1.1-0.3-2.1-0.5-3.2-0.6l14.6-14.4C73.6,24.2,74.5,24.6,75.3,25z"/>
<path class="st2" d="M18.2,89.6c0.3,0.3,0.5,0.6,0.8,0.8l-5.2,5.1L18.2,89.6z"/>
<path class="st2" d="M49.9,60L35.2,74.5c-0.9-0.4-1.8-0.8-2.6-1.2l14.6-14.4C48,59.3,48.9,59.6,49.9,60z"/>
<path class="st2" d="M79.4,27.1L65.9,40.4c0.9,0.3,1.8,0.7,2.7,1.2l13.3-13.1L79.4,27.1z"/>
<path class="st2" d="M10.2,106.2l12.7-12.5c0.7,0.6,1.5,1.1,2.2,1.6L12.2,108L10.2,106.2z"/>
<path class="st2" d="M58,62.8L43.2,77.5c-1-0.3-1.9-0.6-2.8-1l14.8-14.7c0,0,0,0,0.1,0c0.2,0.1,0.4,0.1,0.5,0.2
	c0.2,0,0.4,0.1,0.5,0.2c0.3,0.1,0.5,0.2,0.8,0.3c0.2,0.1,0.5,0.2,0.8,0.3C57.9,62.7,58,62.8,58,62.8z"/>
<path class="st2" d="M88.2,33L75.5,45.6c-0.8-0.5-1.5-1-2.3-1.5l12.9-12.7L88.2,33z"/>
<path class="st2" d="M32.2,99.2l-13.5,13.3c-0.4-0.2-0.8-0.5-1.1-0.7c-0.4-0.3-0.8-0.5-1.2-0.8l13.2-13.1c0.3,0.2,0.6,0.3,0.9,0.5
	C31.1,98.7,31.6,98.9,32.2,99.2z"/>
<path class="st2" d="M66,65.8L51.6,80c-0.5-0.1-0.9-0.3-1.4-0.4c-0.1-0.1-0.3-0.1-0.4-0.1c-0.1,0-0.2-0.1-0.4-0.1l-0.9-0.2
	l14.6-14.5C64.3,65,65.2,65.4,66,65.8z"/>
<path class="st2" d="M82.9,45.3l-2.7,4c-0.3-0.2-0.5-0.4-0.8-0.6L82.9,45.3z"/>
<path class="st2" d="M39.6,101.7l-14.3,14.1c-0.9-0.4-1.8-0.8-2.6-1.2l13.9-13.7C37.6,101.2,38.6,101.5,39.6,101.7z"/>
<path class="st2" d="M72.8,69L59,82.6c-0.8-0.4-1.7-0.7-2.7-1.1l14-13.8C71.1,68.1,72,68.5,72.8,69z"/>
<path class="st2" d="M48.2,103.1l-15.6,15.4h0c-0.8-0.3-1.8-0.6-2.8-1l15-14.8c0.3,0,0.5,0.1,0.8,0.1
	C46.5,102.9,47.3,103,48.2,103.1z"/>
<path class="st2" d="M78.4,73.3L64.7,86.8c0,0,0,0,0-0.1c-0.5-0.7-1.1-1.3-1.8-1.9l13.6-13.4C77.1,72,77.8,72.7,78.4,73.3z"/>
<path class="st2" d="M59.7,101.6l-18.9,18.7c-1.5-0.2-2.7-0.3-3.4-0.4l17.2-16.9C56.5,102.7,58.2,102.3,59.7,101.6z"/>
<path class="st2" d="M82.5,79.1l-17,16.8c0.3-0.8,0.5-1.6,0.6-2.5l0-0.1c0.1-0.7,0.1-1.3,0.1-1.9l14.9-14.7c0.4,0.7,0.9,1.3,1.3,2.1
	C82.4,78.9,82.5,79,82.5,79.1z"/>
<path class="st2" d="M84.8,86.7l-34.8,34.4c-1.2,0-2.4-0.1-3.6-0.2l37.9-37.4C84.5,84.5,84.7,85.6,84.8,86.7z"/>
<path class="st2" d="M84.9,92.7c0,0.8-0.1,1.6-0.2,2.4l0,0.1c-0.1,0.6-0.2,1.2-0.3,1.7l-23.7,23.3c-1.4,0.3-2.9,0.5-4.4,0.6
	L84.9,92.7z"/>
<g>
	<path class="st1" d="M152.4,41.3c-0.4-0.6-0.9-1.2-1.4-1.7c0,0-0.1-0.1-0.1-0.1c-0.3-0.3-0.6-0.5-0.9-0.7l0,0
		c-0.6-0.4-1.1-0.8-1.7-1.1c-0.4-0.2-0.8-0.4-1.1-0.5c-0.6-0.2-1.2-0.4-1.9-0.5c0,0-0.1,0-0.1,0c-0.4-0.1-0.8-0.1-1.3-0.2
		c-0.7-0.1-1.4-0.2-2.1-0.2c-0.4,0-0.9,0-1.4-0.1c-0.8,0-1.7,0-2.6,0c0,0-0.1,0-0.1,0c-0.1,0-0.3,0-0.4,0c-0.1,0-0.2,0-0.4,0
		c-0.1,0-0.2,0-0.3,0c-0.1,0-0.2,0-0.3,0c0,0,0,0,0,0c-1,0-1.8,0-2.6,0c-0.5,0-1,0-1.4-0.1c-0.3,0-0.6,0-0.9-0.1
		c-0.4,0-0.8-0.1-1.2-0.2c-0.4-0.1-0.8-0.3-1.2-0.4c-0.2-0.1-0.5-0.3-0.7-0.4c-0.4-0.2-0.7-0.5-0.9-0.9c-0.3-0.4-0.5-0.9-0.7-1.4
		c-0.1-0.2-0.1-0.4-0.2-0.6l0,0c-0.3-1.6,0.1-2.9,1.4-4.1c0.5-0.4,1-0.8,1.7-1.2c0.5-0.3,1.1-0.5,1.8-0.8c0.7-0.2,1.5-0.5,2.3-0.6
		c0.1,0,0.2,0,0.3-0.1c0.5-0.1,1-0.2,1.5-0.2c0.7-0.1,1.5-0.1,2.3-0.1c0.4,0,0.9,0.1,1.3,0.1c0.1,0,0.2,0,0.3,0
		c0.7,0.1,1.4,0.2,2.1,0.4c0.4,0.1,0.8,0.2,1.2,0.3c0.8,0.2,1.5,0.5,2.2,0.8c0.1,0,0.3,0.1,0.4,0.2l0.6-2.2l0,0l1.5-5.8
		c-0.3-0.1-0.7-0.3-1-0.4l-1.2-0.4c-0.8-0.2-1.5-0.4-2.3-0.6c-0.2,0-0.4-0.1-0.6-0.1c-0.2,0-0.4-0.1-0.7-0.1
		c-0.7-0.1-1.4-0.2-2.1-0.3c-0.4,0-0.9-0.1-1.3-0.1c-0.4,0-0.8,0-1.2,0c-0.3,0-0.7,0-1,0c-0.5,0-1,0-1.4,0.1c-0.7,0.1-1.4,0.2-2,0.3
		c-0.2,0-0.4,0.1-0.6,0.1c-0.3,0.1-0.7,0.1-1,0.2c-0.6,0.1-1.2,0.3-1.8,0.5c-0.6,0.2-1.1,0.4-1.7,0.6c-0.6,0.2-1.2,0.5-1.8,0.8
		c-0.7,0.3-1.3,0.7-1.9,1.1c-0.2,0.1-0.3,0.2-0.5,0.3c-2.2,1.6-3.8,3.6-4.7,6c-0.6,1.7-0.8,3.5-0.7,5.5c0.1,0.7,0.2,1.4,0.3,2.2
		c0,0.1,0,0.1,0,0.2l0,0c0.1,0.6,0.3,1.1,0.4,1.7l0,0c0.2,0.6,0.4,1.1,0.6,1.6c0.2,0.5,0.5,1.1,0.8,1.5c0.3,0.4,0.5,0.8,0.8,1.2
		c0.3,0.4,0.7,0.8,1.1,1.2c0,0,0.1,0.1,0.1,0.1c0.3,0.3,0.7,0.5,1,0.8c0.6,0.4,1.2,0.7,1.8,1c0.4,0.2,0.8,0.3,1.2,0.4
		c0.6,0.2,1.2,0.3,1.8,0.4c0.1,0,0.2,0,0.2,0c0.4,0.1,0.9,0.1,1.3,0.1c0.8,0.1,1.7,0.1,2.6,0.1c0.4,0,0.9,0,1.4,0
		c0.8,0,1.5-0.1,2.4-0.1l0.3,0l0.4,0c0.1,0,0.1,0,0.2,0c0.1,0,0.1,0,0.2,0c0.2,0,0.4,0,0.7,0c0.8,0,1.6-0.1,2.3,0
		c0.5,0,0.9,0,1.4,0.1c0,0,0.1,0,0.1,0c0.7,0.1,1.3,0.2,1.9,0.4c0.4,0.1,0.8,0.3,1.1,0.6c0,0,0,0,0,0c0.6,0.4,1.1,1,1.4,1.8
		c0.1,0.3,0.2,0.5,0.3,0.8l0,0c0.1,0.4,0.1,0.8,0.1,1.2l0,0c0,1.2-0.5,2.3-1.5,3.3c0,0-0.1,0.1-0.1,0.1l0,0c-0.6,0.5-1.3,1-2.1,1.4
		c-0.8,0.4-1.7,0.7-2.7,1l0,0c-0.4,0.1-0.8,0.2-1.2,0.3c-0.1,0-0.2,0.1-0.4,0.1c-0.8,0.2-1.6,0.3-2.4,0.3c-0.5,0-1,0.1-1.4,0.1
		c-0.7,0-1.5,0-2.2-0.1c-0.3,0-0.6-0.1-0.8-0.1c-0.2,0-0.3,0-0.5-0.1c-0.8-0.1-1.6-0.3-2.4-0.5c-0.4-0.1-0.8-0.2-1.2-0.4
		c-0.7-0.2-1.5-0.5-2.2-0.9c-0.2-0.1-0.3-0.2-0.5-0.2l-1,3.3l-1.4,4.6c0.5,0.2,0.9,0.5,1.4,0.7l1.2,0.5c0.7,0.3,1.5,0.5,2.3,0.7
		c0.2,0.1,0.4,0.1,0.6,0.2c0.2,0,0.4,0.1,0.6,0.1c0.7,0.1,1.4,0.2,2.1,0.3c0.4,0.1,0.9,0.1,1.3,0.1c0.7,0.1,1.5,0.1,2.2,0.1
		c0,0,0,0,0,0c0.5,0,1,0,1.4,0l0,0c1.2,0,1.8,0,1.8,0s0.2,0,0.5-0.1l0,0c0.3-0.1,0.9-0.2,1.6-0.3c0.4-0.1,0.7-0.2,1.2-0.3
		c0.5-0.1,0.9-0.2,1.3-0.3c0.6-0.1,1.1-0.3,1.6-0.5c1-0.3,1.9-0.7,2.8-1c0.7-0.3,1.3-0.6,1.9-0.9c0.5-0.3,0.9-0.6,1.4-0.9
		c2.3-1.6,4-3.6,4.9-6c0.8-2.1,1-4.5,0.6-7c0-0.3-0.1-0.5-0.2-0.8l0-0.1c-0.1-0.4-0.2-0.7-0.3-1.1c-0.3-1-0.6-1.8-1-2.6
		C152.9,42.2,152.6,41.7,152.4,41.3z"/>
</g>
<path class="st2" d="M125.7,19.5l-7.5,15.1c-0.2-0.7-0.3-1.5-0.3-2.2l5.8-11.8C124.4,20.2,125,19.8,125.7,19.5z"/>
<path class="st2" d="M129.2,18.1l-9.9,20c-0.2-0.5-0.4-1.1-0.6-1.6l0,0l8.8-17.8C128.1,18.5,128.6,18.3,129.2,18.1z"/>
<path class="st2" d="M132.5,17.3l-11.6,23.6c-0.3-0.4-0.6-0.7-0.8-1.2L131,17.6c0.3-0.1,0.7-0.2,1-0.2
	C132.1,17.3,132.3,17.3,132.5,17.3z"/>
<path class="st2" d="M127.5,34.2l-4.3,8.7c-0.3-0.2-0.7-0.5-1-0.8l4.6-9.3C126.9,33.3,127.2,33.8,127.5,34.2z"/>
<path class="st2" d="M136,16.9l-4.6,9.3c-0.7,0.2-1.2,0.5-1.8,0.8l4.9-9.9C135,16.9,135.5,16.9,136,16.9z"/>
<path class="st2" d="M130.3,35.9l-4.1,8.4c-0.4-0.1-0.8-0.3-1.2-0.4l4.1-8.4C129.5,35.6,129.8,35.8,130.3,35.9z"/>
<path class="st2" d="M139.6,17l-4.1,8.2c-0.5,0-1,0.1-1.5,0.2l4.2-8.5C138.7,16.9,139.1,16.9,139.6,17z"/>
<path class="st2" d="M124.4,54c0.2,0.1,0.3,0.2,0.5,0.2l-1.5,3L124.4,54z"/>
<path class="st2" d="M133.7,36.2l-4.2,8.6c-0.5,0-0.9-0.1-1.3-0.1l4.2-8.5C132.8,36.2,133.2,36.2,133.7,36.2z"/>
<path class="st2" d="M141.7,17.3l-3.9,7.9c0.4,0,0.9,0.1,1.3,0.1l3.8-7.8L141.7,17.3z"/>
<path class="st2" d="M123.4,62.6l3.7-7.4c0.4,0.1,0.8,0.3,1.2,0.4l-3.7,7.5L123.4,62.6z"/>
<path class="st2" d="M137.7,36.2l-4.3,8.7c-0.5,0-0.9,0-1.4,0l4.3-8.7c0,0,0,0,0,0c0.1,0,0.2,0,0.3,0c0.1,0,0.2,0,0.3,0
	c0.1,0,0.3,0,0.4,0c0.1,0,0.2,0,0.4,0C137.7,36.2,137.7,36.2,137.7,36.2z"/>
<path class="st2" d="M146.4,18.5l-3.7,7.5c-0.4-0.1-0.8-0.2-1.2-0.3l3.7-7.5L146.4,18.5z"/>
<path class="st2" d="M131.9,56.1L128,64c-0.2,0-0.4-0.1-0.6-0.1c-0.2,0-0.4-0.1-0.6-0.2l3.8-7.7c0.2,0,0.3,0,0.5,0.1
	C131.4,56.1,131.7,56.1,131.9,56.1z"/>
<path class="st2" d="M141.7,36.3l-4.2,8.4c-0.2,0-0.4,0-0.7,0c-0.1,0-0.1,0-0.2,0c0,0-0.1,0-0.2,0l-0.4,0l4.2-8.6
	C140.8,36.2,141.2,36.3,141.7,36.3z"/>
<path class="st2" d="M146,24.8l-0.6,2.2c-0.1-0.1-0.3-0.1-0.4-0.2L146,24.8z"/>
<path class="st2" d="M135.6,56.1l-4.1,8.4c-0.4,0-0.9-0.1-1.3-0.1l4-8.2C134.6,56.2,135.1,56.1,135.6,56.1z"/>
<path class="st2" d="M145.1,36.7l-4,8c-0.4,0-0.9-0.1-1.4-0.1l4-8.2C144.3,36.5,144.7,36.6,145.1,36.7z"/>
<path class="st2" d="M139.6,55.4l-4.5,9.1l0,0c-0.4,0-0.9,0-1.4,0l4.3-8.8c0.1,0,0.2,0,0.4-0.1C138.8,55.6,139.2,55.5,139.6,55.4z"
	/>
<path class="st2" d="M148.3,37.7l-3.9,8c0,0,0,0,0,0c-0.3-0.2-0.7-0.4-1.1-0.6l3.9-7.9C147.5,37.4,147.9,37.5,148.3,37.7z"/>
<path class="st2" d="M144.4,53l-5.5,11.1c-0.7,0.2-1.2,0.3-1.6,0.3l4.9-10C143.1,54,143.8,53.5,144.4,53z"/>
<path class="st2" d="M151,39.6l-4.9,10c0-0.4,0-0.8-0.1-1.2l0,0c-0.1-0.3-0.1-0.6-0.3-0.8l4.3-8.7c0.3,0.2,0.6,0.5,0.9,0.7
	C150.9,39.5,150.9,39.6,151,39.6z"/>
<path class="st2" d="M153.1,42.6l-10,20.4c-0.5,0.2-1.1,0.3-1.6,0.5l10.9-22.2C152.6,41.7,152.9,42.2,153.1,42.6z"/>
<path class="st2" d="M154.1,45.2c0.1,0.3,0.2,0.7,0.3,1.1l0,0.1c0.1,0.3,0.1,0.5,0.2,0.8L147.7,61c-0.6,0.3-1.2,0.6-1.9,0.9
	L154.1,45.2z"/>
<g>
	<path class="st1" d="M210.2,40.2c-0.1-0.3-0.2-0.6-0.3-0.9c0,0,0,0,0-0.1c-0.1-0.1-0.2-0.3-0.3-0.4v0c-0.2-0.3-0.4-0.5-0.6-0.7
		c-0.1-0.1-0.3-0.3-0.4-0.4c-0.2-0.2-0.5-0.4-0.7-0.5c0,0,0,0,0,0c-0.2-0.1-0.3-0.2-0.5-0.3c-0.3-0.1-0.6-0.3-0.9-0.4
		c-0.2-0.1-0.4-0.2-0.6-0.2c-0.3-0.1-0.7-0.3-1.1-0.4c0,0,0,0,0,0c-0.1,0-0.1,0-0.2-0.1c0,0-0.1,0-0.2-0.1c0,0-0.1,0-0.1,0
		c0,0-0.1,0-0.1,0c0,0,0,0,0,0c-0.4-0.1-0.8-0.3-1.1-0.4c-0.2-0.1-0.4-0.2-0.6-0.2c-0.1-0.1-0.2-0.1-0.4-0.2
		c-0.2-0.1-0.3-0.2-0.5-0.3c-0.2-0.1-0.3-0.2-0.4-0.4c-0.1-0.1-0.2-0.2-0.2-0.3c-0.1-0.2-0.2-0.3-0.3-0.5c-0.1-0.2-0.1-0.4-0.1-0.7
		c0-0.1,0-0.2,0-0.3v0c0.1-0.7,0.5-1.2,1.2-1.5c0.3-0.1,0.6-0.2,0.9-0.3c0.3,0,0.5-0.1,0.9-0.1c0.3,0,0.7,0,1.1,0.1c0,0,0.1,0,0.1,0
		c0.2,0,0.4,0.1,0.7,0.1c0.3,0.1,0.6,0.2,1,0.3c0.2,0.1,0.4,0.2,0.5,0.2c0,0,0.1,0,0.1,0c0.3,0.1,0.6,0.3,0.9,0.5
		c0.2,0.1,0.3,0.2,0.5,0.3c0.3,0.2,0.6,0.4,0.8,0.6c0.1,0,0.1,0.1,0.2,0.1l0.6-0.8v0l1.5-2.2c-0.1-0.1-0.3-0.2-0.4-0.3l-0.4-0.3
		c-0.3-0.2-0.6-0.4-0.9-0.6c-0.1,0-0.2-0.1-0.2-0.1c-0.1-0.1-0.2-0.1-0.3-0.1c-0.3-0.2-0.6-0.3-0.8-0.4c-0.2-0.1-0.4-0.2-0.6-0.2
		c-0.2-0.1-0.3-0.1-0.5-0.2c-0.1-0.1-0.3-0.1-0.4-0.1c-0.2-0.1-0.4-0.1-0.6-0.2c-0.3-0.1-0.6-0.1-0.9-0.2c-0.1,0-0.2,0-0.3,0
		c-0.2,0-0.3,0-0.5,0c-0.3,0-0.5,0-0.8,0c-0.3,0-0.5,0-0.8,0c-0.3,0-0.6,0-0.9,0.1c-0.3,0-0.7,0.1-1,0.2c-0.1,0-0.2,0-0.3,0.1
		c-1.2,0.4-2.1,1-2.8,1.8c-0.5,0.6-0.9,1.4-1.1,2.2c-0.1,0.3-0.1,0.6-0.2,1c0,0,0,0.1,0,0.1l0,0c0,0.3-0.1,0.5-0.1,0.8v0
		c0,0.3,0,0.5,0,0.8c0,0.3,0,0.5,0.1,0.8c0,0.2,0.1,0.4,0.2,0.6c0.1,0.2,0.2,0.5,0.3,0.7c0,0,0,0,0,0.1c0.1,0.2,0.2,0.3,0.3,0.5
		c0.2,0.2,0.4,0.5,0.6,0.7c0.1,0.1,0.3,0.2,0.4,0.4c0.2,0.2,0.5,0.3,0.7,0.4c0,0,0.1,0,0.1,0c0.2,0.1,0.4,0.2,0.5,0.3
		c0.3,0.1,0.7,0.3,1.1,0.4c0.2,0.1,0.4,0.1,0.6,0.2c0.3,0.1,0.7,0.2,1,0.3l0.1,0l0.2,0c0,0,0.1,0,0.1,0c0,0,0,0,0.1,0
		c0.1,0,0.2,0.1,0.3,0.1c0.4,0.1,0.7,0.2,1,0.3c0.2,0.1,0.4,0.1,0.6,0.2c0,0,0,0,0,0c0.3,0.1,0.5,0.3,0.7,0.5
		c0.1,0.1,0.3,0.3,0.4,0.4c0,0,0,0,0,0c0.2,0.3,0.3,0.6,0.3,1c0,0.1,0,0.3,0,0.4l0,0c0,0.2-0.1,0.4-0.1,0.5v0
		c-0.2,0.5-0.6,0.9-1.1,1.2c0,0,0,0-0.1,0l0,0c-0.3,0.1-0.7,0.2-1.1,0.3c-0.4,0.1-0.8,0.1-1.3,0h0c-0.2,0-0.4,0-0.6-0.1
		c-0.1,0-0.1,0-0.2,0c-0.4,0-0.7-0.1-1.1-0.2c-0.2-0.1-0.4-0.1-0.6-0.2c-0.3-0.1-0.6-0.2-0.9-0.4c-0.1,0-0.2-0.1-0.3-0.2
		c-0.1,0-0.1-0.1-0.2-0.1c-0.3-0.2-0.6-0.3-0.9-0.5c-0.2-0.1-0.3-0.2-0.5-0.3c-0.3-0.2-0.5-0.4-0.8-0.7c-0.1-0.1-0.1-0.1-0.2-0.2
		l-0.9,1.2l-1.3,1.7c0.2,0.2,0.3,0.3,0.5,0.5l0.4,0.4c0.3,0.2,0.6,0.4,0.9,0.6c0.1,0.1,0.2,0.1,0.3,0.2c0.1,0,0.2,0.1,0.2,0.1
		c0.3,0.2,0.5,0.3,0.8,0.4c0.2,0.1,0.4,0.2,0.5,0.2c0.3,0.1,0.6,0.2,0.9,0.4c0,0,0,0,0,0c0.2,0.1,0.4,0.1,0.6,0.2h0
		c0.5,0.2,0.8,0.3,0.8,0.3s0.1,0,0.2,0h0c0.2,0,0.4,0,0.7,0.1c0.2,0,0.3,0,0.5,0.1c0.2,0,0.4,0,0.6,0.1c0.3,0,0.5,0,0.7,0
		c0.5,0,0.9,0,1.3,0c0.3,0,0.6-0.1,0.9-0.1c0.2,0,0.5-0.1,0.7-0.2c1.2-0.3,2.2-0.9,2.9-1.8c0.7-0.8,1.1-1.7,1.3-2.9
		c0-0.1,0-0.2,0.1-0.4l0,0c0-0.2,0-0.3,0-0.5c0-0.4,0-0.9,0-1.2C210.3,40.6,210.3,40.4,210.2,40.2z"/>
</g>
<path class="st2" d="M202.2,27.1l-5.4,5.3c0-0.3,0.1-0.7,0.2-1l4.2-4.1C201.5,27.2,201.8,27.1,202.2,27.1z"/>
<path class="st2" d="M203.9,27l-7.1,7c0-0.2,0-0.5,0-0.8v0l6.3-6.2C203.3,27,203.6,27,203.9,27z"/>
<path class="st2" d="M205.4,27.1l-8.4,8.2c-0.1-0.2-0.1-0.4-0.2-0.6l7.8-7.7c0.1,0,0.3,0,0.5,0C205.2,27.1,205.3,27.1,205.4,27.1z"
	/>
<path class="st2" d="M200.8,33.5l-3.1,3c-0.1-0.1-0.2-0.3-0.3-0.5l3.3-3.3C200.7,33.1,200.7,33.3,200.8,33.5z"/>
<path class="st2" d="M206.9,27.5l-3.3,3.2c-0.3,0-0.6,0-0.9,0.1l3.5-3.5C206.5,27.4,206.7,27.4,206.9,27.5z"/>
<path class="st2" d="M201.7,34.7l-3,2.9c-0.2-0.1-0.3-0.2-0.4-0.4l3-2.9C201.4,34.4,201.5,34.6,201.7,34.7z"/>
<path class="st2" d="M208.4,28.1l-2.9,2.9c-0.2-0.1-0.4-0.1-0.7-0.1l3-3C208,27.9,208.2,28,208.4,28.1z"/>
<path class="st2" d="M196.5,41.5c0.1,0.1,0.1,0.1,0.2,0.2l-1.1,1.1L196.5,41.5z"/>
<path class="st2" d="M203.1,35.3l-3,3c-0.2-0.1-0.4-0.2-0.5-0.3l3-3C202.7,35.2,202.9,35.2,203.1,35.3z"/>
<path class="st2" d="M209.2,28.5l-2.8,2.8c0.2,0.1,0.4,0.2,0.5,0.2l2.7-2.7L209.2,28.5z"/>
<path class="st2" d="M194.9,44.9l2.6-2.6c0.1,0.1,0.3,0.2,0.5,0.3l-2.7,2.6L194.9,44.9z"/>
<path class="st2" d="M204.8,35.9l-3.1,3c-0.2-0.1-0.4-0.1-0.6-0.2l3.1-3c0,0,0,0,0,0c0,0,0.1,0,0.1,0c0,0,0.1,0,0.1,0
	c0.1,0,0.1,0,0.2,0.1C204.6,35.9,204.7,35.9,204.8,35.9C204.8,35.9,204.8,35.9,204.8,35.9z"/>
<path class="st2" d="M211.1,29.7l-2.6,2.6c-0.2-0.1-0.3-0.2-0.5-0.3l2.7-2.6L211.1,29.7z"/>
<path class="st2" d="M199.4,43.5l-2.8,2.8c-0.1,0-0.2-0.1-0.2-0.1c-0.1-0.1-0.2-0.1-0.3-0.2l2.7-2.7c0.1,0,0.1,0.1,0.2,0.1
	C199.2,43.3,199.3,43.4,199.4,43.5z"/>
<path class="st2" d="M206.5,36.5l-3,3c-0.1,0-0.2-0.1-0.3-0.1c0,0-0.1,0-0.1,0c0,0,0,0-0.1,0l-0.2,0l3-3
	C206.1,36.4,206.3,36.4,206.5,36.5z"/>
<path class="st2" d="M210,32.3l-0.6,0.8c-0.1,0-0.1-0.1-0.2-0.1L210,32.3z"/>
<path class="st2" d="M201,44l-3,2.9c-0.2-0.1-0.4-0.2-0.5-0.2l2.9-2.9C200.6,43.9,200.8,43.9,201,44z"/>
<path class="st2" d="M207.8,37.2L205,40c-0.2-0.1-0.4-0.1-0.6-0.2l2.9-2.9C207.5,37,207.7,37.1,207.8,37.2z"/>
<path class="st2" d="M202.8,44.3l-3.2,3.2h0c-0.2-0.1-0.4-0.1-0.6-0.2l3.1-3.1c0.1,0,0.1,0,0.2,0C202.4,44.2,202.6,44.3,202.8,44.3z
	"/>
<path class="st2" d="M209,38.1l-2.8,2.8c0,0,0,0,0,0c-0.1-0.1-0.2-0.3-0.4-0.4l2.8-2.8C208.7,37.8,208.9,38,209,38.1z"/>
<path class="st2" d="M205.1,44l-3.9,3.9c-0.3,0-0.6-0.1-0.7-0.1l3.6-3.5C204.5,44.2,204.8,44.1,205.1,44z"/>
<path class="st2" d="M209.9,39.3l-3.5,3.5c0.1-0.2,0.1-0.3,0.1-0.5l0,0c0-0.1,0-0.3,0-0.4l3.1-3C209.7,38.9,209.8,39.1,209.9,39.3
	C209.9,39.2,209.9,39.3,209.9,39.3z"/>
<path class="st2" d="M210.3,40.9l-7.2,7.1c-0.2,0-0.5,0-0.7,0l7.9-7.8C210.3,40.4,210.3,40.6,210.3,40.9z"/>
<path class="st2" d="M210.4,42.1c0,0.2,0,0.3,0,0.5l0,0c0,0.1,0,0.2-0.1,0.4l-4.9,4.8c-0.3,0.1-0.6,0.1-0.9,0.1L210.4,42.1z"/>
<g>
	<path class="st1" d="M188.2,74c-0.2-0.3-0.5-0.5-0.7-0.8c0,0,0,0-0.1,0c-0.1-0.1-0.3-0.2-0.4-0.3l0,0c-0.3-0.2-0.6-0.3-0.9-0.4
		c-0.2-0.1-0.4-0.1-0.6-0.2c-0.3-0.1-0.6-0.1-0.9-0.2c0,0,0,0,0,0c-0.2,0-0.4,0-0.6,0c-0.3,0-0.7,0-1,0c-0.2,0-0.4,0-0.7,0
		c-0.4,0-0.8,0.1-1.2,0.1c0,0,0,0-0.1,0c-0.1,0-0.1,0-0.2,0c-0.1,0-0.1,0-0.2,0c0,0-0.1,0-0.1,0c0,0-0.1,0-0.1,0c0,0,0,0,0,0
		c-0.5,0-0.9,0.1-1.2,0.1c-0.2,0-0.5,0-0.7,0c-0.1,0-0.3,0-0.4,0c-0.2,0-0.4,0-0.6-0.1c-0.2,0-0.4-0.1-0.6-0.2
		c-0.1,0-0.2-0.1-0.4-0.2c-0.2-0.1-0.3-0.2-0.5-0.4c-0.2-0.2-0.3-0.4-0.4-0.6c0-0.1-0.1-0.2-0.1-0.3l0,0c-0.2-0.7-0.1-1.4,0.5-2
		c0.2-0.2,0.5-0.4,0.8-0.6c0.2-0.2,0.5-0.3,0.8-0.4c0.3-0.1,0.7-0.3,1.1-0.4c0,0,0.1,0,0.1,0c0.2-0.1,0.5-0.1,0.7-0.2
		c0.3-0.1,0.7-0.1,1.1-0.1c0.2,0,0.4,0,0.6,0c0,0,0.1,0,0.1,0c0.3,0,0.7,0,1,0.1c0.2,0,0.4,0.1,0.6,0.1c0.4,0.1,0.7,0.2,1.1,0.3
		c0.1,0,0.1,0,0.2,0.1l0.2-1l0,0l0.5-2.8c-0.2-0.1-0.3-0.1-0.5-0.2l-0.6-0.1c-0.4-0.1-0.7-0.2-1.1-0.2c-0.1,0-0.2,0-0.3,0
		c-0.1,0-0.2,0-0.3,0c-0.3,0-0.7-0.1-1-0.1c-0.2,0-0.4,0-0.6,0c-0.2,0-0.4,0-0.6,0c-0.2,0-0.3,0-0.5,0c-0.2,0-0.5,0.1-0.7,0.1
		c-0.3,0.1-0.6,0.1-0.9,0.2c-0.1,0-0.2,0-0.3,0.1c-0.2,0-0.3,0.1-0.5,0.1c-0.3,0.1-0.6,0.2-0.8,0.3c-0.3,0.1-0.5,0.2-0.8,0.3
		c-0.3,0.1-0.6,0.3-0.8,0.4c-0.3,0.2-0.6,0.4-0.9,0.6c-0.1,0.1-0.1,0.1-0.2,0.2c-1,0.9-1.7,1.9-2,3c-0.2,0.8-0.3,1.7-0.1,2.7
		c0.1,0.3,0.1,0.7,0.2,1c0,0,0,0.1,0,0.1l0,0c0.1,0.3,0.2,0.5,0.3,0.8l0,0c0.1,0.3,0.2,0.5,0.3,0.8c0.1,0.3,0.3,0.5,0.4,0.7
		c0.1,0.2,0.3,0.4,0.4,0.5c0.2,0.2,0.4,0.4,0.6,0.5c0,0,0,0,0.1,0c0.2,0.1,0.3,0.2,0.5,0.3c0.3,0.2,0.6,0.3,0.9,0.4
		c0.2,0.1,0.4,0.1,0.6,0.2c0.3,0.1,0.6,0.1,0.9,0.1c0,0,0.1,0,0.1,0c0.2,0,0.4,0,0.6,0c0.4,0,0.8,0,1.2,0c0.2,0,0.4,0,0.7-0.1
		c0.4,0,0.7-0.1,1.1-0.1l0.1,0l0.2,0c0,0,0.1,0,0.1,0c0,0,0.1,0,0.1,0c0.1,0,0.2,0,0.3,0c0.4-0.1,0.8-0.1,1.1-0.1c0.2,0,0.5,0,0.7,0
		c0,0,0,0,0.1,0c0.3,0,0.6,0,0.9,0.1c0.2,0.1,0.4,0.1,0.5,0.2c0,0,0,0,0,0c0.3,0.2,0.5,0.4,0.7,0.8c0.1,0.1,0.1,0.2,0.2,0.4l0,0
		c0.1,0.2,0.1,0.4,0.1,0.6l0,0c0,0.6-0.2,1.1-0.6,1.6c0,0,0,0-0.1,0.1l0,0c-0.2,0.3-0.6,0.5-0.9,0.7c-0.4,0.2-0.8,0.4-1.3,0.6l0,0
		c-0.2,0.1-0.4,0.1-0.6,0.2c-0.1,0-0.1,0-0.2,0c-0.4,0.1-0.8,0.2-1.1,0.3c-0.2,0-0.4,0.1-0.7,0.1c-0.3,0-0.7,0.1-1.1,0.1
		c-0.1,0-0.3,0-0.4,0c-0.1,0-0.2,0-0.2,0c-0.4,0-0.8-0.1-1.1-0.1c-0.2,0-0.4-0.1-0.6-0.1c-0.4-0.1-0.7-0.2-1.1-0.3
		c-0.1,0-0.2-0.1-0.2-0.1l-0.4,1.6l-0.5,2.2c0.2,0.1,0.5,0.2,0.7,0.3l0.6,0.2c0.4,0.1,0.7,0.2,1.1,0.2c0.1,0,0.2,0,0.3,0
		c0.1,0,0.2,0,0.3,0c0.3,0,0.7,0.1,1,0.1c0.2,0,0.4,0,0.6,0c0.3,0,0.7,0,1,0c0,0,0,0,0,0c0.3,0,0.5,0,0.7-0.1l0,0
		c0.6,0,0.9-0.1,0.9-0.1s0.1,0,0.2-0.1l0,0c0.2,0,0.4-0.1,0.7-0.2c0.2-0.1,0.4-0.1,0.6-0.2c0.2-0.1,0.4-0.1,0.6-0.2
		c0.3-0.1,0.5-0.2,0.8-0.3c0.5-0.2,0.9-0.4,1.3-0.6c0.3-0.2,0.6-0.3,0.8-0.5c0.2-0.1,0.4-0.3,0.6-0.5c1.1-0.9,1.7-1.9,2.1-3
		c0.3-1,0.3-2.2,0-3.4c0-0.1-0.1-0.2-0.1-0.4l0,0c-0.1-0.2-0.1-0.3-0.2-0.5c-0.2-0.4-0.3-0.8-0.6-1.2
		C188.5,74.4,188.3,74.2,188.2,74z"/>
</g>
<path class="st2" d="M174.7,64.6l-3,7.5c-0.1-0.3-0.2-0.7-0.2-1l2.3-5.8C174.1,65,174.4,64.8,174.7,64.6z"/>
<path class="st2" d="M176.3,63.8l-3.9,9.9c-0.1-0.2-0.2-0.5-0.3-0.8l0,0l3.5-8.8C175.8,64.1,176.1,64,176.3,63.8z"/>
<path class="st2" d="M177.9,63.3L173.2,75c-0.2-0.2-0.3-0.3-0.4-0.5l4.3-10.9c0.2-0.1,0.3-0.1,0.5-0.1
	C177.7,63.4,177.8,63.3,177.9,63.3z"/>
<path class="st2" d="M176.1,71.6l-1.7,4.3c-0.2-0.1-0.3-0.2-0.5-0.3l1.8-4.6C175.8,71.2,175.9,71.4,176.1,71.6z"/>
<path class="st2" d="M179.5,63l-1.8,4.6c-0.3,0.1-0.6,0.3-0.8,0.4l1.9-4.9C179,63.1,179.3,63,179.5,63z"/>
<path class="st2" d="M177.5,72.3l-1.6,4.1c-0.2,0-0.4-0.1-0.6-0.2l1.6-4.1C177.1,72.2,177.3,72.2,177.5,72.3z"/>
<path class="st2" d="M181.2,62.9l-1.6,4.1c-0.2,0-0.5,0.1-0.7,0.2l1.7-4.2C180.8,62.9,181,62.9,181.2,62.9z"/>
<path class="st2" d="M175.4,81.1c0.1,0,0.2,0.1,0.2,0.1l-0.6,1.5L175.4,81.1z"/>
<path class="st2" d="M179.2,72.3l-1.7,4.2c-0.2,0-0.4,0-0.6,0l1.7-4.2C178.7,72.3,178.9,72.3,179.2,72.3z"/>
<path class="st2" d="M182.2,63l-1.6,3.9c0.2,0,0.4,0,0.6,0l1.5-3.8L182.2,63z"/>
<path class="st2" d="M175.2,85.2l1.5-3.7c0.2,0,0.4,0.1,0.6,0.1l-1.5,3.7L175.2,85.2z"/>
<path class="st2" d="M181.1,72.1l-1.7,4.3c-0.2,0-0.4,0-0.7,0.1l1.7-4.3c0,0,0,0,0,0c0,0,0.1,0,0.1,0c0,0,0.1,0,0.1,0
	c0.1,0,0.1,0,0.2,0C180.9,72.1,181,72.1,181.1,72.1C181,72.1,181,72.1,181.1,72.1z"/>
<path class="st2" d="M184.5,63.4l-1.5,3.7c-0.2,0-0.4-0.1-0.6-0.1l1.5-3.7L184.5,63.4z"/>
<path class="st2" d="M179.1,81.8l-1.5,3.9c-0.1,0-0.2,0-0.3,0c-0.1,0-0.2,0-0.3,0l1.5-3.8c0.1,0,0.2,0,0.2,0
	C178.8,81.8,178.9,81.8,179.1,81.8z"/>
<path class="st2" d="M182.9,72l-1.7,4.2c-0.1,0-0.2,0-0.3,0c0,0-0.1,0-0.1,0c0,0-0.1,0-0.1,0l-0.2,0l1.7-4.2
	C182.5,72,182.7,72,182.9,72z"/>
<path class="st2" d="M184.5,66.4l-0.2,1c-0.1,0-0.1,0-0.2-0.1L184.5,66.4z"/>
<path class="st2" d="M180.8,81.7l-1.6,4.1c-0.2,0-0.4,0-0.6,0l1.6-4C180.3,81.7,180.6,81.7,180.8,81.7z"/>
<path class="st2" d="M184.6,72.1l-1.6,4c-0.2,0-0.4,0-0.7,0l1.6-4C184.2,72,184.4,72.1,184.6,72.1z"/>
<path class="st2" d="M182.6,81.2l-1.8,4.5l0,0c-0.2,0-0.4,0-0.7,0.1l1.7-4.3c0.1,0,0.1,0,0.2,0C182.3,81.3,182.5,81.2,182.6,81.2z"
	/>
<path class="st2" d="M186.1,72.5l-1.6,4c0,0,0,0,0,0c-0.2-0.1-0.3-0.2-0.5-0.2l1.6-3.9C185.7,72.3,185.9,72.4,186.1,72.5z"/>
<path class="st2" d="M184.8,79.8l-2.2,5.5c-0.3,0.1-0.6,0.2-0.7,0.2l2-5C184.3,80.4,184.6,80.1,184.8,79.8z"/>
<path class="st2" d="M187.5,73.3l-2,4.9c0-0.2,0-0.4-0.1-0.6l0,0c0-0.1-0.1-0.3-0.2-0.4l1.7-4.3C187.1,73,187.3,73.1,187.5,73.3
	C187.4,73.2,187.5,73.2,187.5,73.3z"/>
<path class="st2" d="M188.6,74.6l-4,10.1c-0.2,0.1-0.5,0.2-0.8,0.3l4.4-10.9C188.3,74.2,188.5,74.4,188.6,74.6z"/>
<path class="st2" d="M189.2,75.8c0.1,0.2,0.1,0.3,0.2,0.5l0,0c0,0.1,0.1,0.2,0.1,0.4l-2.7,6.8c-0.3,0.2-0.5,0.4-0.8,0.5L189.2,75.8z
	"/>
<g>
	<path class="st1" d="M266.5,69.1c0.1-0.5,0.1-1,0-1.4c0,0,0-0.1,0-0.1c0-0.2-0.1-0.5-0.1-0.7l0,0c-0.1-0.4-0.2-0.9-0.4-1.3
		c-0.1-0.3-0.2-0.5-0.4-0.7c-0.2-0.4-0.5-0.7-0.7-1.1c0,0,0,0,0,0c-0.2-0.2-0.4-0.4-0.6-0.6c-0.3-0.3-0.6-0.7-1-1
		c-0.2-0.2-0.4-0.4-0.7-0.6c-0.4-0.4-0.8-0.7-1.3-1.1c0,0,0,0-0.1,0c-0.1,0-0.1-0.1-0.2-0.2c-0.1-0.1-0.1-0.1-0.2-0.2
		c0,0-0.1-0.1-0.1-0.1c0,0-0.1-0.1-0.1-0.1c0,0,0,0,0,0c-0.5-0.4-0.9-0.8-1.3-1.1c-0.2-0.2-0.5-0.4-0.7-0.6
		c-0.1-0.1-0.3-0.3-0.4-0.4c-0.2-0.2-0.4-0.4-0.5-0.6c-0.2-0.2-0.3-0.5-0.4-0.7c-0.1-0.2-0.1-0.3-0.2-0.5c-0.1-0.3-0.1-0.5-0.1-0.8
		c0-0.3,0.1-0.7,0.2-1c0-0.1,0.1-0.2,0.2-0.4l0,0c0.5-0.9,1.3-1.4,2.4-1.5c0.4,0,0.9,0,1.4,0.1c0.4,0.1,0.8,0.2,1.2,0.4
		c0.4,0.2,0.9,0.4,1.4,0.7c0.1,0,0.1,0.1,0.2,0.1c0.3,0.2,0.6,0.3,0.8,0.5c0.4,0.3,0.8,0.6,1.2,0.9c0.2,0.2,0.4,0.4,0.6,0.6
		c0,0,0.1,0.1,0.1,0.1c0.3,0.4,0.6,0.7,0.9,1.1c0.2,0.2,0.3,0.4,0.5,0.7c0.3,0.4,0.6,0.9,0.8,1.3c0,0.1,0.1,0.2,0.1,0.3l1.2-0.8l0,0
		l3.2-2.3c-0.1-0.2-0.2-0.4-0.3-0.6l-0.4-0.7c-0.3-0.4-0.6-0.9-0.9-1.3c-0.1-0.1-0.2-0.2-0.2-0.3c-0.1-0.1-0.2-0.2-0.3-0.3
		c-0.3-0.4-0.6-0.7-0.9-1c-0.2-0.2-0.4-0.4-0.6-0.6c-0.2-0.2-0.4-0.4-0.6-0.5c-0.2-0.1-0.3-0.3-0.5-0.4c-0.2-0.2-0.5-0.4-0.8-0.6
		c-0.4-0.3-0.7-0.5-1.1-0.7c-0.1-0.1-0.2-0.1-0.3-0.2c-0.2-0.1-0.4-0.2-0.6-0.3c-0.4-0.2-0.7-0.4-1.1-0.5c-0.4-0.2-0.7-0.3-1.1-0.4
		c-0.4-0.1-0.8-0.3-1.2-0.4c-0.5-0.1-1-0.2-1.5-0.3c-0.1,0-0.3,0-0.4,0c-1.8-0.1-3.4,0.2-4.9,1c-1,0.6-1.9,1.4-2.7,2.5
		c-0.3,0.4-0.5,0.8-0.8,1.2c0,0,0,0.1-0.1,0.1l0,0c-0.2,0.3-0.3,0.7-0.5,1l0,0c-0.2,0.4-0.3,0.7-0.4,1.1c-0.1,0.4-0.2,0.7-0.3,1.1
		c-0.1,0.3-0.1,0.6-0.1,0.9c0,0.4,0,0.7,0.1,1.1c0,0,0,0.1,0,0.1c0,0.3,0.1,0.5,0.2,0.8c0.1,0.4,0.3,0.8,0.5,1.2
		c0.1,0.2,0.3,0.5,0.4,0.7c0.2,0.3,0.5,0.7,0.7,1c0,0,0.1,0.1,0.1,0.1c0.2,0.2,0.4,0.4,0.6,0.6c0.4,0.4,0.8,0.7,1.2,1.1
		c0.2,0.2,0.5,0.4,0.7,0.6c0.4,0.3,0.8,0.6,1.2,1l0.2,0.1l0.2,0.2c0,0,0.1,0.1,0.1,0.1c0,0,0.1,0,0.1,0.1c0.1,0.1,0.2,0.2,0.3,0.3
		c0.4,0.3,0.8,0.6,1.2,0.9c0.2,0.2,0.5,0.4,0.7,0.6c0,0,0,0,0.1,0.1c0.3,0.3,0.6,0.7,0.8,1c0.1,0.2,0.2,0.5,0.3,0.7c0,0,0,0,0,0
		c0.1,0.5,0.1,1-0.1,1.5c-0.1,0.2-0.1,0.3-0.2,0.5l0,0c-0.1,0.2-0.3,0.5-0.4,0.6l0,0c-0.5,0.6-1.3,0.9-2.2,1c0,0-0.1,0-0.1,0l0,0
		c-0.5,0-1,0-1.6-0.2c-0.6-0.1-1.2-0.4-1.8-0.7l0,0c-0.2-0.1-0.5-0.2-0.7-0.4c-0.1,0-0.1-0.1-0.2-0.1c-0.5-0.3-0.9-0.5-1.4-0.9
		c-0.3-0.2-0.5-0.4-0.7-0.6c-0.4-0.3-0.7-0.6-1.1-1c-0.1-0.1-0.3-0.3-0.4-0.4c-0.1-0.1-0.1-0.2-0.2-0.2c-0.4-0.4-0.7-0.8-1-1.2
		c-0.2-0.2-0.3-0.5-0.5-0.7c-0.3-0.4-0.5-0.9-0.7-1.4c-0.1-0.1-0.1-0.2-0.1-0.3l-1.9,1.2l-2.7,1.7c0.1,0.3,0.3,0.6,0.4,0.9l0.4,0.7
		c0.2,0.4,0.5,0.9,0.8,1.3c0.1,0.1,0.2,0.2,0.3,0.4c0.1,0.1,0.2,0.2,0.2,0.3c0.3,0.4,0.6,0.7,0.9,1.1c0.2,0.2,0.4,0.4,0.6,0.6
		c0.3,0.3,0.7,0.7,1.1,1c0,0,0,0,0,0c0.3,0.2,0.5,0.4,0.7,0.6l0,0c0.6,0.5,0.9,0.8,0.9,0.8s0.1,0.1,0.3,0.2l0,0
		c0.2,0.1,0.5,0.3,0.9,0.5c0.2,0.1,0.4,0.2,0.7,0.4c0.3,0.1,0.5,0.3,0.8,0.4c0.3,0.2,0.7,0.3,1,0.5c0.6,0.3,1.2,0.5,1.8,0.7
		c0.4,0.1,0.9,0.2,1.3,0.3c0.4,0.1,0.7,0.1,1.1,0.2c1.9,0.2,3.5-0.1,5-0.9c1.3-0.7,2.4-1.8,3.3-3.3c0.1-0.1,0.2-0.3,0.3-0.5l0,0
		c0.1-0.2,0.2-0.4,0.3-0.7c0.3-0.6,0.5-1.2,0.6-1.7C266.4,69.8,266.4,69.4,266.5,69.1z"/>
</g>
<path class="st2" d="M262.5,46.9l-10.2,4.4c0.2-0.4,0.5-0.8,0.8-1.2l8-3.4C261.5,46.7,262,46.7,262.5,46.9z"/>
<path class="st2" d="M264.8,47.6l-13.5,5.8c0.1-0.3,0.2-0.7,0.4-1.1l0,0l12-5.2C264.1,47.3,264.4,47.5,264.8,47.6z"/>
<path class="st2" d="M266.8,48.6L251,55.5c0-0.3,0-0.6,0.1-0.9l14.8-6.4c0.2,0.1,0.4,0.2,0.6,0.3C266.6,48.5,266.7,48.6,266.8,48.6z
	"/>
<path class="st2" d="M257.1,54.9l-5.8,2.5c-0.1-0.3-0.1-0.5-0.2-0.8l6.3-2.7C257.2,54.3,257.1,54.6,257.1,54.9z"/>
<path class="st2" d="M268.7,49.9l-6.2,2.7c-0.4-0.2-0.8-0.3-1.2-0.4l6.7-2.9C268.2,49.5,268.5,49.7,268.7,49.9z"/>
<path class="st2" d="M257.8,57l-5.6,2.4c-0.1-0.2-0.3-0.5-0.4-0.7l5.6-2.4C257.5,56.5,257.6,56.8,257.8,57z"/>
<path class="st2" d="M270.5,51.5l-5.5,2.4c-0.3-0.2-0.6-0.4-0.8-0.5l5.7-2.5C270,51.1,270.2,51.3,270.5,51.5z"/>
<path class="st2" d="M247.1,63.5c0,0.1,0.1,0.2,0.1,0.3l-2,0.9L247.1,63.5z"/>
<path class="st2" d="M259.3,58.6l-5.8,2.5c-0.2-0.2-0.4-0.4-0.6-0.6l5.7-2.5C258.9,58.2,259.1,58.4,259.3,58.6z"/>
<path class="st2" d="M271.4,52.5l-5.3,2.3c0.2,0.2,0.4,0.4,0.6,0.6l5.2-2.2L271.4,52.5z"/>
<path class="st2" d="M242.9,67.4l5-2.2c0.1,0.2,0.3,0.5,0.5,0.7l-5.1,2.2L242.9,67.4z"/>
<path class="st2" d="M261.3,60.3l-5.9,2.5c-0.2-0.2-0.5-0.4-0.7-0.6l5.8-2.5c0,0,0,0,0,0c0,0,0.1,0.1,0.1,0.1c0,0,0.1,0.1,0.1,0.1
	c0.1,0.1,0.1,0.1,0.2,0.2C261.2,60.2,261.2,60.2,261.3,60.3C261.3,60.3,261.3,60.3,261.3,60.3z"/>
<path class="st2" d="M273.2,55.2l-5,2.2c-0.2-0.2-0.3-0.5-0.5-0.7l5.1-2.2L273.2,55.2z"/>
<path class="st2" d="M250,67.8l-5.3,2.3c-0.1-0.1-0.2-0.2-0.2-0.3c-0.1-0.1-0.2-0.2-0.3-0.4l5.2-2.2c0.1,0.1,0.1,0.2,0.2,0.2
	C249.7,67.5,249.8,67.7,250,67.8z"/>
<path class="st2" d="M263.3,62.1l-5.7,2.4c-0.1-0.1-0.2-0.2-0.3-0.3c0,0-0.1-0.1-0.1-0.1c0,0-0.1,0-0.1-0.1l-0.2-0.2l5.8-2.5
	C262.9,61.6,263.1,61.9,263.3,62.1z"/>
<path class="st2" d="M270.3,58.1l-1.2,0.8c0-0.1-0.1-0.2-0.1-0.3L270.3,58.1z"/>
<path class="st2" d="M251.8,69.3l-5.6,2.4c-0.2-0.2-0.4-0.4-0.6-0.6l5.5-2.4C251.3,69,251.5,69.2,251.8,69.3z"/>
<path class="st2" d="M264.8,63.7l-5.4,2.3c-0.2-0.2-0.4-0.4-0.7-0.6l5.5-2.4C264.5,63.3,264.7,63.5,264.8,63.7z"/>
<path class="st2" d="M254.1,70.7l-6.1,2.6l0,0c-0.2-0.2-0.4-0.4-0.7-0.6l5.9-2.5c0.1,0,0.1,0.1,0.2,0.1
	C253.6,70.4,253.9,70.6,254.1,70.7z"/>
<path class="st2" d="M266,65.6l-5.4,2.3c0,0,0,0,0,0c-0.1-0.3-0.2-0.5-0.3-0.7l5.3-2.3C265.7,65.1,265.9,65.3,266,65.6z"/>
<path class="st2" d="M257.5,71.5l-7.4,3.2c-0.4-0.2-0.7-0.4-0.9-0.5l6.7-2.9C256.5,71.5,257,71.6,257.5,71.5z"/>
<path class="st2" d="M266.5,67.7l-6.7,2.9c0.2-0.2,0.3-0.4,0.4-0.6l0,0c0.1-0.2,0.2-0.4,0.2-0.5l5.9-2.5c0.1,0.2,0.1,0.5,0.1,0.7
	C266.5,67.6,266.5,67.6,266.5,67.7z"/>
<path class="st2" d="M266.3,70.1L252.6,76c-0.3-0.1-0.7-0.3-1-0.5l14.9-6.4C266.4,69.4,266.4,69.8,266.3,70.1z"/>
<path class="st2" d="M265.7,71.8c-0.1,0.2-0.2,0.4-0.3,0.7l0,0c-0.1,0.2-0.2,0.3-0.3,0.5l-9.3,4c-0.4-0.1-0.9-0.2-1.3-0.3
	L265.7,71.8z"/>
<g>
	<path class="st1" d="M280.2,18.3c-0.2-0.3-0.4-0.6-0.6-0.9c0,0,0,0-0.1-0.1c-0.1-0.1-0.3-0.3-0.4-0.4l0,0c-0.2-0.2-0.5-0.4-0.8-0.6
		c-0.2-0.1-0.3-0.2-0.5-0.3c-0.3-0.1-0.6-0.2-0.9-0.3c0,0,0,0,0,0c-0.2,0-0.4-0.1-0.6-0.1c-0.3-0.1-0.7-0.1-1-0.2
		c-0.2,0-0.4-0.1-0.6-0.1c-0.4,0-0.8-0.1-1.2-0.1c0,0,0,0-0.1,0c-0.1,0-0.1,0-0.2,0c-0.1,0-0.1,0-0.2,0c0,0-0.1,0-0.1,0
		c0,0-0.1,0-0.1,0c0,0,0,0,0,0c-0.5,0-0.9-0.1-1.2-0.1c-0.2,0-0.5,0-0.6-0.1c-0.1,0-0.3,0-0.4-0.1c-0.2,0-0.4-0.1-0.6-0.2
		c-0.2-0.1-0.4-0.2-0.5-0.3c-0.1-0.1-0.2-0.1-0.3-0.2c-0.2-0.1-0.3-0.3-0.4-0.4c-0.1-0.2-0.2-0.4-0.3-0.7c0-0.1,0-0.2-0.1-0.3l0,0
		c-0.1-0.7,0.2-1.4,0.8-1.9c0.2-0.2,0.5-0.4,0.9-0.5c0.3-0.1,0.5-0.2,0.9-0.3c0.3-0.1,0.7-0.2,1.1-0.2c0,0,0.1,0,0.1,0
		c0.2,0,0.5,0,0.7,0c0.4,0,0.7,0,1.1,0.1c0.2,0,0.4,0.1,0.6,0.1c0,0,0.1,0,0.1,0c0.3,0.1,0.7,0.2,1,0.3c0.2,0.1,0.4,0.1,0.6,0.2
		c0.3,0.1,0.7,0.3,1,0.4c0.1,0,0.1,0.1,0.2,0.1l0.3-1l0,0l0.9-2.7c-0.2-0.1-0.3-0.2-0.5-0.2L277.6,7c-0.4-0.1-0.7-0.3-1.1-0.4
		c-0.1,0-0.2-0.1-0.3-0.1c-0.1,0-0.2-0.1-0.3-0.1c-0.3-0.1-0.7-0.2-1-0.2c-0.2,0-0.4-0.1-0.6-0.1c-0.2,0-0.4,0-0.6-0.1
		c-0.2,0-0.3,0-0.5,0c-0.2,0-0.5,0-0.7,0c-0.3,0-0.7,0-1,0.1c-0.1,0-0.2,0-0.3,0c-0.2,0-0.3,0-0.5,0.1c-0.3,0-0.6,0.1-0.9,0.2
		c-0.3,0.1-0.6,0.1-0.8,0.2c-0.3,0.1-0.6,0.2-0.9,0.3c-0.3,0.1-0.7,0.3-1,0.5c-0.1,0-0.2,0.1-0.2,0.1c-1.1,0.7-1.9,1.6-2.4,2.7
		c-0.4,0.8-0.5,1.7-0.5,2.6c0,0.3,0,0.7,0.1,1.1c0,0,0,0.1,0,0.1l0,0c0,0.3,0.1,0.5,0.1,0.8l0,0c0.1,0.3,0.1,0.5,0.2,0.8
		c0.1,0.3,0.2,0.5,0.3,0.8c0.1,0.2,0.2,0.4,0.3,0.6c0.1,0.2,0.3,0.4,0.5,0.6c0,0,0,0,0.1,0.1c0.1,0.1,0.3,0.3,0.5,0.4
		c0.3,0.2,0.5,0.4,0.8,0.5c0.2,0.1,0.4,0.2,0.5,0.3c0.3,0.1,0.5,0.2,0.8,0.3c0,0,0.1,0,0.1,0c0.2,0,0.4,0.1,0.6,0.1
		c0.4,0.1,0.8,0.1,1.2,0.1c0.2,0,0.4,0,0.7,0c0.4,0,0.7,0,1.1,0l0.1,0l0.2,0c0,0,0.1,0,0.1,0c0,0,0.1,0,0.1,0c0.1,0,0.2,0,0.3,0
		c0.4,0,0.8,0,1.1,0.1c0.2,0,0.4,0,0.6,0.1c0,0,0,0,0.1,0c0.3,0.1,0.6,0.1,0.9,0.3c0.2,0.1,0.3,0.2,0.5,0.3c0,0,0,0,0,0
		c0.3,0.2,0.5,0.5,0.6,0.9c0,0.1,0.1,0.3,0.1,0.4l0,0c0,0.2,0,0.4,0,0.6l0,0c-0.1,0.6-0.3,1.1-0.9,1.5c0,0,0,0-0.1,0l0,0
		c-0.3,0.2-0.6,0.4-1,0.6c-0.4,0.2-0.8,0.3-1.3,0.4l0,0c-0.2,0-0.4,0.1-0.6,0.1c-0.1,0-0.1,0-0.2,0c-0.4,0-0.8,0.1-1.2,0.1
		c-0.2,0-0.5,0-0.7,0c-0.4,0-0.7-0.1-1-0.1c-0.1,0-0.3,0-0.4-0.1c-0.1,0-0.1,0-0.2,0c-0.4-0.1-0.8-0.2-1.1-0.3
		c-0.2-0.1-0.4-0.1-0.6-0.2c-0.3-0.1-0.7-0.3-1-0.5c-0.1,0-0.1-0.1-0.2-0.1l-0.6,1.5L265,27c0.2,0.1,0.4,0.3,0.7,0.4l0.5,0.3
		c0.3,0.2,0.7,0.3,1.1,0.4c0.1,0,0.2,0.1,0.3,0.1c0.1,0,0.2,0.1,0.3,0.1c0.3,0.1,0.6,0.2,1,0.2c0.2,0,0.4,0.1,0.6,0.1
		c0.3,0.1,0.7,0.1,1,0.1c0,0,0,0,0,0c0.3,0,0.5,0,0.7,0l0,0c0.6,0,0.9,0.1,0.9,0.1s0.1,0,0.2,0l0,0c0.2,0,0.4-0.1,0.8-0.1
		c0.2,0,0.4,0,0.6-0.1c0.2,0,0.4-0.1,0.6-0.1c0.3,0,0.5-0.1,0.8-0.2c0.5-0.1,0.9-0.2,1.3-0.4c0.3-0.1,0.6-0.2,0.9-0.4
		c0.2-0.1,0.5-0.2,0.7-0.4c1.2-0.7,2-1.6,2.5-2.7c0.5-1,0.6-2.1,0.5-3.3c0-0.1,0-0.3,0-0.4l0,0c0-0.2-0.1-0.4-0.1-0.5
		c-0.1-0.5-0.2-0.9-0.4-1.3C280.4,18.7,280.3,18.5,280.2,18.3z"/>
</g>
<path class="st2" d="M268.3,7l-4.1,6.9c0-0.4-0.1-0.7-0.1-1.1l3.2-5.4C267.7,7.2,268,7.1,268.3,7z"/>
<path class="st2" d="M270,6.4l-5.4,9.2c-0.1-0.3-0.2-0.5-0.2-0.8l0,0l4.8-8.1C269.5,6.6,269.7,6.5,270,6.4z"/>
<path class="st2" d="M271.6,6.1l-6.4,10.8c-0.1-0.2-0.2-0.4-0.3-0.6l6-10.1c0.2,0,0.3-0.1,0.5-0.1C271.5,6.2,271.5,6.2,271.6,6.1z"
	/>
<path class="st2" d="M268.6,14l-2.3,4c-0.2-0.1-0.3-0.3-0.5-0.4l2.5-4.3C268.4,13.6,268.5,13.8,268.6,14z"/>
<path class="st2" d="M273.3,6.1l-2.5,4.2c-0.3,0.1-0.6,0.2-0.9,0.3l2.7-4.5C272.8,6.1,273.1,6.1,273.3,6.1z"/>
<path class="st2" d="M269.9,14.9l-2.3,3.8c-0.2-0.1-0.4-0.2-0.5-0.3l2.3-3.8C269.5,14.8,269.7,14.8,269.9,14.9z"/>
<path class="st2" d="M275,6.3l-2.2,3.8c-0.2,0-0.5,0-0.7,0l2.3-3.9C274.6,6.2,274.8,6.2,275,6.3z"/>
<path class="st2" d="M266.4,23.3c0.1,0,0.1,0.1,0.2,0.1l-0.8,1.4L266.4,23.3z"/>
<path class="st2" d="M271.5,15.2l-2.3,3.9c-0.2,0-0.4-0.1-0.6-0.1l2.3-3.9C271.1,15.2,271.3,15.2,271.5,15.2z"/>
<path class="st2" d="M276,6.5l-2.1,3.6c0.2,0,0.4,0.1,0.6,0.1l2.1-3.5L276,6.5z"/>
<path class="st2" d="M265.6,27.3l2-3.4c0.2,0.1,0.4,0.2,0.6,0.2l-2,3.4L265.6,27.3z"/>
<path class="st2" d="M273.4,15.3l-2.4,4c-0.2,0-0.4,0-0.7,0l2.4-4c0,0,0,0,0,0c0,0,0.1,0,0.1,0c0,0,0.1,0,0.1,0c0.1,0,0.1,0,0.2,0
	C273.2,15.3,273.3,15.3,273.4,15.3C273.4,15.3,273.4,15.3,273.4,15.3z"/>
<path class="st2" d="M278.2,7.3l-2,3.4c-0.2-0.1-0.4-0.1-0.6-0.2l2-3.4L278.2,7.3z"/>
<path class="st2" d="M269.9,24.6l-2.1,3.6c-0.1,0-0.2-0.1-0.3-0.1c-0.1,0-0.2-0.1-0.3-0.1l2.1-3.5c0.1,0,0.2,0,0.2,0
	C269.7,24.5,269.8,24.6,269.9,24.6z"/>
<path class="st2" d="M275.3,15.5l-2.3,3.9c-0.1,0-0.2,0-0.3,0c0,0-0.1,0-0.1,0c0,0-0.1,0-0.1,0l-0.2,0l2.3-3.9
	C274.9,15.5,275.1,15.5,275.3,15.5z"/>
<path class="st2" d="M277.8,10.2l-0.3,1c-0.1,0-0.1-0.1-0.2-0.1L277.8,10.2z"/>
<path class="st2" d="M271.7,24.7l-2.3,3.8c-0.2,0-0.4-0.1-0.6-0.1l2.2-3.7C271.2,24.7,271.4,24.7,271.7,24.7z"/>
<path class="st2" d="M276.9,15.8l-2.2,3.7c-0.2,0-0.4-0.1-0.6-0.1l2.2-3.7C276.5,15.7,276.7,15.8,276.9,15.8z"/>
<path class="st2" d="M273.6,24.5l-2.5,4.2l0,0c-0.2,0-0.4,0-0.7,0l2.4-4c0.1,0,0.1,0,0.2,0C273.2,24.6,273.4,24.5,273.6,24.5z"/>
<path class="st2" d="M278.4,16.4l-2.2,3.7c0,0,0,0,0,0c-0.2-0.1-0.3-0.2-0.5-0.3l2.1-3.6C278,16.2,278.2,16.3,278.4,16.4z"/>
<path class="st2" d="M276,23.6l-3,5.1c-0.3,0-0.6,0.1-0.8,0.1l2.7-4.6C275.3,24,275.7,23.8,276,23.6z"/>
<path class="st2" d="M279.6,17.4l-2.7,4.5c0-0.2,0-0.4,0-0.6l0,0c0-0.1,0-0.3-0.1-0.4l2.4-4C279.3,17.1,279.4,17.3,279.6,17.4
	C279.5,17.4,279.6,17.4,279.6,17.4z"/>
<path class="st2" d="M280.5,19l-5.5,9.3c-0.3,0.1-0.5,0.1-0.8,0.2l6-10.1C280.3,18.5,280.4,18.7,280.5,19z"/>
<path class="st2" d="M280.8,20.2c0,0.2,0.1,0.3,0.1,0.5l0,0c0,0.1,0,0.3,0,0.4l-3.8,6.3c-0.3,0.1-0.6,0.3-0.9,0.4L280.8,20.2z"/>
<g>
	<path class="st1" d="M324.4,93.1c-0.1-0.4-0.1-0.7-0.3-1c0,0,0,0,0-0.1c-0.1-0.2-0.2-0.3-0.2-0.5l0,0c-0.2-0.3-0.3-0.6-0.5-0.8
		c-0.1-0.2-0.3-0.3-0.4-0.4c-0.2-0.2-0.5-0.4-0.7-0.6c0,0,0,0,0,0c-0.2-0.1-0.3-0.2-0.5-0.3c-0.3-0.2-0.6-0.3-0.9-0.5
		c-0.2-0.1-0.4-0.2-0.6-0.3c-0.4-0.2-0.7-0.3-1.1-0.5c0,0,0,0,0,0c-0.1,0-0.1,0-0.2-0.1c-0.1,0-0.1-0.1-0.2-0.1c0,0-0.1,0-0.1,0
		c0,0-0.1,0-0.1,0c0,0,0,0,0,0c-0.4-0.2-0.8-0.4-1.1-0.5c-0.2-0.1-0.4-0.2-0.6-0.3c-0.1-0.1-0.3-0.1-0.4-0.2
		c-0.2-0.1-0.3-0.2-0.5-0.3c-0.2-0.1-0.3-0.3-0.4-0.4c-0.1-0.1-0.2-0.2-0.2-0.3c-0.1-0.2-0.2-0.4-0.2-0.6c-0.1-0.2-0.1-0.5,0-0.7
		c0-0.1,0-0.2,0-0.3l0,0c0.2-0.7,0.6-1.2,1.4-1.5c0.3-0.1,0.6-0.2,1-0.2c0.3,0,0.6,0,0.9,0c0.3,0,0.7,0.1,1.1,0.2c0,0,0.1,0,0.1,0
		c0.2,0.1,0.5,0.1,0.7,0.2c0.3,0.1,0.7,0.3,1,0.4c0.2,0.1,0.4,0.2,0.6,0.3c0,0,0.1,0,0.1,0.1c0.3,0.2,0.6,0.4,0.9,0.6
		c0.2,0.1,0.3,0.2,0.5,0.4c0.3,0.2,0.6,0.5,0.8,0.8c0.1,0,0.1,0.1,0.2,0.2l0.7-0.8l0,0l1.8-2.2c-0.1-0.1-0.2-0.3-0.4-0.4l-0.4-0.4
		c-0.3-0.3-0.6-0.5-0.9-0.7c-0.1-0.1-0.2-0.1-0.2-0.2c-0.1-0.1-0.2-0.1-0.3-0.2c-0.3-0.2-0.6-0.4-0.9-0.5c-0.2-0.1-0.4-0.2-0.6-0.3
		c-0.2-0.1-0.3-0.2-0.5-0.3c-0.2-0.1-0.3-0.1-0.5-0.2c-0.2-0.1-0.4-0.2-0.6-0.2c-0.3-0.1-0.6-0.2-0.9-0.3c-0.1,0-0.2,0-0.3-0.1
		c-0.2,0-0.3-0.1-0.5-0.1c-0.3-0.1-0.6-0.1-0.9-0.1c-0.3,0-0.6-0.1-0.8-0.1c-0.3,0-0.6,0-0.9,0c-0.4,0-0.7,0-1.1,0.1
		c-0.1,0-0.2,0-0.3,0c-1.3,0.3-2.4,0.8-3.2,1.7c-0.6,0.6-1.1,1.4-1.4,2.3c-0.1,0.3-0.2,0.7-0.3,1c0,0,0,0.1,0,0.1l0,0
		c-0.1,0.3-0.1,0.5-0.1,0.8l0,0c0,0.3-0.1,0.6-0.1,0.8c0,0.3,0,0.6,0,0.8c0,0.2,0.1,0.5,0.1,0.7c0.1,0.3,0.2,0.5,0.3,0.7
		c0,0,0,0,0,0.1c0.1,0.2,0.2,0.4,0.3,0.5c0.2,0.3,0.4,0.5,0.6,0.8c0.1,0.2,0.3,0.3,0.4,0.4c0.2,0.2,0.4,0.4,0.7,0.5
		c0,0,0.1,0,0.1,0.1c0.2,0.1,0.4,0.2,0.6,0.3c0.3,0.2,0.7,0.4,1.1,0.5c0.2,0.1,0.4,0.2,0.6,0.3c0.3,0.1,0.7,0.3,1,0.4l0.1,0l0.2,0.1
		c0,0,0.1,0,0.1,0c0,0,0.1,0,0.1,0c0.1,0,0.2,0.1,0.3,0.1c0.4,0.1,0.7,0.3,1,0.4c0.2,0.1,0.4,0.2,0.6,0.3c0,0,0,0,0,0
		c0.3,0.2,0.5,0.3,0.7,0.6c0.1,0.1,0.3,0.3,0.4,0.5c0,0,0,0,0,0c0.2,0.3,0.3,0.6,0.2,1c0,0.1,0,0.3-0.1,0.4l0,0
		c0,0.2-0.1,0.4-0.2,0.5l0,0c-0.3,0.5-0.7,0.9-1.3,1.1c0,0,0,0-0.1,0l0,0c-0.3,0.1-0.7,0.2-1.2,0.2c-0.4,0-0.9,0-1.4-0.1l0,0
		c-0.2,0-0.4-0.1-0.6-0.1c-0.1,0-0.1,0-0.2,0c-0.4-0.1-0.8-0.2-1.1-0.3c-0.2-0.1-0.4-0.2-0.6-0.3c-0.3-0.1-0.6-0.3-0.9-0.5
		c-0.1-0.1-0.2-0.1-0.3-0.2c-0.1,0-0.1-0.1-0.2-0.1c-0.3-0.2-0.6-0.4-0.9-0.7c-0.2-0.1-0.3-0.3-0.5-0.4c-0.3-0.3-0.5-0.5-0.8-0.8
		c-0.1-0.1-0.1-0.1-0.2-0.2l-1.1,1.2l-1.5,1.7c0.2,0.2,0.3,0.4,0.5,0.6L308,97c0.3,0.3,0.5,0.5,0.8,0.7c0.1,0.1,0.2,0.1,0.3,0.2
		c0.1,0.1,0.2,0.1,0.2,0.2c0.3,0.2,0.5,0.4,0.8,0.6c0.2,0.1,0.4,0.2,0.6,0.3c0.3,0.2,0.6,0.3,0.9,0.5c0,0,0,0,0,0
		c0.2,0.1,0.4,0.2,0.6,0.3l0,0c0.5,0.2,0.8,0.4,0.8,0.4s0.1,0,0.2,0l0,0c0.2,0,0.4,0.1,0.7,0.2c0.2,0,0.4,0.1,0.6,0.1
		c0.2,0,0.4,0.1,0.6,0.1c0.3,0.1,0.5,0.1,0.8,0.1c0.5,0.1,1,0.1,1.4,0.1c0.3,0,0.7,0,1,0c0.3,0,0.5-0.1,0.8-0.1
		c1.3-0.2,2.4-0.8,3.3-1.6c0.8-0.8,1.3-1.7,1.6-2.9c0-0.1,0.1-0.2,0.1-0.4l0,0c0-0.2,0.1-0.4,0.1-0.5c0.1-0.5,0.1-0.9,0.1-1.3
		C324.5,93.6,324.4,93.3,324.4,93.1z"/>
</g>
<path class="st2" d="M317.2,78.4l-6.2,5.1c0.1-0.4,0.2-0.7,0.3-1l4.9-4C316.5,78.4,316.8,78.4,317.2,78.4z"/>
<path class="st2" d="M319,78.5l-8.2,6.7c0-0.3,0-0.5,0.1-0.8l0,0l7.3-6C318.4,78.4,318.7,78.4,319,78.5z"/>
<path class="st2" d="M320.6,78.7l-9.7,7.9c-0.1-0.2-0.1-0.4-0.1-0.7l9.1-7.4c0.2,0,0.3,0.1,0.5,0.1
	C320.4,78.7,320.5,78.7,320.6,78.7z"/>
<path class="st2" d="M315,85.1l-3.6,2.9c-0.1-0.2-0.2-0.3-0.3-0.5l3.8-3.1C314.9,84.6,315,84.9,315,85.1z"/>
<path class="st2" d="M322.1,79.3l-3.8,3.1c-0.3,0-0.6,0-0.9,0l4.1-3.3C321.7,79.1,321.9,79.2,322.1,79.3z"/>
<path class="st2" d="M315.9,86.4l-3.4,2.8c-0.1-0.1-0.3-0.3-0.4-0.4l3.4-2.8C315.6,86.1,315.7,86.2,315.9,86.4z"/>
<path class="st2" d="M323.7,80l-3.4,2.8c-0.2-0.1-0.5-0.1-0.7-0.2l3.5-2.9C323.3,79.8,323.5,79.9,323.7,80z"/>
<path class="st2" d="M309.7,93.1c0.1,0.1,0.1,0.1,0.2,0.2l-1.2,1L309.7,93.1z"/>
<path class="st2" d="M317.3,87.2l-3.5,2.9c-0.2-0.1-0.4-0.2-0.6-0.3l3.5-2.9C316.9,87,317.1,87.1,317.3,87.2z"/>
<path class="st2" d="M324.5,80.6l-3.2,2.7c0.2,0.1,0.4,0.2,0.6,0.3l3.2-2.6L324.5,80.6z"/>
<path class="st2" d="M307.6,96.6l3.1-2.5c0.1,0.1,0.3,0.3,0.5,0.4L308,97L307.6,96.6z"/>
<path class="st2" d="M319.1,88l-3.6,2.9c-0.2-0.1-0.4-0.2-0.6-0.3l3.6-2.9c0,0,0,0,0,0c0,0,0.1,0,0.1,0c0,0,0.1,0,0.1,0
	c0.1,0,0.1,0,0.2,0.1C318.9,87.9,319,88,319.1,88C319,88,319.1,88,319.1,88z"/>
<path class="st2" d="M326.3,82.1l-3.1,2.5c-0.2-0.1-0.3-0.3-0.5-0.4l3.1-2.5L326.3,82.1z"/>
<path class="st2" d="M312.6,95.5l-3.2,2.7c-0.1-0.1-0.2-0.1-0.2-0.2c-0.1-0.1-0.2-0.1-0.3-0.2l3.2-2.6c0.1,0,0.1,0.1,0.2,0.1
	C312.4,95.3,312.5,95.4,312.6,95.5z"/>
<path class="st2" d="M320.8,88.8l-3.5,2.8c-0.1,0-0.2-0.1-0.3-0.1c0,0-0.1,0-0.1,0c0,0,0,0-0.1,0l-0.2-0.1l3.5-2.9
	C320.4,88.6,320.6,88.7,320.8,88.8z"/>
<path class="st2" d="M324.9,84.7l-0.7,0.8c-0.1-0.1-0.1-0.1-0.2-0.2L324.9,84.7z"/>
<path class="st2" d="M314.2,96.2l-3.4,2.8c-0.2-0.1-0.4-0.2-0.6-0.3l3.4-2.7C313.8,96,314,96.1,314.2,96.2z"/>
<path class="st2" d="M322.2,89.7l-3.3,2.7c-0.2-0.1-0.4-0.2-0.6-0.3l3.4-2.8C321.8,89.4,322,89.6,322.2,89.7z"/>
<path class="st2" d="M316.1,96.7l-3.8,3.1l0,0c-0.2-0.1-0.4-0.2-0.6-0.3l3.6-2.9c0.1,0,0.1,0,0.2,0
	C315.7,96.6,315.9,96.6,316.1,96.7z"/>
<path class="st2" d="M323.3,90.7l-3.3,2.7c0,0,0,0,0,0c-0.1-0.2-0.2-0.3-0.4-0.5l3.3-2.7C323.1,90.4,323.2,90.6,323.3,90.7z"/>
<path class="st2" d="M318.6,96.6l-4.6,3.7c-0.3-0.1-0.6-0.1-0.7-0.2l4.1-3.4C317.9,96.8,318.3,96.7,318.6,96.6z"/>
<path class="st2" d="M324.1,92.1l-4.1,3.3c0.1-0.2,0.1-0.3,0.2-0.5l0,0c0-0.1,0.1-0.3,0.1-0.4l3.6-2.9
	C323.9,91.7,324,91.9,324.1,92.1C324.1,92,324.1,92.1,324.1,92.1z"/>
<path class="st2" d="M324.5,93.8l-8.4,6.9c-0.3,0-0.5-0.1-0.8-0.1l9.1-7.5C324.4,93.3,324.5,93.6,324.5,93.8z"/>
<path class="st2" d="M324.4,95.1c0,0.2-0.1,0.3-0.1,0.5l0,0c0,0.1-0.1,0.3-0.1,0.4l-5.7,4.7c-0.3,0-0.6,0-1,0L324.4,95.1z"/>
<g>
	<path class="st1" d="M401.4,20.8c-0.3-0.4-0.6-0.8-1-1c0,0-0.1,0-0.1-0.1c-0.2-0.2-0.4-0.3-0.6-0.4l0,0c-0.4-0.2-0.8-0.4-1.2-0.6
		c-0.3-0.1-0.5-0.2-0.8-0.3c-0.4-0.1-0.8-0.2-1.3-0.2c0,0,0,0-0.1,0c-0.3,0-0.6,0-0.9-0.1c-0.4,0-0.9,0-1.4,0c-0.3,0-0.6,0-0.9,0
		c-0.5,0-1.1,0.1-1.7,0.1c0,0,0,0-0.1,0c-0.1,0-0.2,0-0.2,0c-0.1,0-0.2,0-0.2,0c-0.1,0-0.1,0-0.2,0c-0.1,0-0.1,0-0.2,0c0,0,0,0,0,0
		c-0.6,0.1-1.2,0.1-1.7,0.1c-0.3,0-0.6,0-0.9,0c-0.2,0-0.4,0-0.6,0c-0.3,0-0.6,0-0.8-0.1c-0.3-0.1-0.5-0.1-0.8-0.2
		c-0.2-0.1-0.3-0.1-0.5-0.2c-0.2-0.1-0.5-0.3-0.6-0.5c-0.2-0.2-0.4-0.5-0.5-0.9c-0.1-0.1-0.1-0.2-0.1-0.4l0,0
		c-0.3-1-0.1-1.9,0.7-2.8c0.3-0.3,0.6-0.6,1.1-0.9c0.3-0.2,0.7-0.4,1.1-0.6c0.4-0.2,0.9-0.4,1.5-0.5c0.1,0,0.1,0,0.2-0.1
		c0.3-0.1,0.6-0.2,1-0.2c0.5-0.1,1-0.1,1.5-0.2c0.3,0,0.6,0,0.9,0c0.1,0,0.1,0,0.2,0c0.5,0,1,0.1,1.4,0.1c0.3,0,0.6,0.1,0.8,0.1
		c0.5,0.1,1,0.2,1.5,0.4c0.1,0,0.2,0.1,0.3,0.1l0.3-1.5l0,0l0.7-3.9c-0.2-0.1-0.5-0.1-0.7-0.2l-0.8-0.2c-0.5-0.1-1-0.2-1.5-0.3
		c-0.1,0-0.3,0-0.4-0.1c-0.1,0-0.3,0-0.4,0c-0.5,0-0.9-0.1-1.4-0.1c-0.3,0-0.6,0-0.9,0c-0.3,0-0.5,0-0.8,0c-0.2,0-0.5,0-0.7,0.1
		c-0.3,0-0.6,0.1-0.9,0.1c-0.4,0.1-0.9,0.2-1.3,0.3c-0.1,0-0.2,0.1-0.4,0.1c-0.2,0.1-0.4,0.1-0.6,0.2c-0.4,0.1-0.8,0.3-1.1,0.4
		c-0.4,0.2-0.7,0.3-1.1,0.5c-0.4,0.2-0.8,0.4-1.1,0.6c-0.4,0.3-0.8,0.5-1.2,0.8c-0.1,0.1-0.2,0.2-0.3,0.2c-1.4,1.2-2.3,2.6-2.8,4.2
		c-0.3,1.2-0.4,2.4-0.2,3.7c0.1,0.5,0.2,0.9,0.3,1.4c0,0,0,0.1,0,0.1l0,0c0.1,0.4,0.2,0.7,0.4,1.1l0,0c0.1,0.4,0.3,0.7,0.5,1
		c0.2,0.3,0.4,0.7,0.6,1c0.2,0.3,0.4,0.5,0.6,0.7c0.3,0.3,0.5,0.5,0.8,0.7c0,0,0.1,0,0.1,0.1c0.2,0.2,0.5,0.3,0.7,0.4
		c0.4,0.2,0.8,0.4,1.2,0.5c0.3,0.1,0.5,0.2,0.8,0.2c0.4,0.1,0.8,0.1,1.2,0.2c0.1,0,0.1,0,0.2,0c0.3,0,0.6,0,0.9,0
		c0.5,0,1.1,0,1.7-0.1c0.3,0,0.6,0,0.9-0.1c0.5-0.1,1-0.1,1.6-0.2l0.2,0l0.3,0c0,0,0.1,0,0.1,0c0,0,0.1,0,0.1,0c0.1,0,0.3,0,0.4-0.1
		c0.5-0.1,1-0.1,1.5-0.1c0.3,0,0.6,0,0.9,0c0,0,0.1,0,0.1,0c0.5,0,0.9,0.1,1.3,0.2c0.3,0.1,0.5,0.2,0.7,0.3c0,0,0,0,0,0
		c0.4,0.2,0.8,0.6,1,1.1c0.1,0.2,0.2,0.3,0.2,0.5l0,0c0.1,0.3,0.1,0.5,0.1,0.8l0,0c0,0.8-0.2,1.6-0.8,2.2c0,0,0,0.1-0.1,0.1l0,0
		c-0.3,0.4-0.8,0.7-1.3,1c-0.5,0.3-1.1,0.6-1.8,0.8l0,0c-0.2,0.1-0.5,0.2-0.8,0.3c-0.1,0-0.2,0-0.2,0.1c-0.5,0.1-1,0.3-1.6,0.4
		c-0.3,0.1-0.6,0.1-0.9,0.1c-0.5,0.1-1,0.1-1.5,0.1c-0.2,0-0.4,0-0.6,0c-0.1,0-0.2,0-0.3,0c-0.5,0-1.1-0.1-1.6-0.2
		c-0.3,0-0.5-0.1-0.8-0.2c-0.5-0.1-1-0.3-1.5-0.5c-0.1,0-0.2-0.1-0.3-0.1l-0.5,2.2l-0.7,3.1c0.3,0.1,0.6,0.3,1,0.4l0.8,0.2
		c0.5,0.1,1,0.2,1.5,0.3c0.1,0,0.3,0,0.4,0.1c0.1,0,0.3,0,0.4,0.1c0.5,0.1,0.9,0.1,1.4,0.1c0.3,0,0.6,0,0.9,0c0.5,0,1,0,1.5-0.1
		c0,0,0,0,0,0c0.3,0,0.7-0.1,0.9-0.1l0,0c0.8-0.1,1.2-0.1,1.2-0.1s0.1,0,0.3-0.1l0,0c0.2-0.1,0.6-0.2,1-0.3c0.2-0.1,0.5-0.1,0.8-0.2
		c0.3-0.1,0.6-0.2,0.9-0.3c0.4-0.1,0.7-0.2,1-0.4c0.6-0.3,1.2-0.5,1.8-0.8c0.4-0.2,0.8-0.5,1.2-0.7c0.3-0.2,0.6-0.4,0.9-0.6
		c1.5-1.2,2.4-2.6,2.9-4.2c0.4-1.4,0.4-3,0-4.7c0-0.2-0.1-0.3-0.1-0.5l0,0c-0.1-0.2-0.2-0.5-0.2-0.7c-0.2-0.6-0.5-1.2-0.8-1.7
		C401.8,21.3,401.6,21.1,401.4,20.8z"/>
</g>
<path class="st2" d="M382.7,7.8l-4.1,10.4c-0.1-0.5-0.2-1-0.3-1.4l3.2-8.1C381.9,8.4,382.3,8.1,382.7,7.8z"/>
<path class="st2" d="M385,6.7l-5.4,13.7c-0.2-0.3-0.3-0.7-0.5-1l0,0l4.8-12.2C384.2,7,384.6,6.9,385,6.7z"/>
<path class="st2" d="M387.1,6l-6.4,16.1c-0.2-0.2-0.4-0.5-0.6-0.7l6-15.1c0.2-0.1,0.4-0.1,0.6-0.2C386.8,6.1,387,6,387.1,6z"/>
<path class="st2" d="M384.6,17.4l-2.4,5.9c-0.2-0.1-0.5-0.3-0.7-0.4l2.5-6.4C384.2,16.9,384.4,17.2,384.6,17.4z"/>
<path class="st2" d="M389.4,5.6l-2.5,6.3c-0.4,0.2-0.8,0.4-1.1,0.6l2.7-6.8C388.7,5.7,389,5.6,389.4,5.6z"/>
<path class="st2" d="M386.6,18.4l-2.3,5.7c-0.3-0.1-0.5-0.1-0.8-0.2l2.3-5.7C386,18.3,386.3,18.3,386.6,18.4z"/>
<path class="st2" d="M391.7,5.5l-2.2,5.6c-0.3,0.1-0.7,0.1-1,0.2l2.3-5.8C391.1,5.5,391.4,5.5,391.7,5.5z"/>
<path class="st2" d="M383.6,30.6c0.1,0,0.2,0.1,0.3,0.1l-0.8,2.1L383.6,30.6z"/>
<path class="st2" d="M388.9,18.4l-2.3,5.9c-0.3,0-0.6,0-0.9,0l2.3-5.8C388.2,18.5,388.5,18.5,388.9,18.4z"/>
<path class="st2" d="M393.1,5.5L391,11c0.3,0,0.6,0,0.9,0l2.1-5.3L393.1,5.5z"/>
<path class="st2" d="M383.4,36.3l2-5.1c0.3,0.1,0.5,0.1,0.8,0.2l-2,5.1L383.4,36.3z"/>
<path class="st2" d="M391.5,18.2l-2.4,6c-0.3,0-0.6,0.1-0.9,0.1l2.4-5.9c0,0,0,0,0,0c0.1,0,0.1,0,0.2,0c0.1,0,0.1,0,0.2,0
	c0.1,0,0.2,0,0.2,0C391.3,18.2,391.4,18.2,391.5,18.2C391.5,18.2,391.5,18.2,391.5,18.2z"/>
<path class="st2" d="M396.3,6.1l-2,5.1c-0.3-0.1-0.6-0.1-0.8-0.1l2.1-5.2L396.3,6.1z"/>
<path class="st2" d="M388.7,31.6l-2.1,5.4c-0.1,0-0.3,0-0.4-0.1c-0.1,0-0.3,0-0.4-0.1l2.1-5.3c0.1,0,0.2,0,0.3,0
	C388.4,31.6,388.5,31.6,388.7,31.6z"/>
<path class="st2" d="M394.1,18.1l-2.3,5.8c-0.1,0-0.3,0-0.4,0.1c0,0-0.1,0-0.1,0c0,0-0.1,0-0.1,0l-0.3,0l2.3-5.9
	C393.5,18.1,393.8,18.1,394.1,18.1z"/>
<path class="st2" d="M396.3,10.3l-0.3,1.5c-0.1,0-0.2-0.1-0.3-0.1L396.3,10.3z"/>
<path class="st2" d="M391.1,31.4l-2.3,5.7c-0.3,0-0.6,0-0.9,0l2.2-5.6C390.5,31.5,390.8,31.5,391.1,31.4z"/>
<path class="st2" d="M396.4,18.1l-2.2,5.5c-0.3,0-0.6,0-0.9,0l2.2-5.6C395.8,18.1,396.1,18.1,396.4,18.1z"/>
<path class="st2" d="M393.7,30.7l-2.5,6.2l0,0c-0.3,0-0.6,0.1-0.9,0.1l2.4-6c0.1,0,0.2,0,0.2-0.1C393.2,30.9,393.5,30.8,393.7,30.7z
	"/>
<path class="st2" d="M398.5,18.7l-2.2,5.5c0,0,0,0,0,0c-0.2-0.1-0.5-0.2-0.7-0.3l2.2-5.4C398,18.5,398.3,18.6,398.5,18.7z"/>
<path class="st2" d="M396.8,28.9l-3,7.6c-0.5,0.1-0.8,0.2-1,0.3l2.7-6.9C396,29.6,396.4,29.3,396.8,28.9z"/>
<path class="st2" d="M400.4,19.8l-2.7,6.8c0-0.3-0.1-0.5-0.1-0.8l0,0c-0.1-0.2-0.1-0.4-0.2-0.5l2.4-6
	C399.9,19.4,400.1,19.5,400.4,19.8C400.3,19.7,400.4,19.7,400.4,19.8z"/>
<path class="st2" d="M402,21.6l-5.5,13.9c-0.3,0.1-0.7,0.3-1,0.4l6-15.2C401.6,21.1,401.8,21.3,402,21.6z"/>
<path class="st2" d="M402.7,23.3c0.1,0.2,0.2,0.5,0.2,0.7l0,0c0.1,0.2,0.1,0.3,0.1,0.5l-3.8,9.5c-0.4,0.3-0.8,0.5-1.2,0.7
	L402.7,23.3z"/>
<g>
	<path class="st1" d="M346.2,50.8c-0.2-0.3-0.4-0.6-0.7-0.8c0,0,0,0-0.1-0.1c-0.1-0.1-0.3-0.2-0.4-0.3l0,0c-0.3-0.2-0.5-0.4-0.8-0.5
		c-0.2-0.1-0.4-0.2-0.5-0.3c-0.3-0.1-0.6-0.2-0.9-0.3c0,0,0,0,0,0c-0.2,0-0.4-0.1-0.6-0.1c-0.3,0-0.7-0.1-1-0.1c-0.2,0-0.4,0-0.6,0
		c-0.4,0-0.8,0-1.2,0c0,0,0,0-0.1,0c-0.1,0-0.1,0-0.2,0c-0.1,0-0.1,0-0.2,0c0,0-0.1,0-0.1,0c0,0-0.1,0-0.1,0c0,0,0,0,0,0
		c-0.5,0-0.9,0-1.2,0c-0.2,0-0.5,0-0.7,0c-0.1,0-0.3,0-0.4,0c-0.2,0-0.4-0.1-0.6-0.1c-0.2-0.1-0.4-0.1-0.6-0.2
		c-0.1-0.1-0.2-0.1-0.3-0.2c-0.2-0.1-0.3-0.3-0.4-0.4c-0.1-0.2-0.2-0.4-0.3-0.7c0-0.1-0.1-0.2-0.1-0.3l0,0c-0.1-0.7,0.1-1.4,0.7-1.9
		c0.2-0.2,0.5-0.4,0.8-0.6c0.3-0.1,0.5-0.2,0.8-0.4c0.3-0.1,0.7-0.2,1.1-0.3c0,0,0.1,0,0.1,0c0.2,0,0.5-0.1,0.7-0.1
		c0.3,0,0.7,0,1.1,0c0.2,0,0.4,0,0.6,0.1c0,0,0.1,0,0.1,0c0.3,0,0.7,0.1,1,0.2c0.2,0,0.4,0.1,0.6,0.2c0.4,0.1,0.7,0.2,1.1,0.4
		c0.1,0,0.1,0.1,0.2,0.1l0.3-1l0,0l0.8-2.8c-0.2-0.1-0.3-0.1-0.5-0.2l-0.6-0.2c-0.4-0.1-0.7-0.2-1.1-0.3c-0.1,0-0.2,0-0.3-0.1
		c-0.1,0-0.2,0-0.3-0.1c-0.3-0.1-0.7-0.1-1-0.2c-0.2,0-0.4,0-0.6-0.1c-0.2,0-0.4,0-0.6,0c-0.2,0-0.3,0-0.5,0c-0.2,0-0.5,0-0.7,0
		c-0.3,0-0.6,0.1-1,0.1c-0.1,0-0.2,0-0.3,0.1c-0.2,0-0.3,0.1-0.5,0.1c-0.3,0.1-0.6,0.1-0.8,0.2c-0.3,0.1-0.5,0.2-0.8,0.3
		c-0.3,0.1-0.6,0.2-0.9,0.4c-0.3,0.2-0.6,0.3-0.9,0.5c-0.1,0.1-0.2,0.1-0.2,0.2c-1.1,0.8-1.8,1.7-2.3,2.8c-0.3,0.8-0.4,1.7-0.4,2.6
		c0,0.3,0.1,0.7,0.1,1c0,0,0,0.1,0,0.1l0,0c0.1,0.3,0.1,0.5,0.2,0.8l0,0c0.1,0.3,0.2,0.5,0.3,0.8c0.1,0.3,0.2,0.5,0.4,0.7
		c0.1,0.2,0.2,0.4,0.4,0.6c0.2,0.2,0.3,0.4,0.5,0.6c0,0,0,0,0.1,0c0.2,0.1,0.3,0.3,0.5,0.4c0.3,0.2,0.5,0.3,0.8,0.5
		c0.2,0.1,0.4,0.2,0.6,0.2c0.3,0.1,0.6,0.2,0.8,0.2c0,0,0.1,0,0.1,0c0.2,0,0.4,0.1,0.6,0.1c0.4,0,0.8,0.1,1.2,0.1c0.2,0,0.4,0,0.7,0
		c0.4,0,0.7,0,1.1,0l0.1,0l0.2,0c0,0,0.1,0,0.1,0c0,0,0.1,0,0.1,0c0.1,0,0.2,0,0.3,0c0.4,0,0.8,0,1.1,0c0.2,0,0.5,0,0.7,0
		c0,0,0,0,0.1,0c0.3,0,0.6,0.1,0.9,0.2c0.2,0.1,0.4,0.2,0.5,0.3c0,0,0,0,0,0c0.3,0.2,0.5,0.5,0.6,0.9c0,0.1,0.1,0.3,0.1,0.4l0,0
		c0,0.2,0.1,0.4,0,0.6l0,0c0,0.6-0.3,1.1-0.8,1.6c0,0,0,0-0.1,0.1l0,0c-0.3,0.2-0.6,0.5-1,0.6c-0.4,0.2-0.8,0.3-1.3,0.5l0,0
		c-0.2,0-0.4,0.1-0.6,0.1c-0.1,0-0.1,0-0.2,0c-0.4,0.1-0.8,0.1-1.2,0.1c-0.2,0-0.5,0-0.7,0c-0.4,0-0.7,0-1.1,0c-0.1,0-0.3,0-0.4,0
		c-0.1,0-0.2,0-0.2,0c-0.4-0.1-0.8-0.1-1.1-0.2c-0.2-0.1-0.4-0.1-0.6-0.2c-0.4-0.1-0.7-0.3-1-0.4c-0.1,0-0.2-0.1-0.2-0.1l-0.5,1.5
		l-0.7,2.2c0.2,0.1,0.4,0.2,0.7,0.3l0.6,0.2c0.3,0.1,0.7,0.2,1.1,0.3c0.1,0,0.2,0.1,0.3,0.1c0.1,0,0.2,0,0.3,0.1
		c0.3,0.1,0.7,0.1,1,0.2c0.2,0,0.4,0.1,0.6,0.1c0.3,0,0.7,0,1,0.1c0,0,0,0,0,0c0.3,0,0.5,0,0.7,0l0,0c0.6,0,0.9,0,0.9,0s0.1,0,0.2,0
		l0,0c0.2,0,0.4-0.1,0.7-0.1c0.2,0,0.4-0.1,0.6-0.1c0.2,0,0.4-0.1,0.6-0.1c0.3-0.1,0.5-0.1,0.8-0.2c0.5-0.1,0.9-0.3,1.3-0.5
		c0.3-0.1,0.6-0.3,0.9-0.4c0.2-0.1,0.5-0.3,0.7-0.4c1.1-0.8,1.9-1.7,2.4-2.8c0.4-1,0.5-2.1,0.3-3.3c0-0.1,0-0.3-0.1-0.4l0,0
		c0-0.2-0.1-0.4-0.1-0.5c-0.1-0.5-0.3-0.9-0.4-1.3C346.5,51.2,346.3,51,346.2,50.8z"/>
</g>
<path class="st2" d="M333.7,40.2l-3.7,7.2c-0.1-0.4-0.1-0.7-0.1-1l2.9-5.6C333.1,40.5,333.4,40.3,333.7,40.2z"/>
<path class="st2" d="M335.4,39.6l-4.9,9.5c-0.1-0.2-0.2-0.5-0.3-0.8l0,0l4.3-8.4C334.8,39.7,335.1,39.6,335.4,39.6z"/>
<path class="st2" d="M336.9,39.2l-5.7,11.1c-0.1-0.2-0.3-0.4-0.4-0.6l5.3-10.4c0.2,0,0.3-0.1,0.5-0.1
	C336.8,39.2,336.9,39.2,336.9,39.2z"/>
<path class="st2" d="M334.4,47.2l-2.1,4.1c-0.2-0.1-0.3-0.2-0.5-0.4l2.3-4.4C334.2,46.8,334.3,47,334.4,47.2z"/>
<path class="st2" d="M338.6,39l-2.2,4.4c-0.3,0.1-0.6,0.2-0.8,0.4l2.4-4.7C338.1,39,338.4,39,338.6,39z"/>
<path class="st2" d="M335.7,48l-2,4c-0.2-0.1-0.4-0.1-0.6-0.2l2-4C335.3,47.9,335.5,48,335.7,48z"/>
<path class="st2" d="M340.3,39.1l-2,3.9c-0.2,0-0.5,0-0.7,0.1l2.1-4C339.9,39.1,340.1,39.1,340.3,39.1z"/>
<path class="st2" d="M332.8,56.6c0.1,0,0.2,0.1,0.2,0.1l-0.7,1.4L332.8,56.6z"/>
<path class="st2" d="M337.4,48.2l-2.1,4.1c-0.2,0-0.4,0-0.6-0.1l2.1-4C336.9,48.2,337.1,48.2,337.4,48.2z"/>
<path class="st2" d="M341.3,39.3l-1.9,3.7c0.2,0,0.4,0,0.6,0.1l1.9-3.7L341.3,39.3z"/>
<path class="st2" d="M332.2,60.7l1.8-3.5c0.2,0.1,0.4,0.1,0.6,0.2l-1.8,3.6L332.2,60.7z"/>
<path class="st2" d="M339.3,48.3l-2.1,4.1c-0.2,0-0.5,0-0.7,0l2.1-4.1c0,0,0,0,0,0c0,0,0.1,0,0.1,0c0,0,0.1,0,0.1,0
	c0.1,0,0.1,0,0.2,0C339.1,48.3,339.2,48.3,339.3,48.3C339.2,48.3,339.3,48.3,339.3,48.3z"/>
<path class="st2" d="M343.6,39.9l-1.8,3.5c-0.2-0.1-0.4-0.1-0.6-0.2l1.8-3.6L343.6,39.9z"/>
<path class="st2" d="M336.4,57.7l-1.9,3.7c-0.1,0-0.2,0-0.3-0.1c-0.1,0-0.2-0.1-0.3-0.1l1.9-3.7c0.1,0,0.2,0,0.2,0
	C336.1,57.7,336.2,57.7,336.4,57.7z"/>
<path class="st2" d="M341.2,48.3l-2,4c-0.1,0-0.2,0-0.3,0c0,0-0.1,0-0.1,0c0,0-0.1,0-0.1,0l-0.2,0l2.1-4.1
	C340.7,48.3,341,48.3,341.2,48.3z"/>
<path class="st2" d="M343.3,42.9l-0.3,1c-0.1,0-0.1-0.1-0.2-0.1L343.3,42.9z"/>
<path class="st2" d="M338.1,57.7l-2,3.9c-0.2,0-0.4,0-0.6-0.1l2-3.9C337.6,57.7,337.9,57.7,338.1,57.7z"/>
<path class="st2" d="M342.8,48.5l-1.9,3.8c-0.2,0-0.4,0-0.7,0l2-3.9C342.4,48.5,342.6,48.5,342.8,48.5z"/>
<path class="st2" d="M340,57.4l-2.2,4.3l0,0c-0.2,0-0.4,0-0.7,0l2.1-4.1c0.1,0,0.1,0,0.2,0C339.6,57.5,339.8,57.4,340,57.4z"/>
<path class="st2" d="M344.3,49.1l-1.9,3.8c0,0,0,0,0,0c-0.2-0.1-0.3-0.2-0.5-0.3l1.9-3.8C343.9,48.9,344.1,49,344.3,49.1z"/>
<path class="st2" d="M342.3,56.3l-2.7,5.2c-0.3,0.1-0.6,0.1-0.7,0.1l2.4-4.7C341.7,56.8,342,56.5,342.3,56.3z"/>
<path class="st2" d="M345.6,50l-2.4,4.7c0-0.2,0-0.4,0-0.6l0,0c0-0.1-0.1-0.3-0.1-0.4l2.1-4.1C345.2,49.7,345.4,49.8,345.6,50
	C345.5,49.9,345.5,50,345.6,50z"/>
<path class="st2" d="M346.6,51.4l-4.9,9.6c-0.3,0.1-0.5,0.1-0.8,0.2l5.4-10.5C346.3,51,346.5,51.2,346.6,51.4z"/>
<path class="st2" d="M347,52.7c0,0.2,0.1,0.3,0.1,0.5l0,0c0,0.1,0,0.3,0.1,0.4l-3.4,6.5c-0.3,0.2-0.6,0.3-0.9,0.4L347,52.7z"/>
<g>
	<path class="st1" d="M397.4,80.1c-0.1-0.4-0.1-0.7-0.3-1c0,0,0,0,0-0.1c-0.1-0.2-0.2-0.3-0.2-0.5l0,0c-0.2-0.3-0.3-0.6-0.5-0.8
		c-0.1-0.2-0.3-0.3-0.4-0.4c-0.2-0.2-0.5-0.4-0.7-0.6c0,0,0,0,0,0c-0.2-0.1-0.3-0.2-0.5-0.3c-0.3-0.2-0.6-0.3-0.9-0.5
		c-0.2-0.1-0.4-0.2-0.6-0.3c-0.4-0.2-0.7-0.3-1.1-0.5c0,0,0,0,0,0c-0.1,0-0.1,0-0.2-0.1c-0.1,0-0.1-0.1-0.2-0.1c0,0-0.1,0-0.1,0
		c0,0-0.1,0-0.1,0c0,0,0,0,0,0c-0.4-0.2-0.8-0.4-1.1-0.5c-0.2-0.1-0.4-0.2-0.6-0.3c-0.1-0.1-0.3-0.1-0.4-0.2
		c-0.2-0.1-0.3-0.2-0.5-0.3c-0.2-0.1-0.3-0.3-0.4-0.4c-0.1-0.1-0.2-0.2-0.2-0.3c-0.1-0.2-0.2-0.4-0.2-0.6c-0.1-0.2-0.1-0.5,0-0.7
		c0-0.1,0-0.2,0-0.3l0,0c0.2-0.7,0.6-1.2,1.4-1.5c0.3-0.1,0.6-0.2,1-0.2c0.3,0,0.6,0,0.9,0c0.3,0,0.7,0.1,1.1,0.2c0,0,0.1,0,0.1,0
		c0.2,0.1,0.5,0.1,0.7,0.2c0.3,0.1,0.7,0.3,1,0.4c0.2,0.1,0.4,0.2,0.6,0.3c0,0,0.1,0,0.1,0.1c0.3,0.2,0.6,0.4,0.9,0.6
		c0.2,0.1,0.3,0.2,0.5,0.4c0.3,0.2,0.6,0.5,0.8,0.8c0.1,0,0.1,0.1,0.2,0.2l0.7-0.8l0,0l1.8-2.2c-0.1-0.1-0.2-0.3-0.4-0.4l-0.4-0.4
		c-0.3-0.3-0.6-0.5-0.9-0.7c-0.1-0.1-0.2-0.1-0.2-0.2c-0.1-0.1-0.2-0.1-0.3-0.2c-0.3-0.2-0.6-0.4-0.9-0.5c-0.2-0.1-0.4-0.2-0.6-0.3
		c-0.2-0.1-0.3-0.2-0.5-0.3c-0.2-0.1-0.3-0.1-0.5-0.2c-0.2-0.1-0.4-0.2-0.6-0.2c-0.3-0.1-0.6-0.2-0.9-0.3c-0.1,0-0.2,0-0.3-0.1
		c-0.2,0-0.3-0.1-0.5-0.1c-0.3-0.1-0.6-0.1-0.9-0.1c-0.3,0-0.6-0.1-0.8-0.1c-0.3,0-0.6,0-0.9,0c-0.4,0-0.7,0-1.1,0.1
		c-0.1,0-0.2,0-0.3,0c-1.3,0.3-2.4,0.8-3.2,1.7c-0.6,0.6-1.1,1.4-1.4,2.3c-0.1,0.3-0.2,0.7-0.3,1c0,0,0,0.1,0,0.1l0,0
		c-0.1,0.3-0.1,0.5-0.1,0.8l0,0c0,0.3-0.1,0.6-0.1,0.8c0,0.3,0,0.6,0,0.8c0,0.2,0.1,0.5,0.1,0.7c0.1,0.3,0.2,0.5,0.3,0.7
		c0,0,0,0,0,0.1c0.1,0.2,0.2,0.4,0.3,0.5c0.2,0.3,0.4,0.5,0.6,0.8c0.1,0.2,0.3,0.3,0.4,0.4c0.2,0.2,0.4,0.4,0.7,0.5
		c0,0,0.1,0,0.1,0.1c0.2,0.1,0.4,0.2,0.6,0.3c0.3,0.2,0.7,0.4,1.1,0.5c0.2,0.1,0.4,0.2,0.6,0.3c0.3,0.1,0.7,0.3,1,0.4l0.1,0l0.2,0.1
		c0,0,0.1,0,0.1,0c0,0,0.1,0,0.1,0c0.1,0,0.2,0.1,0.3,0.1c0.4,0.1,0.7,0.3,1,0.4c0.2,0.1,0.4,0.2,0.6,0.3c0,0,0,0,0,0
		c0.3,0.2,0.5,0.3,0.7,0.6c0.1,0.1,0.3,0.3,0.4,0.5c0,0,0,0,0,0c0.2,0.3,0.3,0.6,0.2,1c0,0.1,0,0.3-0.1,0.4l0,0
		c0,0.2-0.1,0.4-0.2,0.5l0,0c-0.3,0.5-0.7,0.9-1.3,1.1c0,0,0,0-0.1,0l0,0c-0.3,0.1-0.7,0.2-1.2,0.2c-0.4,0-0.9,0-1.4-0.1l0,0
		c-0.2,0-0.4-0.1-0.6-0.1c-0.1,0-0.1,0-0.2,0c-0.4-0.1-0.8-0.2-1.1-0.3c-0.2-0.1-0.4-0.2-0.6-0.3c-0.3-0.1-0.6-0.3-0.9-0.5
		c-0.1-0.1-0.2-0.1-0.3-0.2c-0.1,0-0.1-0.1-0.2-0.1c-0.3-0.2-0.6-0.4-0.9-0.7c-0.2-0.1-0.3-0.3-0.5-0.4c-0.3-0.3-0.5-0.5-0.8-0.8
		c-0.1-0.1-0.1-0.1-0.2-0.2l-1.1,1.2l-1.5,1.7c0.2,0.2,0.3,0.4,0.5,0.6L381,84c0.3,0.3,0.5,0.5,0.8,0.7c0.1,0.1,0.2,0.1,0.3,0.2
		c0.1,0.1,0.2,0.1,0.2,0.2c0.3,0.2,0.5,0.4,0.8,0.6c0.2,0.1,0.4,0.2,0.6,0.3c0.3,0.2,0.6,0.3,0.9,0.5c0,0,0,0,0,0
		c0.2,0.1,0.4,0.2,0.6,0.3l0,0c0.5,0.2,0.8,0.4,0.8,0.4s0.1,0,0.2,0l0,0c0.2,0,0.4,0.1,0.7,0.2c0.2,0,0.4,0.1,0.6,0.1
		c0.2,0,0.4,0.1,0.6,0.1c0.3,0.1,0.5,0.1,0.8,0.1c0.5,0.1,1,0.1,1.4,0.1c0.3,0,0.7,0,1,0c0.3,0,0.5-0.1,0.8-0.1
		c1.3-0.2,2.4-0.8,3.3-1.6c0.8-0.8,1.3-1.7,1.6-2.9c0-0.1,0.1-0.2,0.1-0.4l0,0c0-0.2,0.1-0.4,0.1-0.5c0.1-0.5,0.1-0.9,0.1-1.3
		C397.5,80.6,397.4,80.3,397.4,80.1z"/>
</g>
<path class="st2" d="M390.2,65.4l-6.2,5.1c0.1-0.4,0.2-0.7,0.3-1l4.9-4C389.5,65.4,389.8,65.4,390.2,65.4z"/>
<path class="st2" d="M392,65.5l-8.2,6.7c0-0.3,0-0.5,0.1-0.8l0,0l7.3-6C391.4,65.4,391.7,65.4,392,65.5z"/>
<path class="st2" d="M393.6,65.7l-9.7,7.9c-0.1-0.2-0.1-0.4-0.1-0.7l9.1-7.4c0.2,0,0.3,0.1,0.5,0.1
	C393.4,65.7,393.5,65.7,393.6,65.7z"/>
<path class="st2" d="M388,72.1l-3.6,2.9c-0.1-0.2-0.2-0.3-0.3-0.5l3.8-3.1C387.9,71.6,388,71.9,388,72.1z"/>
<path class="st2" d="M395.1,66.3l-3.8,3.1c-0.3,0-0.6,0-0.9,0l4.1-3.3C394.7,66.1,394.9,66.2,395.1,66.3z"/>
<path class="st2" d="M388.9,73.4l-3.4,2.8c-0.1-0.1-0.3-0.3-0.4-0.4l3.4-2.8C388.6,73.1,388.7,73.2,388.9,73.4z"/>
<path class="st2" d="M396.7,67l-3.4,2.8c-0.2-0.1-0.5-0.1-0.7-0.2l3.5-2.9C396.3,66.8,396.5,66.9,396.7,67z"/>
<path class="st2" d="M382.7,80.1c0.1,0.1,0.1,0.1,0.2,0.2l-1.2,1L382.7,80.1z"/>
<path class="st2" d="M390.3,74.2l-3.5,2.9c-0.2-0.1-0.4-0.2-0.6-0.3l3.5-2.9C389.9,74,390.1,74.1,390.3,74.2z"/>
<path class="st2" d="M397.5,67.6l-3.2,2.7c0.2,0.1,0.4,0.2,0.6,0.3l3.2-2.6L397.5,67.6z"/>
<path class="st2" d="M380.6,83.6l3.1-2.5c0.1,0.1,0.3,0.3,0.5,0.4L381,84L380.6,83.6z"/>
<path class="st2" d="M392.1,75l-3.6,2.9c-0.2-0.1-0.4-0.2-0.6-0.3l3.6-2.9c0,0,0,0,0,0c0,0,0.1,0,0.1,0c0,0,0.1,0,0.1,0
	c0.1,0,0.1,0,0.2,0.1C391.9,74.9,392,75,392.1,75C392,75,392.1,75,392.1,75z"/>
<path class="st2" d="M399.3,69.1l-3.1,2.5c-0.2-0.1-0.3-0.3-0.5-0.4l3.1-2.5L399.3,69.1z"/>
<path class="st2" d="M385.6,82.5l-3.2,2.7c-0.1-0.1-0.2-0.1-0.2-0.2c-0.1-0.1-0.2-0.1-0.3-0.2l3.2-2.6c0.1,0,0.1,0.1,0.2,0.1
	C385.4,82.3,385.5,82.4,385.6,82.5z"/>
<path class="st2" d="M393.8,75.8l-3.5,2.8c-0.1,0-0.2-0.1-0.3-0.1c0,0-0.1,0-0.1,0c0,0,0,0-0.1,0l-0.2-0.1l3.5-2.9
	C393.4,75.6,393.6,75.7,393.8,75.8z"/>
<path class="st2" d="M397.9,71.7l-0.7,0.8c-0.1-0.1-0.1-0.1-0.2-0.2L397.9,71.7z"/>
<path class="st2" d="M387.2,83.2l-3.4,2.8c-0.2-0.1-0.4-0.2-0.6-0.3l3.4-2.7C386.8,83,387,83.1,387.2,83.2z"/>
<path class="st2" d="M395.2,76.7l-3.3,2.7c-0.2-0.1-0.4-0.2-0.6-0.3l3.4-2.8C394.8,76.4,395,76.6,395.2,76.7z"/>
<path class="st2" d="M389.1,83.7l-3.8,3.1l0,0c-0.2-0.1-0.4-0.2-0.6-0.3l3.6-2.9c0.1,0,0.1,0,0.2,0
	C388.7,83.6,388.9,83.6,389.1,83.7z"/>
<path class="st2" d="M396.3,77.7l-3.3,2.7c0,0,0,0,0,0c-0.1-0.2-0.2-0.3-0.4-0.5l3.3-2.7C396.1,77.4,396.2,77.6,396.3,77.7z"/>
<path class="st2" d="M391.6,83.6l-4.6,3.7c-0.3-0.1-0.6-0.1-0.7-0.2l4.1-3.4C390.9,83.8,391.3,83.7,391.6,83.6z"/>
<path class="st2" d="M397.1,79.1l-4.1,3.3c0.1-0.2,0.1-0.3,0.2-0.5l0,0c0-0.1,0.1-0.3,0.1-0.4l3.6-2.9
	C396.9,78.7,397,78.9,397.1,79.1C397.1,79,397.1,79.1,397.1,79.1z"/>
<path class="st2" d="M397.5,80.8l-8.4,6.9c-0.3,0-0.5-0.1-0.8-0.1l9.1-7.5C397.4,80.3,397.5,80.6,397.5,80.8z"/>
<path class="st2" d="M397.4,82.1c0,0.2-0.1,0.3-0.1,0.5l0,0c0,0.1-0.1,0.3-0.1,0.4l-5.7,4.7c-0.3,0-0.6,0-1,0L397.4,82.1z"/>
<rect x="427.7" y="-402.8" transform="matrix(0.7572 0.6532 -0.6532 0.7572 328.4846 -447.5046)" class="st2" width="676.9" height="1241.8"/>
<rect x="464.4" y="-93" transform="matrix(0.7572 0.6532 -0.6532 0.7572 158.1978 -287.5392)" class="st0" width="3" height="324"/>
<rect x="473.4" y="-80" transform="matrix(0.7572 0.6532 -0.6532 0.7572 168.8745 -290.2614)" class="st0" width="3" height="324"/>
<rect x="503.4" y="-90" transform="matrix(0.7572 0.6532 -0.6532 0.7572 169.6268 -312.2852)" class="st0" width="3" height="324"/>
<rect x="529.4" y="-90" transform="matrix(0.7572 0.6532 -0.6532 0.7572 175.9397 -329.2681)" class="st0" width="3" height="324"/>
<rect x="547.4" y="-82" transform="matrix(0.7572 0.6532 -0.6532 0.7572 185.5357 -339.0831)" class="st0" width="3" height="324"/>
<rect x="573.4" y="-82" transform="matrix(0.7572 0.6532 -0.6532 0.7572 191.8487 -356.066)" class="st0" width="3" height="324"/>
<rect x="601.4" y="-82" transform="matrix(0.7572 0.6532 -0.6532 0.7572 198.6472 -374.3553)" class="st0" width="3" height="324"/>
<rect x="641.4" y="-95" transform="matrix(0.7572 0.6532 -0.6532 0.7572 199.868 -403.6394)" class="st0" width="3" height="324"/>
<rect x="671.4" y="-95" transform="matrix(0.7572 0.6532 -0.6532 0.7572 207.1522 -423.2351)" class="st0" width="3" height="324"/>
<rect x="702.4" y="-95" transform="matrix(0.7572 0.6532 -0.6532 0.7572 214.6792 -443.4839)" class="st0" width="3" height="324"/>
<rect x="724.4" y="-84" transform="matrix(0.7572 0.6532 -0.6532 0.7572 227.206 -455.1833)" class="st0" width="3" height="324"/>
<rect x="760.4" y="-84" transform="matrix(0.7572 0.6532 -0.6532 0.7572 235.947 -478.6981)" class="st0" width="3" height="324"/>
<rect x="792.4" y="-80" transform="matrix(0.7572 0.6532 -0.6532 0.7572 246.3295 -498.6289)" class="st0" width="3" height="324"/>
<rect x="829.4" y="-80" transform="matrix(0.7572 0.6532 -0.6532 0.7572 255.3133 -522.7969)" class="st0" width="3" height="324"/>
<rect x="876.4" y="-80" transform="matrix(0.7572 0.6532 -0.6532 0.7572 266.7252 -553.4969)" class="st0" width="3" height="324"/>
<rect x="929.4" y="-86" transform="matrix(0.7572 0.6532 -0.6532 0.7572 275.6747 -589.5728)" class="st0" width="3" height="324"/>
<rect x="976.4" y="-86" transform="matrix(0.7572 0.6532 -0.6532 0.7572 287.0866 -620.2727)" class="st0" width="3" height="324"/>
<rect x="1029.4" y="-91" transform="matrix(0.7572 0.6532 -0.6532 0.7572 296.6894 -656.1058)" class="st0" width="3" height="324"/>
<rect x="1083.4" y="-91" transform="matrix(0.7572 0.6532 -0.6532 0.7572 309.8009 -691.378)" class="st0" width="3" height="324"/>
<rect x="1143.4" y="-97" transform="matrix(0.7572 0.6532 -0.6532 0.7572 320.4501 -732.0262)" class="st0" width="3" height="324"/>
<rect x="1197.4" y="-97" transform="matrix(0.7572 0.6532 -0.6532 0.7572 333.5616 -767.2985)" class="st0" width="3" height="324"/>
<rect x="1247.4" y="-97" transform="matrix(0.7572 0.6532 -0.6532 0.7572 345.7019 -799.9579)" class="st0" width="3" height="324"/>
</svg>
